#VRML V1.0 ascii

#Generated from PARTsolutions, CADENAS GmbH.
#Date of Generation: Mo Feb 10 2025
Header_Info
{
fields [SFString vendor, SFString product, SFString datatype, SFString version]
vendor   "CADENAS GmbH"
product  "PARTsolutions"
datatype "PARTsolutionsVRML"
version  "1.0"
}

# Breite: 12.00, Höhe: 16.70
PerspectiveCamera
{
  position    -1.30 4.75 30.37
  orientation 0 0 1 0
}

DEF _250-203 Group
{
Shape 
{
  Node_info
  {
    fields [SFString node_type, SFString node_name]
    node_type "Poly_Geom_Data"
    node_name ""
  }

    Material
    {
      ambientColor [0.56 0.57 0.57]
      diffuseColor [0.56 0.57 0.57]
      specularColor [0.8 0.8 0.8]
      shininess [0.5]
      transparency [0.00]
    }

  Coordinate3
  {
    point
    [
      0.164821 9.21386 0.301111, -7.3 0.3 10.5, 
      -6.5 0.3 10.5, -2.7 13.0464 6.24342, 
      2.17097 8.62193 4.86177, -7.27321 0.1 0, 
      -0.55 11.5 2.9, -0.207107 11.5 0, 
      -1.35 10.8 5.25, -0.207107 11.5 2.9, 
      4.7 0.2 10.5, -2.7 13.0464 7.8, 
      0.146447 11.3536 0.673223, 3.9 0 0, 
      2.35 9.15 9.95208, 4.5 0 0, 
      -7.2 0.0267949 0, 2.17097 8.62193 9.13823, 
      -1.35 9.8 8.75, -1.125 11.5 0.754071, 
      -5.27321 12.2 3.5, 2.54103 8.95897 4.4, 
      -6.5 0 0, 0.255017 10.5379 4.45, 
      3.9 0.3 9.5, 2.35 9.15 0.547918, 
      -4.59289 13.1 7.8, 2.10104 9.39896 6.72224, 
      -7.1 0 0, 4.6 0.0267949 0, 
      0.396447 10.3964 4.18934, 4.7 0.3 9.5, 
      0.489063 11.0109 9.65547, -5.3 12.5 4.3, 
      -5.15858 12.5 4.3, 0.898959 10.601 3.77776, 
      -2.9 13.1 7.8, 4.7 6.59289 0, 
      0.65 10.85 9.95208, -1.24282 10.8 9.15, 
      -5.3 12.5 0.941421, 0.871928 9.92097 3.80111, 
      -4.8 11.5 7.8, 2.20711 8.58579 1.75, 
      -1.7 11.5 8.75, -0.42132 9.8 0.98448, 
      0.65 10.85 0.547918, 0.43934 8.93934 10.25, 
      0.255017 10.5379 2.55, -0.95 9.8 2.44282, 
      4.63301 6.84289 10.5, 3.9 0.3 10.5, 
      -7.3 0.2 0, 2.66112 8.83888 2.18999, 
      -2.5 11.5 7.8, 1.18934 8.18934 0.68934, 
      4.7 0.3 10.5, -0.31066 9.68934 6.31066, 
      0.146447 11.3536 6.32678, 4.6732 0.1 0, 
      -5.2 -3.6 5.625, -4.8 -3.6 5.625, 
      -5.3 12.3 3.5, 1.67678 9.11612 0.450962, 
      -0.2 0.3 1.375, 1.42097 9.37193 0.301111, 
      0.2 0.3 1.375, -0.95 10.8 1.05718, 
      1.3579 8.02078 6, 0.164821 9.21386 10.1989, 
      -0.95 9.8 4.55718, -0.0909903 9.46967 10.049, 
      -0.2 0.3 9.125, 0.2 0.3 9.125, 
      -2.9 13.1 2.49289, 1.18888 10.3111 7.10793, 
      1.81112 9.68888 3.60793, 4.55355 6.94645 10.5, 
      -0.42132 9.8 6.01552, 1.89645 8.89645 4.18934, 
      -7.3 0.3 0, 0.396447 10.3964 9.81066, 
      -6.5 0.3 0, 0.898959 10.601 3.22224, 
      4.7 0.2 0, 1.14645 9.64645 0.25, 
      0.713859 8.66482 6.69889, -1.54593 11.5 9.325, 
      1.5 10 0.05, -7.1 0 6, 
      -6.5 0 6, 2.06501 8.72789 9.5, 
      2.54103 8.95897 2.6, 1.18934 8.18934 6.31066, 
      0.0428932 11.433 9.86651, -5.1 12.1 0.8, 
      -7.2 0.0267949 6, -4.8 12.1 0.8, 
      1.3579 8.02078 8, -2.5 12.7 4.3, 
      -0.55 10.8 4.45, -4.7 13.1 5.60711, 
      2.70208 8.79792 1.75, -5.2 12.1268 0.8, 
      -1.24282 9.8 2.15, -6.58261 11.171 12, 
      0.342421 10.8 4.45, 1.46386 7.91482 8.36177, 
      -7.1 0 7, 4.63301 6.84289 0, 
      -6.5 0 7, 1.81112 9.68888 10.3921, 
      3.9 0.3 0, -0.55 9.8 7.95, 
      -0.42132 9.8 7.95, 4.7 0.3 0, 
      -7.15 5.55 10.5, -4.7 13.1 7, 
      -7.2 0.0267949 7, 1.42097 9.37193 10.1989, 
      -5.3 12.5 3.5, -3.30711 13.1 7, 
      -5.1 12.1 10.5, -4.8 12.1 10.5, 
      -0.45209 9.83077 7.95, -7.27321 0.1 6, 
      -1.24282 10.8 8.35, -0.55 10.8 2.55, 
      -0.31066 9.68934 7.68934, -1.125 11.5 6.24593, 
      0.342421 10.8 2.55, 3.9 0 6, 
      -2.74142 12.5 3.5, -4.8 11.5 7, 
      -2.6 12.5 3.5, 1.89645 8.89645 9.81066, 
      0.96967 8.40901 3.04904, -2.5 12.5 3.5, 
      4.5 0 6, -5.2 12.1268 10.5, 
      -0.55 9.8 6.05, -0.42132 9.8 6.05, 
      -5.27321 12.2 0.8, -6.54578 11.25 12, 
      0.164821 9.21386 7.30111, -2.5 11.5 7, 
      1.5 7.87868 5.25, 4.6 0.0267949 6, 
      -7.1701 5.625 10.5, 1.14645 9.64645 3.25, 
      -0.55 11.5 4.1, -0.45209 9.83077 6.05, 
      -0.207107 11.5 4.1, -7.27321 0.1 7, 
      -0.55 11.5 9.9, -0.207107 11.5 9.9, 
      0.0428932 11.433 4.13349, 0.146447 11.3536 7.67322, 
      4.55355 6.94645 0, 0.489063 11.0109 0.844532, 
      3.9 0 7, 4.5 0 7, 
      -1.125 11.5 7.75407, -5.27321 12.2 10.5, 
      0.96967 8.40901 3.95096, -2.55359 12.9 6.52787, 
      2.35 9.15 7.54792, -7.3 0.2 6, 
      4.6 0.0267949 7, -7.225 5.6799 10.5, 
      0.713859 8.66482 3.80111, 1.67678 9.11612 6.54904, 
      4.6732 0.1 6, -5.3 12.5 7.94142, 
      -5.3 12.3 0.8, -7.3 5.7 10.5, 
      -0.0909903 9.46967 0.450962, 0.871928 9.92097 3.19889, 
      -0.95 10.8 5.94282, 1.5 10 6.95, 
      -2.55359 12.9 4.3, 2.20711 8.58579 8.75, 
      -0.42132 9.8 7.98448, 0.616117 10.1768 3.04904, 
      0.65 10.85 7.54792, -5.2 -3.6 4.875, 
      0.255017 10.5379 9.55, -0.95 9.8 9.44282, 
      -4.8 -3.6 4.875, -2.5 12.7 3.27002, 
      -7.3 0.2 7, 2.66112 8.83888 9.18999, 
      2.10104 9.39896 3.77776, 1.18934 8.18934 7.68934, 
      -7.3 4.1 10.5, -2.5 12.5 6.95858, 
      4.6732 0.1 7, 1.18888 10.3111 3.39207, 
      -7.225 4.1201 10.5, 0.43934 8.93934 3.75, 
      -7.15 5.55 0, -5.3 12.3 10.5, 
      1.67678 9.11612 7.45096, 1.46386 7.91482 2.13823, 
      -1.54593 11.5 4.675, -7.3 0.3 6, 
      -0.2 0.3 8.375, 0.146447 11.3536 12, 
      1.42097 9.37193 7.30111, 0.2 0.3 8.375, 
      -6.5 0.3 6, -0.95 10.8 8.05718, 
      -6.36276 11.433 12, 4.7 0.2 6, 
      0.616117 10.1768 3.95096, 2.66112 8.83888 1.31001, 
      -1.24282 9.8 1.35, -7.1701 4.175 10.5, 
      2.06501 8.72789 1, -2.9 13.1 9.49289, 
      -7.1 0 12, -6.5 0 12, 
      -7.3 0.3 7, -7.1701 5.625 0, 
      -6.5 0.3 7, -2.7 13.0464 2.74342, 
      2.17097 8.62193 1.36177, 0.898959 10.601 10.2222, 
      -7.2 0.0267949 12, -1.35 10.8 1.75, 
      4.7 0.2 7, -2.7 13.0464 4.3, 
      1.14645 9.64645 7.25, 0.0428932 11.433 12, 
      2.35 9.15 6.45208, -6.11276 11.5 12, 
      2.17097 8.62193 5.63823, -1.35 9.8 5.25, 
      1.5 10 7.05, 2.54103 8.95897 0.9, 
      0.255017 10.5379 0.95, 3.9 0.3 6, 
      -4.59289 13.1 4.3, -7.15 4.25 10.5, 
      2.10104 9.39896 3.22224, 2.54103 8.95897 9.6, 
      0.396447 10.3964 0.68934, -7.225 5.6799 0, 
      4.7 0.3 6, 0.489063 11.0109 6.15547, 
      -5.3 12.5 0.8, -5.15858 12.5 0.8, 
      -5.1 12.1 7.8, 0.898959 10.601 0.277757, 
      -2.9 13.1 4.3, 0.65 10.85 6.45208, 
      -4.8 12.1 7.8, -1.24282 10.8 5.65, 
      -7.3 5.7 0, -7.27321 0.1 12, 
      0.871928 9.92097 0.301111, -0.207107 11.5 12, 
      -7.3 9.2 10.5, -4.8 11.5 4.3, 
      -1.7 11.5 5.25, 2.70208 8.79792 8.75, 
      -5.2 12.1268 7.8, -1.24282 9.8 9.15, 
      3.9 0 12, 0.43934 8.93934 6.75, 
      4.5 0 12, 3.9 0.3 7, 
      -2.5 11.5 4.3, -7.3 4.1 0, 
      4.7 0.3 7, -0.31066 9.68934 2.81066, 
      0.146447 11.3536 2.82678, -5.3 12.5 10.5, 
      4.6 0.0267949 12, -7.225 4.1201 0, 
      -5.2 0.3 5.625, -0.55 10.8 9.55, 
      4.7 6.59289 12, -4.8 0.3 5.625, 
      0.342421 10.8 9.55, -2.74142 12.5 10.5, 
      -2.6 12.5 10.5, 0.96967 8.40901 10.049, 
      -2.5 12.5 10.5, -5.27321 12.2 7.8, 
      1.3579 8.02078 2.5, 0.164821 9.21386 6.69889, 
      -7.3 0.2 12, -0.95 9.8 1.05718, 
      -0.0909903 9.46967 6.54904, -0.2 -3.6 2.125, 
      0.2 -3.6 2.125, -7.1701 4.175 0, 
      1.14645 9.64645 10.25, 1.18888 10.3111 3.60793, 
      4.6732 0.1 12, 1.81112 9.68888 0.107926, 
      -0.42132 9.8 2.51552, 1.89645 8.89645 0.68934, 
      0.489063 11.0109 7.84453, 0.396447 10.3964 6.31066, 
      0.713859 8.66482 3.19889, -1.54593 11.5 5.825, 
      -7.1 0 2.5, -6.5 0 2.5, 
      -5.3 12.3 7.8, -0.0909903 9.46967 7.45096, 
      -7.15 4.25 0, 2.06501 8.72789 6, 
      0.871928 9.92097 10.1989, 1.18934 8.18934 2.81066, 
      0.0428932 11.433 6.36651, 0.616117 10.1768 10.049, 
      -7.2 0.0267949 2.5, 1.3579 8.02078 4.5, 
      -2.5 12.7 0.8, -6.5 0.3 12, 
      -2.5 12.7 10.27, -7.3 9.2 0, 
      -0.55 10.8 0.95, 4.7 0.2 12, 
      -4.7 13.1 2.10711, 0.342421 10.8 0.95, 
      1.46386 7.91482 4.86177, -7.1 0 3.5, 
      1.18888 10.3111 10.3921, -6.5 0 3.5, 
      1.81112 9.68888 6.89207, -0.55 9.8 4.45, 
      -0.42132 9.8 4.45, -4.7 13.1 3.5, 
      1.46386 7.91482 9.13823, -7.2 0.0267949 3.5, 
      1.42097 9.37193 6.69889, -3.30711 13.1 3.5, 
      -5.1 12.1 7, -4.8 12.1 7, 
      -0.45209 9.83077 4.45, -7.27321 0.1 2.5, 
      -1.24282 10.8 4.85, -0.31066 9.68934 4.18934, 
      -1.125 11.5 2.74593, 3.9 0 2.5, 
      -4.8 11.5 3.5, 1.89645 8.89645 6.31066, 
      2.66112 8.83888 8.31001, 4.5 0 2.5, 
      -5.2 12.1268 7, -1.24282 9.8 8.35, 
      -0.55 9.8 2.55, -0.42132 9.8 2.55, 
      2.06501 8.72789 8, 0.164821 9.21386 3.80111, 
      4.63301 6.84289 12, -2.5 11.5 3.5, 
      3.9 0.3 12, 1.5 7.87868 1.75, 
      4.6 0.0267949 2.5, -0.55 11.5 0.6, 
      -0.45209 9.83077 2.55, -2.7 13.0464 9.74342, 
      2.17097 8.62193 8.36177, -0.207107 11.5 0.6, 
      -7.27321 0.1 3.5, -0.55 11.5 6.4, 
      -1.35 10.8 8.75, -0.207107 11.5 6.4, 
      0.0428932 11.433 0.633494, 0.146447 11.3536 4.17322, 
      3.9 0 3.5, -6.58261 11.171 10.5, 
      4.5 0 3.5, -1.125 11.5 4.25407, 
      -5.27321 12.2 7, 2.54103 8.95897 7.9, 
      0.255017 10.5379 7.95, 0.96967 8.40901 0.450962, 
      -2.55359 12.9 3.02787, 2.35 9.15 4.04792, 
      -7.3 0.2 2.5, 2.10104 9.39896 10.2222, 
      4.6 0.0267949 3.5, 0.396447 10.3964 7.68934, 
      -5.3 12.5 7.8, 0.713859 8.66482 0.301111, 
      -5.15858 12.5 7.8, 1.67678 9.11612 3.04904, 
      0.898959 10.601 7.27776, 4.6732 0.1 2.5, 
      -5.3 12.5 4.44142, -0.95 10.8 2.44282, 
      1.5 10 3.45, 0.871928 9.92097 7.30111, 
      -2.55359 12.9 0.8, 2.20711 8.58579 5.25, 
      4.55355 6.94645 12, -0.42132 9.8 4.48448, 
      0.65 10.85 4.04792, -6.54578 11.25 10.5, 
      0.255017 10.5379 6.05, -0.95 9.8 5.94282, 
      -5.2 0.3 4.875, -4.8 0.3 4.875, 
      -7.3 0.2 3.5, 2.66112 8.83888 5.68999, 
      2.10104 9.39896 0.277757, 1.18934 8.18934 4.18934, 
      -0.31066 9.68934 9.81066, -2.5 12.5 3.45858, 
      0.146447 11.3536 9.82678, 4.6732 0.1 3.5, 
      0.43934 8.93934 0.25, -5.3 12.3 7, 
      1.67678 9.11612 3.95096, -0.2 -3.6 1.375, 
      -1.54593 11.5 1.175, -7.3 0.3 2.5, 
      0.2 -3.6 1.375, 1.42097 9.37193 3.80111, 
      -6.5 0.3 2.5, -0.95 10.8 4.55718, 
      1.3579 8.02078 9.5, 4.7 0.2 2.5, 
      0.616117 10.1768 0.450962, -0.95 9.8 8.05718, 
      -0.2 -3.6 9.125, 0.2 -3.6 9.125, 
      -2.9 13.1 5.99289, 1.81112 9.68888 7.10793, 
      -0.42132 9.8 9.51552, 1.89645 8.89645 7.68934, 
      -7.3 0.3 3.5, -7.15 5.55 12, 
      -6.5 0.3 3.5, 0.898959 10.601 6.72224, 
      4.7 0.2 3.5, -2.7 13.0464 0.8, 
      1.14645 9.64645 3.75, -6.58261 11.171 0, 
      2.35 9.15 2.95208, 2.17097 8.62193 2.13823, 
      0.713859 8.66482 10.1989, -1.35 9.8 1.75, 
      1.5 10 3.55, -7.1 0 9.5, 
      -6.5 0 9.5, 3.9 0.3 2.5, 
      -4.59289 13.1 0.8, 2.54103 8.95897 6.1, 
      0.146447 11.3536 10.5, 4.7 0.3 2.5, 
      0.489063 11.0109 2.65547, 1.18934 8.18934 9.81066, 
      -5.1 12.1 4.3, -2.9 13.1 0.8, 
      -7.2 0.0267949 9.5, 0.65 10.85 2.95208, 
      -4.8 12.1 4.3, -6.36276 11.433 10.5, 
      -1.24282 10.8 2.15, -2.5 12.7 7.8, 
      -7.1701 5.625 12, -4.8 11.5 0.8, 
      -0.55 10.8 7.95, -1.7 11.5 1.75, 
      -4.7 13.1 9.10711, 2.70208 8.79792 5.25, 
      -5.2 12.1268 4.3, -1.24282 9.8 5.65, 
      0.43934 8.93934 3.25, 0.342421 10.8 7.95, 
      -7.1 0 10.5, -6.54578 11.25 0, 
      -6.5 0 10.5, 3.9 0.3 3.5, 
      -2.5 11.5 0.8, 4.7 0.3 3.5, 
      -4.7 13.1 10.5, -7.2 0.0267949 10.5, 
      -5.3 12.5 7, -7.225 5.6799 12, 
      -3.30711 13.1 10.5, 0.0428932 11.433 10.5, 
      -7.27321 0.1 9.5, -6.11276 11.5 10.5, 
      -0.55 10.8 6.05, -7.3 5.7 12, 
      -1.125 11.5 9.74593, 0.342421 10.8 6.05, 
      3.9 0 9.5, -2.74142 12.5 7, 
      -4.8 11.5 10.5, -2.6 12.5 7, 
      0.96967 8.40901 6.54904, -2.5 12.5 7, 
      4.5 0 9.5, -0.55 9.8 9.55, 
      -0.42132 9.8 9.55, -5.27321 12.2 4.3, 
      0.164821 9.21386 3.19889, -2.5 11.5 10.5, 
      1.5 7.87868 8.75, -0.0909903 9.46967 3.04904, 
      4.6 0.0267949 9.5, -7.3 4.1 12, 
      -0.2 0.3 2.125, 1.14645 9.64645 6.75, 
      -0.55 11.5 7.6, -0.45209 9.83077 9.55, 
      0.2 0.3 2.125, -0.207107 11.5 7.6, 
      -7.27321 0.1 10.5, -0.207107 11.5 10.5, 
      1.18888 10.3111 0.107926, 0.0428932 11.433 7.63349, 
      -7.225 4.1201 12, 0.489063 11.0109 4.34453, 
      3.9 0 10.5, 4.5 0 10.5, 
      0.396447 10.3964 2.81066, 0.96967 8.40901 7.45096, 
      -2.55359 12.9 10.0279, -7.3 0.2 9.5, 
      4.6 0.0267949 10.5, -1.54593 11.5 2.325, 
      0.713859 8.66482 7.30111, 1.67678 9.11612 10.049, 
      4.7 6.59289 10.5, 4.6732 0.1 9.5, 
      -5.3 12.3 4.3, -7.1701 4.175 12, 
      -0.0909903 9.46967 3.95096, 2.06501 8.72789 2.5, 
      0.871928 9.92097 6.69889, -0.95 10.8 9.44282, 
      1.5 10 10.45, 0.146447 11.3536 0, 
      -2.55359 12.9 7.8, 0.0428932 11.433 2.86651, 
      0.616117 10.1768 6.54904, 1.3579 8.02078 1, 
      -6.36276 11.433 0, -2.5 12.7 6.77002, 
      -7.3 0.2 10.5, 2.10104 9.39896 7.27776, 
      -2.5 12.5 10.4586, 1.46386 7.91482 1.36177, 
      4.6732 0.1 10.5, 1.18888 10.3111 6.89207, 
      1.81112 9.68888 3.39207, -0.55 9.8 0.95, 
      -0.42132 9.8 0.95, 0.43934 8.93934 7.25, 
      1.46386 7.91482 5.63823, -0.2 -3.6 8.375, 
      -1.54593 11.5 8.175, -7.15 4.25 12, 
      -7.3 0.3 9.5, 0.2 -3.6 8.375, 
      1.42097 9.37193 3.19889, -5.1 12.1 3.5, 
      -6.5 0.3 9.5, 0.0428932 11.433 0, 
      -4.8 12.1 3.5, -0.45209 9.83077 0.95, 
      -1.24282 10.8 1.35, -6.11276 11.5 0, 
      4.7 0.2 9.5, 0.616117 10.1768 7.45096, 
      -0.31066 9.68934 0.68934, 1.89645 8.89645 2.81066, 
      2.66112 8.83888 4.81001, -7.3 9.2 12, 
      -5.2 12.1268 3.5, -1.24282 9.8 4.85, 
      2.06501 8.72789 4.5
    ]
  }

  Normal
  {
    vector
    [
      0.9659 0.0000 0.0000,-1.0000 0.0000 0.0000,
      1.0000 0.0000 0.0000,-0.3688 0.8901 -0.2385,
      0.0000 0.0000 1.0000,0.0000 0.0000 -1.0000,
      0.4830 0.0000 -0.8365,0.4830 0.0000 0.8365,
      -0.6772 0.6772 0.2566,0.0920 0.4293 -0.8902,
      -0.0652 0.5865 0.7981,-0.4957 0.4957 0.7011,
      0.4957 -0.4957 -0.7011,0.2607 0.2607 -0.9216,
      -0.3688 0.8901 0.2385,-0.9659 0.2588 0.0000,
      0.9659 -0.2588 0.0000,-0.9659 -0.2588 0.0000,
      0.9659 0.2588 0.0000,-0.3505 0.3505 -0.8586,
      0.3505 -0.3505 0.8586,-0.9397 0.3420 0.0000,
      -0.2001 0.7215 0.6517,0.4349 0.4349 0.7533,
      -0.5883 0.5547 0.5883,-0.9063 0.4226 0.0000,
      -0.6772 0.6772 -0.2566,0.8796 0.4338 0.0000,
      0.8698 0.4349 0.0000,0.7533 0.4349 -0.4349,
      0.4293 0.0920 -0.8902,-0.8365 0.4830 0.0000,
      0.8365 -0.4830 0.0000,-0.8365 -0.4830 0.0000,
      0.8365 0.4830 0.0000,0.0000 0.4472 -0.8944,
      -0.2001 0.7215 -0.6517,-0.8067 0.5649 0.0000,
      -0.1814 0.1814 -0.9577,0.1814 -0.1814 0.9577,
      0.2331 0.4349 0.8698,-0.0652 0.5865 -0.7981,
      0.7934 0.6088 0.0000,0.7821 -0.2608 0.5659,
      0.4293 0.0920 0.8902,0.2607 0.2607 0.9216,
      -0.7011 0.7011 0.0000,-0.7071 0.7071 0.0000,
      0.7071 0.7071 -0.0000,0.8365 0.0000 -0.4830,
      0.8365 0.0000 0.4830,0.6088 0.7934 0.0000,
      -0.4957 0.4957 -0.7011,0.4957 -0.4957 0.7011,
      0.5610 -0.5610 -0.6088,0.4830 -0.8365 0.0000,
      -0.4830 0.8365 0.0000,0.0000 0.0000 -0.9914,
      0.0000 0.0000 0.9914,0.4830 0.8365 0.0000,
      -0.4830 -0.8365 0.0000,0.4338 0.8796 0.0000,
      -0.3910 0.9124 0.0000,-0.1814 0.1814 0.9577,
      0.1814 -0.1814 -0.9577,0.5883 0.5547 -0.5883,
      0.2588 -0.9659 0.0000,-0.2588 0.9659 0.0000,
      0.2588 0.9659 0.0000,-0.2588 -0.9659 0.0000,
      0.0920 0.4293 0.8902,0.0000 -1.0000 0.0000,
      0.0000 1.0000 0.0000,-0.3505 0.3505 0.8586,
      0.3505 -0.3505 -0.8586,-0.6071 0.6071 0.4957,
      -0.3037 0.8250 -0.4608,-0.3037 0.8250 0.4608,
      0.7215 -0.2001 0.6517,0.5865 -0.0652 0.7981,
      0.7821 -0.2608 -0.5659,0.4349 0.4349 -0.7533,
      0.5865 -0.0652 -0.7981,0.7533 0.4349 0.4349,
      0.5610 -0.5610 0.6088,0.2331 0.4349 -0.8698,
      0.0000 0.4472 0.8944,-0.6071 0.6071 -0.4957,
      0.7215 -0.2001 -0.6517,0.2588 0.0000 -0.9659,
      0.2588 0.0000 0.9659
    ]
  }

    Node_Info
    {
      fields [SFString node_type, SFString node_name]
      node_type "Poly_Surface"
      node_name ""
    }
    NormalBinding { value PER_VERTEX_INDEXED }
    Separator
    {
      MatrixTransform
      {
      matrix 1.0000 0.0000 0.0000 0.0000
             0.0000 1.0000 0.0000 0.0000
             0.0000 0.0000 1.0000 0.0000
             0.0000 0.0000 0.0000 1.0000
      }
      IndexedFaceSet
      {
      coordIndex
      [
        567, 541, 112, -1,
        112, 541, 158, -1,
        112, 158, 115, -1,
        115, 158, 109, -1,
        115, 109, 37, -1,
        112, 82, 546, -1,
        112, 546, 571, -1,
        112, 571, 7, -1,
        112, 7, 567, -1,
        82, 80, 279, -1,
        82, 279, 297, -1,
        82, 297, 312, -1,
        82, 312, 443, -1,
        82, 443, 477, -1,
        82, 477, 546, -1,
        443, 312, 200, -1,
        443, 200, 223, -1,
        443, 223, 247, -1,
        443, 247, 258, -1,
        443, 258, 323, -1,
        279, 80, 273, -1,
        5, 52, 80, -1,
        5, 80, 82, -1,
        5, 82, 22, -1,
        5, 22, 28, -1,
        5, 28, 16, -1,
        15, 13, 112, -1,
        15, 112, 115, -1,
        15, 115, 84, -1,
        15, 84, 59, -1,
        15, 59, 29, -1,
        482, 277, 163, -1,
        482, 163, 139, -1,
        482, 139, 122, -1,
        482, 122, 123, -1,
        482, 123, 505, -1,
        482, 505, 486, -1,
        505, 288, 286, -1,
        505, 286, 285, -1,
        505, 285, 486, -1,
        505, 123, 496, -1,
        163, 277, 201, -1,
        548, 1, 2, -1,
        548, 2, 478, -1,
        548, 478, 476, -1,
        548, 476, 483, -1,
        548, 483, 516, -1,
        522, 51, 56, -1,
        522, 56, 10, -1,
        522, 10, 552, -1,
        522, 552, 528, -1,
        522, 528, 523, -1,
        258, 247, 169, -1,
        258, 169, 175, -1,
        262, 375, 443, -1,
        262, 443, 323, -1,
        37, 532, 56, -1,
        37, 56, 31, -1,
        37, 31, 274, -1,
        37, 274, 248, -1,
        37, 248, 481, -1,
        37, 481, 455, -1,
        37, 455, 115, -1,
        323, 258, 175, -1,
        323, 175, 262, -1,
        146, 328, 558, -1,
        558, 328, 319, -1,
        558, 319, 68, -1,
        68, 319, 411, -1,
        68, 411, 93, -1,
        93, 411, 164, -1,
        93, 164, 498, -1,
        498, 164, 170, -1,
        498, 170, 86, -1,
        86, 170, 199, -1,
        86, 199, 269, -1,
        269, 199, 357, -1,
        269, 357, 291, -1,
        291, 357, 536, -1,
        291, 536, 294, -1,
        294, 536, 345, -1,
        294, 345, 57, -1,
        57, 345, 334, -1,
        57, 334, 401, -1,
        57, 401, 78, -1,
        57, 78, 141, -1,
        57, 141, 151, -1,
        334, 345, 342, -1,
        506, 107, 336, -1,
        336, 107, 98, -1,
        336, 98, 426, -1,
        426, 98, 193, -1,
        426, 193, 457, -1,
        457, 193, 525, -1,
        457, 525, 287, -1,
        287, 525, 530, -1,
        287, 530, 446, -1,
        446, 530, 557, -1,
        446, 557, 47, -1,
        47, 557, 144, -1,
        47, 144, 69, -1,
        69, 144, 311, -1,
        69, 311, 71, -1,
        71, 311, 128, -1,
        71, 128, 412, -1,
        412, 128, 114, -1,
        412, 114, 182, -1,
        412, 182, 434, -1,
        412, 434, 502, -1,
        412, 502, 513, -1,
        114, 128, 124, -1,
        361, 551, 203, -1,
        203, 551, 545, -1,
        203, 545, 290, -1,
        290, 545, 55, -1,
        290, 55, 315, -1,
        315, 55, 381, -1,
        315, 381, 136, -1,
        136, 381, 389, -1,
        136, 389, 306, -1,
        306, 389, 416, -1,
        306, 416, 474, -1,
        474, 416, 0, -1,
        474, 0, 504, -1,
        504, 0, 176, -1,
        504, 176, 507, -1,
        507, 176, 574, -1,
        507, 574, 275, -1,
        275, 574, 556, -1,
        275, 556, 45, -1,
        275, 45, 302, -1,
        275, 302, 355, -1,
        275, 355, 364, -1,
        556, 574, 569, -1,
        361, 203, 445, -1,
        361, 445, 43, -1,
        506, 336, 17, -1,
        506, 17, 181, -1,
        506, 181, 366, -1,
        506, 366, 107, -1,
        146, 558, 236, -1,
        146, 236, 399, -1,
        146, 399, 4, -1,
        146, 4, 328, -1,
        361, 43, 226, -1,
        361, 226, 551, -1,
        454, 77, 540, -1,
        454, 540, 330, -1,
        454, 330, 227, -1,
        454, 227, 38, -1,
        454, 38, 32, -1,
        454, 32, 414, -1,
        25, 239, 158, -1,
        158, 239, 215, -1,
        158, 215, 77, -1,
        77, 215, 102, -1,
        77, 102, 471, -1,
        471, 102, 53, -1,
        471, 53, 576, -1,
        576, 53, 92, -1,
        576, 92, 21, -1,
        21, 92, 444, -1,
        21, 444, 383, -1,
        383, 444, 244, -1,
        383, 244, 192, -1,
        192, 244, 554, -1,
        192, 554, 76, -1,
        76, 554, 396, -1,
        76, 396, 448, -1,
        448, 396, 197, -1,
        448, 197, 299, -1,
        299, 197, 83, -1,
        299, 83, 35, -1,
        35, 83, 461, -1,
        35, 461, 402, -1,
        402, 461, 456, -1,
        402, 456, 521, -1,
        521, 456, 276, -1,
        521, 276, 373, -1,
        77, 471, 265, -1,
        265, 471, 409, -1,
        265, 409, 350, -1,
        350, 409, 453, -1,
        350, 453, 379, -1,
        379, 453, 234, -1,
        379, 234, 166, -1,
        166, 234, 27, -1,
        166, 27, 549, -1,
        549, 27, 332, -1,
        549, 332, 433, -1,
        433, 332, 179, -1,
        433, 179, 238, -1,
        238, 179, 553, -1,
        238, 553, 75, -1,
        75, 553, 439, -1,
        75, 439, 392, -1,
        392, 439, 255, -1,
        392, 255, 184, -1,
        184, 255, 249, -1,
        184, 249, 304, -1,
        304, 249, 58, -1,
        304, 58, 157, -1,
        77, 265, 191, -1,
        77, 191, 245, -1,
        77, 245, 14, -1,
        77, 14, 385, -1,
        77, 385, 111, -1,
        77, 111, 540, -1,
        541, 12, 159, -1,
        541, 159, 46, -1,
        541, 46, 253, -1,
        541, 253, 518, -1,
        541, 518, 88, -1,
        541, 88, 158, -1,
        158, 88, 301, -1,
        158, 301, 410, -1,
        158, 410, 25, -1,
        158, 77, 50, -1,
        158, 50, 109, -1,
        37, 109, 50, -1,
        37, 50, 532, -1,
        334, 333, 401, -1,
        78, 140, 141, -1,
        114, 113, 182, -1,
        434, 501, 502, -1,
        556, 555, 45, -1,
        302, 354, 355, -1,
        579, 237, 473, -1,
        579, 473, 405, -1,
        579, 405, 140, -1,
        579, 140, 78, -1,
        579, 78, 401, -1,
        579, 401, 333, -1,
        579, 333, 70, -1,
        353, 18, 267, -1,
        353, 267, 187, -1,
        353, 187, 501, -1,
        353, 501, 434, -1,
        353, 434, 182, -1,
        353, 182, 113, -1,
        353, 113, 429, -1,
        216, 447, 104, -1,
        216, 104, 49, -1,
        216, 49, 354, -1,
        216, 354, 302, -1,
        216, 302, 45, -1,
        216, 45, 555, -1,
        216, 555, 293, -1,
        260, 85, 88, -1,
        260, 88, 518, -1,
        260, 0, 416, -1,
        260, 416, 85, -1,
        0, 260, 428, -1,
        0, 428, 176, -1,
        246, 574, 176, -1,
        246, 176, 428, -1,
        524, 275, 364, -1,
        524, 364, 48, -1,
        275, 524, 183, -1,
        275, 183, 507, -1,
        507, 183, 177, -1,
        507, 177, 504, -1,
        357, 41, 214, -1,
        357, 214, 536, -1,
        30, 345, 536, -1,
        30, 536, 214, -1,
        57, 151, 404, -1,
        57, 404, 305, -1,
        396, 149, 177, -1,
        396, 177, 197, -1,
        177, 149, 474, -1,
        177, 474, 504, -1,
        397, 232, 238, -1,
        397, 238, 75, -1,
        397, 144, 557, -1,
        397, 557, 232, -1,
        144, 397, 573, -1,
        144, 573, 311, -1,
        387, 128, 311, -1,
        387, 311, 573, -1,
        81, 412, 513, -1,
        81, 513, 186, -1,
        412, 81, 317, -1,
        412, 317, 71, -1,
        71, 317, 314, -1,
        71, 314, 69, -1,
        540, 298, 314, -1,
        540, 314, 330, -1,
        314, 298, 47, -1,
        314, 47, 69, -1,
        41, 442, 448, -1,
        41, 448, 299, -1,
        41, 357, 199, -1,
        41, 199, 442, -1,
        57, 305, 544, -1,
        57, 544, 294, -1,
        294, 544, 538, -1,
        294, 538, 291, -1,
        179, 511, 538, -1,
        179, 538, 553, -1,
        538, 511, 269, -1,
        538, 269, 291, -1,
        396, 554, 564, -1,
        396, 564, 149, -1,
        306, 474, 149, -1,
        306, 149, 564, -1,
        540, 111, 119, -1,
        540, 119, 298, -1,
        446, 47, 298, -1,
        446, 298, 119, -1,
        531, 119, 111, -1,
        531, 111, 385, -1,
        287, 446, 119, -1,
        287, 119, 531, -1,
        135, 531, 385, -1,
        135, 385, 14, -1,
        457, 287, 531, -1,
        457, 531, 135, -1,
        91, 135, 14, -1,
        91, 14, 245, -1,
        426, 457, 135, -1,
        426, 135, 91, -1,
        17, 91, 245, -1,
        17, 245, 191, -1,
        17, 336, 426, -1,
        17, 426, 91, -1,
        265, 181, 17, -1,
        265, 17, 191, -1,
        265, 350, 366, -1,
        265, 366, 181, -1,
        379, 356, 366, -1,
        379, 366, 350, -1,
        356, 98, 107, -1,
        356, 107, 366, -1,
        166, 435, 356, -1,
        166, 356, 379, -1,
        435, 193, 98, -1,
        435, 98, 356, -1,
        549, 202, 435, -1,
        549, 435, 166, -1,
        202, 525, 193, -1,
        202, 193, 435, -1,
        433, 208, 202, -1,
        433, 202, 549, -1,
        208, 530, 525, -1,
        208, 525, 202, -1,
        238, 232, 208, -1,
        238, 208, 433, -1,
        232, 557, 530, -1,
        232, 530, 208, -1,
        179, 332, 338, -1,
        179, 338, 511, -1,
        86, 269, 511, -1,
        86, 511, 338, -1,
        171, 338, 332, -1,
        171, 332, 27, -1,
        498, 86, 338, -1,
        498, 338, 171, -1,
        349, 171, 27, -1,
        349, 27, 234, -1,
        93, 498, 171, -1,
        93, 171, 349, -1,
        313, 349, 234, -1,
        313, 234, 453, -1,
        68, 93, 349, -1,
        68, 349, 313, -1,
        192, 76, 423, -1,
        192, 423, 418, -1,
        170, 164, 418, -1,
        170, 418, 423, -1,
        448, 442, 423, -1,
        448, 423, 76, -1,
        442, 199, 170, -1,
        442, 170, 423, -1,
        554, 244, 391, -1,
        554, 391, 564, -1,
        136, 306, 564, -1,
        136, 564, 391, -1,
        236, 313, 453, -1,
        236, 453, 409, -1,
        236, 558, 68, -1,
        236, 68, 313, -1,
        409, 471, 399, -1,
        409, 399, 236, -1,
        471, 576, 4, -1,
        471, 4, 399, -1,
        21, 580, 4, -1,
        21, 4, 576, -1,
        580, 319, 328, -1,
        580, 328, 4, -1,
        383, 79, 580, -1,
        383, 580, 21, -1,
        79, 411, 319, -1,
        79, 319, 580, -1,
        192, 418, 79, -1,
        192, 79, 383, -1,
        418, 164, 411, -1,
        418, 411, 79, -1,
        575, 391, 244, -1,
        575, 244, 444, -1,
        315, 136, 391, -1,
        315, 391, 575, -1,
        537, 575, 444, -1,
        537, 444, 92, -1,
        290, 315, 575, -1,
        290, 575, 537, -1,
        445, 537, 92, -1,
        445, 92, 53, -1,
        445, 203, 290, -1,
        445, 290, 537, -1,
        102, 43, 445, -1,
        102, 445, 53, -1,
        102, 215, 226, -1,
        102, 226, 43, -1,
        239, 218, 226, -1,
        239, 226, 215, -1,
        218, 545, 551, -1,
        218, 551, 226, -1,
        25, 303, 218, -1,
        25, 218, 239, -1,
        303, 55, 545, -1,
        303, 545, 218, -1,
        410, 63, 303, -1,
        410, 303, 25, -1,
        63, 381, 55, -1,
        63, 55, 303, -1,
        301, 65, 63, -1,
        301, 63, 410, -1,
        65, 389, 381, -1,
        65, 381, 63, -1,
        88, 85, 65, -1,
        88, 65, 301, -1,
        85, 416, 389, -1,
        85, 389, 65, -1,
        229, 469, 529, -1,
        229, 529, 464, -1,
        104, 447, 229, -1,
        104, 229, 464, -1,
        346, 395, 464, -1,
        346, 464, 529, -1,
        49, 104, 464, -1,
        49, 464, 395, -1,
        395, 346, 6, -1,
        395, 6, 127, -1,
        127, 354, 49, -1,
        127, 49, 395, -1,
        370, 44, 87, -1,
        370, 87, 39, -1,
        267, 18, 370, -1,
        267, 370, 39, -1,
        39, 87, 492, -1,
        39, 492, 539, -1,
        187, 267, 39, -1,
        187, 39, 539, -1,
        539, 492, 154, -1,
        539, 154, 281, -1,
        281, 501, 187, -1,
        281, 187, 539, -1,
        162, 211, 468, -1,
        162, 468, 512, -1,
        113, 468, 211, -1,
        113, 211, 429, -1,
        211, 162, 560, -1,
        211, 560, 126, -1,
        353, 429, 211, -1,
        353, 211, 126, -1,
        44, 370, 126, -1,
        44, 126, 560, -1,
        18, 353, 126, -1,
        18, 126, 370, -1,
        8, 264, 307, -1,
        8, 307, 257, -1,
        473, 237, 8, -1,
        473, 8, 257, -1,
        257, 307, 129, -1,
        257, 129, 178, -1,
        405, 473, 257, -1,
        405, 257, 178, -1,
        178, 129, 369, -1,
        178, 369, 490, -1,
        490, 140, 405, -1,
        490, 405, 178, -1,
        377, 425, 100, -1,
        377, 100, 150, -1,
        333, 100, 425, -1,
        333, 425, 70, -1,
        425, 377, 204, -1,
        425, 204, 344, -1,
        579, 70, 425, -1,
        579, 425, 344, -1,
        264, 8, 344, -1,
        264, 344, 204, -1,
        237, 579, 344, -1,
        237, 344, 8, -1,
        501, 281, 284, -1,
        501, 284, 186, -1,
        501, 186, 513, -1,
        501, 513, 502, -1,
        284, 281, 154, -1,
        284, 154, 155, -1,
        284, 155, 94, -1,
        284, 94, 414, -1,
        284, 414, 32, -1,
        38, 81, 186, -1,
        38, 186, 284, -1,
        38, 284, 32, -1,
        227, 317, 81, -1,
        227, 81, 38, -1,
        330, 314, 317, -1,
        330, 317, 227, -1,
        573, 397, 75, -1,
        573, 75, 392, -1,
        387, 573, 392, -1,
        387, 392, 184, -1,
        380, 387, 184, -1,
        380, 184, 304, -1,
        380, 304, 475, -1,
        124, 128, 387, -1,
        124, 387, 380, -1,
        512, 468, 475, -1,
        512, 475, 304, -1,
        512, 304, 157, -1,
        512, 157, 519, -1,
        512, 519, 515, -1,
        124, 380, 475, -1,
        124, 475, 468, -1,
        124, 468, 113, -1,
        124, 113, 114, -1,
        140, 490, 493, -1,
        140, 493, 404, -1,
        140, 404, 151, -1,
        140, 151, 141, -1,
        493, 490, 369, -1,
        493, 369, 371, -1,
        493, 371, 316, -1,
        493, 316, 58, -1,
        493, 58, 249, -1,
        255, 305, 404, -1,
        255, 404, 493, -1,
        255, 493, 249, -1,
        439, 544, 305, -1,
        439, 305, 255, -1,
        553, 538, 544, -1,
        553, 544, 439, -1,
        214, 41, 299, -1,
        214, 299, 35, -1,
        35, 402, 30, -1,
        35, 30, 214, -1,
        23, 30, 402, -1,
        23, 402, 521, -1,
        23, 521, 106, -1,
        342, 345, 30, -1,
        342, 30, 23, -1,
        150, 100, 106, -1,
        150, 106, 521, -1,
        150, 521, 373, -1,
        150, 373, 156, -1,
        150, 156, 152, -1,
        354, 127, 130, -1,
        354, 130, 48, -1,
        354, 48, 364, -1,
        354, 364, 355, -1,
        342, 23, 106, -1,
        342, 106, 100, -1,
        342, 100, 333, -1,
        342, 333, 334, -1,
        130, 127, 6, -1,
        130, 6, 9, -1,
        130, 9, 543, -1,
        130, 543, 276, -1,
        130, 276, 456, -1,
        461, 524, 48, -1,
        461, 48, 130, -1,
        461, 130, 456, -1,
        83, 183, 524, -1,
        83, 524, 461, -1,
        83, 197, 177, -1,
        83, 177, 183, -1,
        428, 260, 518, -1,
        428, 518, 253, -1,
        246, 428, 253, -1,
        246, 253, 46, -1,
        240, 246, 46, -1,
        240, 46, 159, -1,
        240, 159, 327, -1,
        569, 574, 246, -1,
        569, 246, 240, -1,
        363, 324, 327, -1,
        363, 327, 159, -1,
        363, 159, 12, -1,
        363, 12, 372, -1,
        363, 372, 367, -1,
        569, 240, 327, -1,
        569, 327, 324, -1,
        569, 324, 555, -1,
        569, 555, 556, -1,
        19, 67, 324, -1,
        19, 324, 363, -1,
        555, 324, 67, -1,
        555, 67, 293, -1,
        67, 19, 420, -1,
        67, 420, 570, -1,
        216, 293, 67, -1,
        216, 67, 570, -1,
        469, 229, 570, -1,
        469, 570, 420, -1,
        447, 216, 570, -1,
        447, 570, 229, -1,
        477, 443, 375, -1,
        477, 375, 403, -1,
        567, 7, 367, -1,
        567, 367, 372, -1,
        156, 543, 9, -1,
        156, 9, 152, -1,
        371, 515, 519, -1,
        371, 519, 316, -1,
        487, 94, 155, -1,
        487, 155, 517, -1,
        12, 541, 567, -1,
        12, 567, 372, -1,
        373, 276, 543, -1,
        373, 543, 156, -1,
        157, 58, 316, -1,
        157, 316, 519, -1,
        454, 414, 94, -1,
        454, 94, 487, -1,
        546, 477, 403, -1,
        546, 403, 463, -1,
        489, 571, 546, -1,
        489, 546, 463, -1,
        529, 469, 359, -1,
        359, 469, 420, -1,
        359, 420, 480, -1,
        480, 420, 19, -1,
        480, 19, 467, -1,
        467, 19, 363, -1,
        467, 363, 7, -1,
        7, 363, 367, -1,
        307, 264, 145, -1,
        145, 264, 204, -1,
        145, 204, 272, -1,
        272, 204, 377, -1,
        272, 377, 263, -1,
        263, 377, 150, -1,
        263, 150, 359, -1,
        359, 150, 152, -1,
        359, 152, 9, -1,
        359, 9, 6, -1,
        359, 6, 346, -1,
        359, 346, 529, -1,
        87, 44, 505, -1,
        505, 44, 560, -1,
        505, 560, 54, -1,
        54, 560, 162, -1,
        54, 162, 42, -1,
        42, 162, 512, -1,
        42, 512, 145, -1,
        145, 512, 515, -1,
        145, 515, 371, -1,
        145, 371, 369, -1,
        145, 369, 129, -1,
        145, 129, 307, -1,
        505, 517, 155, -1,
        505, 155, 154, -1,
        505, 154, 492, -1,
        505, 492, 87, -1,
        489, 496, 42, -1,
        489, 42, 133, -1,
        489, 133, 263, -1,
        489, 263, 348, -1,
        489, 348, 467, -1,
        489, 467, 571, -1,
        571, 467, 7, -1,
        348, 263, 359, -1,
        133, 42, 145, -1,
        480, 467, 452, -1,
        480, 452, 459, -1,
        480, 459, 441, -1,
        480, 441, 398, -1,
        480, 398, 320, -1,
        467, 97, 452, -1,
        452, 97, 95, -1,
        452, 95, 251, -1,
        251, 95, 103, -1,
        251, 103, 142, -1,
        174, 250, 251, -1,
        174, 251, 142, -1,
        348, 568, 97, -1,
        348, 97, 467, -1,
        359, 480, 320, -1,
        359, 320, 413, -1,
        359, 413, 137, -1,
        413, 320, 189, -1,
        272, 263, 242, -1,
        272, 242, 254, -1,
        272, 254, 231, -1,
        272, 231, 180, -1,
        272, 180, 99, -1,
        263, 462, 242, -1,
        242, 462, 458, -1,
        242, 458, 34, -1,
        34, 458, 472, -1,
        34, 472, 503, -1,
        534, 33, 34, -1,
        534, 34, 503, -1,
        133, 341, 462, -1,
        133, 462, 263, -1,
        145, 272, 99, -1,
        145, 99, 195, -1,
        145, 195, 499, -1,
        195, 99, 547, -1,
        54, 42, 26, -1,
        54, 26, 36, -1,
        54, 36, 11, -1,
        54, 11, 542, -1,
        54, 542, 465, -1,
        42, 256, 26, -1,
        26, 256, 252, -1,
        26, 252, 390, -1,
        390, 252, 266, -1,
        390, 266, 289, -1,
        310, 388, 390, -1,
        310, 390, 289, -1,
        42, 496, 123, -1,
        42, 123, 256, -1,
        505, 54, 465, -1,
        505, 465, 550, -1,
        505, 550, 288, -1,
        550, 465, 322, -1,
        335, 120, 20, -1,
        335, 20, 578, -1,
        335, 578, 565, -1,
        335, 565, 568, -1,
        335, 568, 359, -1,
        335, 359, 339, -1,
        359, 137, 134, -1,
        359, 134, 132, -1,
        359, 132, 339, -1,
        359, 568, 348, -1,
        20, 120, 62, -1,
        459, 452, 74, -1,
        335, 339, 326, -1,
        40, 132, 134, -1,
        40, 134, 250, -1,
        413, 251, 250, -1,
        413, 250, 134, -1,
        413, 134, 137, -1,
        132, 40, 326, -1,
        132, 326, 339, -1,
        251, 413, 189, -1,
        251, 189, 382, -1,
        251, 382, 225, -1,
        251, 225, 74, -1,
        251, 74, 452, -1,
        441, 459, 74, -1,
        441, 74, 225, -1,
        398, 441, 225, -1,
        398, 225, 382, -1,
        320, 398, 382, -1,
        320, 382, 189, -1,
        568, 565, 95, -1,
        568, 95, 97, -1,
        174, 62, 120, -1,
        174, 120, 40, -1,
        174, 40, 250, -1,
        103, 95, 565, -1,
        103, 565, 578, -1,
        142, 103, 578, -1,
        142, 578, 20, -1,
        174, 142, 20, -1,
        174, 20, 62, -1,
        117, 484, 378, -1,
        117, 378, 352, -1,
        117, 352, 340, -1,
        117, 340, 341, -1,
        117, 341, 145, -1,
        117, 145, 121, -1,
        145, 499, 497, -1,
        145, 497, 495, -1,
        145, 495, 121, -1,
        145, 341, 133, -1,
        378, 484, 417, -1,
        254, 242, 432, -1,
        117, 121, 101, -1,
        394, 495, 497, -1,
        394, 497, 33, -1,
        195, 34, 33, -1,
        195, 33, 497, -1,
        195, 497, 499, -1,
        495, 394, 101, -1,
        495, 101, 121, -1,
        34, 195, 547, -1,
        34, 547, 165, -1,
        34, 165, 3, -1,
        34, 3, 432, -1,
        34, 432, 242, -1,
        231, 254, 432, -1,
        231, 432, 3, -1,
        180, 231, 3, -1,
        180, 3, 165, -1,
        99, 180, 165, -1,
        99, 165, 547, -1,
        341, 340, 458, -1,
        341, 458, 462, -1,
        534, 417, 484, -1,
        534, 484, 394, -1,
        534, 394, 33, -1,
        472, 458, 340, -1,
        472, 340, 352, -1,
        503, 472, 352, -1,
        503, 352, 378, -1,
        534, 503, 378, -1,
        534, 378, 417, -1,
        36, 26, 219, -1,
        486, 470, 482, -1,
        173, 285, 286, -1,
        173, 286, 388, -1,
        388, 286, 288, -1,
        388, 288, 550, -1,
        388, 550, 390, -1,
        470, 486, 285, -1,
        470, 285, 173, -1,
        390, 550, 322, -1,
        390, 322, 526, -1,
        390, 526, 365, -1,
        390, 365, 219, -1,
        390, 219, 26, -1,
        11, 36, 219, -1,
        11, 219, 365, -1,
        542, 11, 365, -1,
        542, 365, 526, -1,
        465, 542, 526, -1,
        465, 526, 322, -1,
        123, 122, 252, -1,
        123, 252, 256, -1,
        310, 201, 277, -1,
        310, 277, 173, -1,
        310, 173, 388, -1,
        266, 252, 122, -1,
        266, 122, 139, -1,
        289, 266, 139, -1,
        289, 139, 163, -1,
        310, 289, 163, -1,
        310, 163, 201, -1,
        120, 335, 326, -1,
        120, 326, 40, -1,
        484, 117, 101, -1,
        484, 101, 394, -1,
        277, 482, 470, -1,
        277, 470, 173, -1,
        279, 273, 194, -1,
        279, 194, 198, -1,
        248, 213, 440, -1,
        248, 440, 481, -1,
        31, 572, 230, -1,
        31, 230, 274, -1,
        455, 427, 84, -1,
        455, 84, 115, -1,
        283, 407, 241, -1,
        241, 407, 438, -1,
        241, 438, 479, -1,
        479, 438, 421, -1,
        479, 421, 481, -1,
        481, 421, 424, -1,
        481, 424, 451, -1,
        451, 424, 510, -1,
        451, 510, 514, -1,
        510, 424, 64, -1,
        64, 424, 82, -1,
        64, 82, 66, -1,
        66, 82, 112, -1,
        66, 112, 451, -1,
        280, 241, 210, -1,
        210, 241, 274, -1,
        210, 274, 205, -1,
        205, 274, 271, -1,
        205, 271, 224, -1,
        224, 271, 209, -1,
        224, 209, 206, -1,
        406, 280, 210, -1,
        406, 210, 438, -1,
        406, 438, 407, -1,
        24, 31, 56, -1,
        24, 56, 566, -1,
        24, 566, 72, -1,
        24, 72, 73, -1,
        24, 73, 209, -1,
        24, 209, 271, -1,
        566, 224, 206, -1,
        566, 206, 72, -1,
        562, 566, 56, -1,
        562, 56, 51, -1,
        562, 51, 2, -1,
        562, 2, 1, -1,
        283, 241, 280, -1,
        274, 241, 248, -1,
        205, 224, 222, -1,
        66, 451, 514, -1,
        481, 451, 455, -1,
        421, 438, 436, -1,
        194, 273, 80, -1,
        194, 80, 421, -1,
        194, 421, 436, -1,
        194, 436, 205, -1,
        194, 205, 222, -1,
        194, 222, 562, -1,
        194, 562, 1, -1,
        424, 421, 384, -1,
        424, 384, 343, -1,
        424, 343, 318, -1,
        424, 318, 308, -1,
        424, 308, 309, -1,
        451, 347, 351, -1,
        451, 351, 362, -1,
        451, 362, 393, -1,
        451, 393, 427, -1,
        451, 427, 455, -1,
        424, 309, 22, -1,
        424, 22, 82, -1,
        309, 308, 28, -1,
        309, 28, 22, -1,
        80, 52, 384, -1,
        80, 384, 421, -1,
        16, 28, 308, -1,
        16, 308, 318, -1,
        5, 16, 318, -1,
        5, 318, 343, -1,
        52, 5, 343, -1,
        52, 343, 384, -1,
        351, 347, 13, -1,
        351, 13, 15, -1,
        112, 13, 347, -1,
        112, 347, 451, -1,
        59, 84, 427, -1,
        59, 427, 393, -1,
        29, 59, 393, -1,
        29, 393, 362, -1,
        15, 29, 362, -1,
        15, 362, 351, -1,
        408, 436, 438, -1,
        408, 438, 331, -1,
        408, 331, 329, -1,
        408, 329, 337, -1,
        408, 337, 368, -1,
        210, 205, 167, -1,
        210, 167, 125, -1,
        210, 125, 96, -1,
        210, 96, 89, -1,
        210, 89, 90, -1,
        210, 90, 331, -1,
        210, 331, 438, -1,
        90, 89, 329, -1,
        90, 329, 331, -1,
        436, 408, 167, -1,
        436, 167, 205, -1,
        337, 329, 89, -1,
        337, 89, 96, -1,
        368, 337, 96, -1,
        368, 96, 125, -1,
        408, 368, 125, -1,
        408, 125, 167, -1,
        190, 222, 224, -1,
        190, 224, 110, -1,
        190, 110, 108, -1,
        190, 108, 118, -1,
        190, 118, 153, -1,
        566, 562, 527, -1,
        566, 527, 488, -1,
        566, 488, 460, -1,
        566, 460, 449, -1,
        566, 449, 450, -1,
        566, 450, 110, -1,
        566, 110, 224, -1,
        450, 449, 108, -1,
        450, 108, 110, -1,
        222, 190, 527, -1,
        222, 527, 562, -1,
        118, 108, 449, -1,
        118, 449, 460, -1,
        153, 118, 460, -1,
        153, 460, 488, -1,
        190, 153, 488, -1,
        190, 488, 527, -1,
        374, 479, 481, -1,
        374, 481, 440, -1,
        374, 440, 415, -1,
        374, 415, 386, -1,
        374, 386, 376, -1,
        241, 131, 138, -1,
        241, 138, 147, -1,
        241, 147, 172, -1,
        241, 172, 213, -1,
        241, 213, 248, -1,
        138, 131, 374, -1,
        138, 374, 376, -1,
        479, 374, 131, -1,
        479, 131, 241, -1,
        415, 440, 213, -1,
        415, 213, 172, -1,
        386, 415, 172, -1,
        386, 172, 147, -1,
        376, 386, 147, -1,
        376, 147, 138, -1,
        160, 271, 274, -1,
        160, 274, 230, -1,
        160, 230, 196, -1,
        160, 196, 168, -1,
        160, 168, 161, -1,
        24, 494, 500, -1,
        24, 500, 508, -1,
        24, 508, 533, -1,
        24, 533, 572, -1,
        24, 572, 31, -1,
        500, 494, 160, -1,
        500, 160, 161, -1,
        271, 160, 494, -1,
        271, 494, 24, -1,
        196, 230, 572, -1,
        196, 572, 533, -1,
        168, 196, 533, -1,
        168, 533, 508, -1,
        161, 168, 508, -1,
        161, 508, 500, -1,
        297, 279, 198, -1,
        297, 198, 217, -1,
        312, 297, 217, -1,
        312, 217, 243, -1,
        200, 312, 243, -1,
        200, 243, 116, -1,
        223, 200, 116, -1,
        223, 116, 148, -1,
        247, 223, 148, -1,
        247, 148, 169, -1,
        325, 282, 300, -1,
        300, 282, 358, -1,
        300, 358, 278, -1,
        278, 358, 400, -1,
        278, 400, 270, -1,
        270, 400, 360, -1,
        270, 360, 268, -1,
        360, 400, 207, -1,
        360, 207, 233, -1,
        360, 233, 261, -1,
        360, 261, 235, -1,
        360, 235, 212, -1,
        360, 212, 321, -1,
        437, 220, 105, -1,
        105, 220, 221, -1,
        105, 221, 143, -1,
        143, 221, 321, -1,
        143, 321, 212, -1,
        105, 577, 485, -1,
        105, 485, 466, -1,
        105, 466, 437, -1,
        437, 561, 220, -1,
        220, 561, 535, -1,
        220, 535, 228, -1,
        228, 535, 520, -1,
        228, 520, 259, -1,
        259, 520, 509, -1,
        259, 509, 292, -1,
        485, 577, 491, -1,
        198, 194, 509, -1,
        198, 509, 520, -1,
        51, 522, 268, -1,
        51, 268, 360, -1,
        77, 454, 207, -1,
        77, 207, 400, -1,
        528, 552, 300, -1,
        528, 300, 278, -1,
        523, 528, 278, -1,
        523, 278, 270, -1,
        270, 268, 522, -1,
        270, 522, 523, -1,
        50, 77, 400, -1,
        50, 400, 358, -1,
        532, 50, 358, -1,
        532, 358, 282, -1,
        56, 532, 282, -1,
        56, 282, 325, -1,
        56, 325, 10, -1,
        552, 10, 325, -1,
        552, 325, 300, -1,
        321, 221, 478, -1,
        321, 478, 2, -1,
        221, 220, 476, -1,
        221, 476, 478, -1,
        483, 476, 220, -1,
        483, 220, 228, -1,
        516, 483, 228, -1,
        516, 228, 259, -1,
        548, 516, 259, -1,
        548, 259, 292, -1,
        1, 548, 292, -1,
        1, 292, 509, -1,
        1, 509, 194, -1,
        2, 51, 360, -1,
        2, 360, 321, -1,
        116, 243, 561, -1,
        116, 561, 437, -1,
        577, 105, 375, -1,
        577, 375, 262, -1,
        487, 517, 261, -1,
        487, 261, 233, -1,
        454, 487, 233, -1,
        454, 233, 207, -1,
        403, 375, 105, -1,
        403, 105, 143, -1,
        463, 403, 143, -1,
        463, 143, 212, -1,
        489, 463, 212, -1,
        489, 212, 235, -1,
        235, 261, 517, -1,
        235, 517, 505, -1,
        235, 505, 496, -1,
        235, 496, 489, -1,
        175, 169, 485, -1,
        175, 485, 491, -1,
        262, 175, 491, -1,
        262, 491, 577, -1,
        217, 198, 520, -1,
        217, 520, 535, -1,
        243, 217, 535, -1,
        243, 535, 561, -1,
        148, 116, 437, -1,
        148, 437, 466, -1,
        169, 148, 466, -1,
        169, 466, 485, -1
          ]
      normalIndex
      [
5, 5, 5, -1,
        5, 5, 5, -1,
        5, 5, 5, -1,
        5, 5, 5, -1,
        5, 5, 5, -1,
        5, 5, 5, -1,
        5, 5, 5, -1,
        5, 5, 5, -1,
        5, 5, 5, -1,
        5, 5, 5, -1,
        5, 5, 5, -1,
        5, 5, 5, -1,
        5, 5, 5, -1,
        5, 5, 5, -1,
        5, 5, 5, -1,
        5, 5, 5, -1,
        5, 5, 5, -1,
        5, 5, 5, -1,
        5, 5, 5, -1,
        5, 5, 5, -1,
        5, 5, 5, -1,
        5, 5, 5, -1,
        5, 5, 5, -1,
        5, 5, 5, -1,
        5, 5, 5, -1,
        5, 5, 5, -1,
        5, 5, 5, -1,
        5, 5, 5, -1,
        5, 5, 5, -1,
        5, 5, 5, -1,
        5, 5, 5, -1,
        4, 4, 4, -1,
        4, 4, 4, -1,
        4, 4, 4, -1,
        4, 4, 4, -1,
        4, 4, 4, -1,
        4, 4, 4, -1,
        4, 4, 4, -1,
        4, 4, 4, -1,
        4, 4, 4, -1,
        4, 4, 4, -1,
        4, 4, 4, -1,
        5, 5, 5, -1,
        5, 5, 5, -1,
        5, 5, 5, -1,
        5, 5, 5, -1,
        5, 5, 5, -1,
        5, 5, 5, -1,
        5, 5, 5, -1,
        5, 5, 5, -1,
        5, 5, 5, -1,
        5, 5, 5, -1,
        69, 60, 60, -1,
        69, 60, 69, -1,
        21, 21, 21, -1,
        21, 21, 21, -1,
        2, 2, 2, -1,
        2, 2, 2, -1,
        2, 2, 2, -1,
        2, 2, 2, -1,
        2, 2, 2, -1,
        2, 2, 2, -1,
        2, 2, 2, -1,
        1, 1, 1, -1,
        1, 1, 1, -1,
        48, 48, 48, -1,
        48, 48, 48, -1,
        48, 48, 48, -1,
        48, 48, 48, -1,
        48, 48, 48, -1,
        48, 48, 48, -1,
        48, 48, 48, -1,
        48, 48, 48, -1,
        48, 48, 48, -1,
        48, 48, 48, -1,
        48, 48, 48, -1,
        48, 48, 48, -1,
        48, 48, 48, -1,
        48, 48, 48, -1,
        48, 48, 48, -1,
        48, 48, 48, -1,
        48, 48, 48, -1,
        48, 48, 48, -1,
        48, 48, 48, -1,
        48, 48, 48, -1,
        48, 48, 48, -1,
        48, 48, 48, -1,
        48, 48, 48, -1,
        48, 48, 48, -1,
        48, 48, 48, -1,
        48, 48, 48, -1,
        48, 48, 48, -1,
        48, 48, 48, -1,
        48, 48, 48, -1,
        48, 48, 48, -1,
        48, 48, 48, -1,
        48, 48, 48, -1,
        48, 48, 48, -1,
        48, 48, 48, -1,
        48, 48, 48, -1,
        48, 48, 48, -1,
        48, 48, 48, -1,
        48, 48, 48, -1,
        48, 48, 48, -1,
        48, 48, 48, -1,
        48, 48, 48, -1,
        48, 48, 48, -1,
        48, 48, 48, -1,
        48, 48, 48, -1,
        48, 48, 48, -1,
        48, 48, 48, -1,
        48, 48, 48, -1,
        48, 48, 48, -1,
        48, 48, 48, -1,
        48, 48, 48, -1,
        48, 48, 48, -1,
        48, 48, 48, -1,
        48, 48, 48, -1,
        48, 48, 48, -1,
        48, 48, 48, -1,
        48, 48, 48, -1,
        48, 48, 48, -1,
        48, 48, 48, -1,
        48, 48, 48, -1,
        48, 48, 48, -1,
        48, 48, 48, -1,
        48, 48, 48, -1,
        48, 48, 48, -1,
        48, 48, 48, -1,
        48, 48, 48, -1,
        48, 48, 48, -1,
        48, 48, 48, -1,
        48, 48, 48, -1,
        48, 48, 48, -1,
        46, 26, 26, -1,
        46, 26, 46, -1,
        46, 26, 26, -1,
        46, 26, 46, -1,
        46, 46, 8, -1,
        46, 8, 8, -1,
        46, 26, 26, -1,
        46, 26, 46, -1,
        46, 46, 8, -1,
        46, 8, 8, -1,
        46, 46, 8, -1,
        46, 8, 8, -1,
        48, 48, 48, -1,
        48, 48, 48, -1,
        48, 48, 48, -1,
        48, 48, 48, -1,
        48, 48, 48, -1,
        48, 48, 48, -1,
        48, 48, 48, -1,
        48, 48, 48, -1,
        48, 48, 48, -1,
        48, 48, 48, -1,
        48, 48, 48, -1,
        48, 48, 48, -1,
        48, 48, 48, -1,
        48, 48, 48, -1,
        48, 48, 48, -1,
        48, 48, 48, -1,
        48, 48, 48, -1,
        48, 48, 48, -1,
        48, 48, 48, -1,
        48, 48, 48, -1,
        48, 48, 48, -1,
        48, 48, 48, -1,
        48, 48, 48, -1,
        48, 48, 48, -1,
        48, 48, 48, -1,
        48, 48, 48, -1,
        48, 48, 48, -1,
        48, 48, 48, -1,
        48, 48, 48, -1,
        48, 48, 48, -1,
        48, 48, 48, -1,
        48, 48, 48, -1,
        48, 48, 48, -1,
        48, 48, 48, -1,
        48, 48, 48, -1,
        48, 48, 48, -1,
        48, 48, 48, -1,
        48, 48, 48, -1,
        48, 48, 48, -1,
        48, 48, 48, -1,
        48, 48, 48, -1,
        48, 48, 48, -1,
        48, 48, 48, -1,
        48, 48, 48, -1,
        48, 48, 48, -1,
        48, 48, 48, -1,
        48, 48, 48, -1,
        48, 48, 48, -1,
        48, 48, 48, -1,
        48, 48, 48, -1,
        48, 48, 48, -1,
        48, 48, 48, -1,
        48, 48, 48, -1,
        48, 48, 48, -1,
        48, 48, 48, -1,
        48, 48, 48, -1,
        48, 48, 48, -1,
        48, 48, 48, -1,
        48, 48, 48, -1,
        48, 48, 48, -1,
        48, 48, 48, -1,
        48, 48, 48, -1,
        48, 48, 48, -1,
        48, 48, 48, -1,
        48, 48, 48, -1,
        48, 48, 48, -1,
        48, 48, 48, -1,
        48, 48, 48, -1,
        48, 48, 48, -1,
        48, 48, 48, -1,
        48, 48, 48, -1,
        42, 42, 27, -1,
        42, 27, 27, -1,
        18, 27, 27, -1,
        18, 27, 18, -1,
        72, 72, 72, -1,
        72, 72, 72, -1,
        72, 72, 72, -1,
        72, 72, 72, -1,
        72, 72, 72, -1,
        72, 72, 72, -1,
        72, 72, 72, -1,
        72, 72, 72, -1,
        72, 72, 72, -1,
        72, 72, 72, -1,
        72, 72, 72, -1,
        72, 72, 72, -1,
        72, 72, 72, -1,
        72, 72, 72, -1,
        72, 72, 72, -1,
        72, 72, 72, -1,
        72, 72, 72, -1,
        72, 72, 72, -1,
        72, 72, 72, -1,
        72, 72, 72, -1,
        72, 72, 72, -1,
        72, 72, 72, -1,
        72, 72, 72, -1,
        72, 72, 72, -1,
        72, 72, 72, -1,
        72, 72, 72, -1,
        72, 72, 72, -1,
        44, 45, 45, -1,
        44, 45, 44, -1,
        39, 39, 58, -1,
        39, 58, 58, -1,
        39, 39, 20, -1,
        39, 20, 20, -1,
        53, 53, 20, -1,
        53, 20, 20, -1,
        12, 12, 54, -1,
        12, 54, 54, -1,
        12, 12, 74, -1,
        12, 74, 74, -1,
        74, 74, 64, -1,
        74, 64, 64, -1,
        39, 39, 20, -1,
        39, 20, 20, -1,
        53, 53, 20, -1,
        53, 20, 20, -1,
        12, 54, 54, -1,
        12, 54, 12, -1,
        13, 13, 30, -1,
        13, 30, 30, -1,
        64, 57, 57, -1,
        64, 57, 64, -1,
        44, 45, 45, -1,
        44, 45, 44, -1,
        39, 39, 58, -1,
        39, 58, 58, -1,
        39, 39, 20, -1,
        39, 20, 20, -1,
        53, 53, 20, -1,
        53, 20, 20, -1,
        12, 12, 54, -1,
        12, 54, 54, -1,
        12, 12, 74, -1,
        12, 74, 74, -1,
        74, 74, 64, -1,
        74, 64, 64, -1,
        13, 13, 30, -1,
        13, 30, 30, -1,
        64, 57, 57, -1,
        64, 57, 64, -1,
        44, 45, 45, -1,
        44, 45, 44, -1,
        39, 39, 58, -1,
        39, 58, 58, -1,
        12, 12, 74, -1,
        12, 74, 74, -1,
        74, 74, 64, -1,
        74, 64, 64, -1,
        13, 13, 30, -1,
        13, 30, 30, -1,
        64, 57, 57, -1,
        64, 57, 64, -1,
        13, 9, 9, -1,
        13, 9, 13, -1,
        38, 57, 57, -1,
        38, 57, 38, -1,
        13, 9, 9, -1,
        13, 9, 13, -1,
        38, 57, 57, -1,
        38, 57, 38, -1,
        41, 9, 9, -1,
        41, 9, 41, -1,
        19, 38, 38, -1,
        19, 38, 19, -1,
        36, 41, 41, -1,
        36, 41, 36, -1,
        52, 19, 19, -1,
        52, 19, 52, -1,
        76, 36, 36, -1,
        76, 36, 76, -1,
        87, 52, 52, -1,
        87, 52, 87, -1,
        3, 76, 76, -1,
        3, 76, 3, -1,
        26, 26, 87, -1,
        26, 87, 87, -1,
        62, 62, 3, -1,
        62, 3, 3, -1,
        62, 14, 14, -1,
        62, 14, 62, -1,
        77, 77, 14, -1,
        77, 14, 14, -1,
        75, 75, 8, -1,
        75, 8, 8, -1,
        22, 22, 77, -1,
        22, 77, 77, -1,
        11, 11, 75, -1,
        11, 75, 75, -1,
        10, 10, 22, -1,
        10, 22, 22, -1,
        73, 73, 11, -1,
        73, 11, 11, -1,
        70, 70, 10, -1,
        70, 10, 10, -1,
        63, 63, 73, -1,
        63, 73, 73, -1,
        45, 45, 70, -1,
        45, 70, 70, -1,
        58, 58, 63, -1,
        58, 63, 63, -1,
        13, 9, 9, -1,
        13, 9, 13, -1,
        38, 57, 57, -1,
        38, 57, 38, -1,
        41, 9, 9, -1,
        41, 9, 41, -1,
        19, 38, 38, -1,
        19, 38, 19, -1,
        36, 41, 41, -1,
        36, 41, 36, -1,
        52, 19, 19, -1,
        52, 19, 52, -1,
        76, 36, 36, -1,
        76, 36, 76, -1,
        87, 52, 52, -1,
        87, 52, 87, -1,
        10, 70, 70, -1,
        10, 70, 10, -1,
        63, 73, 73, -1,
        63, 73, 63, -1,
        45, 45, 70, -1,
        45, 70, 70, -1,
        58, 58, 63, -1,
        58, 63, 63, -1,
        9, 41, 41, -1,
        9, 41, 9, -1,
        19, 38, 38, -1,
        19, 38, 19, -1,
        3, 76, 76, -1,
        3, 76, 3, -1,
        26, 26, 87, -1,
        26, 87, 87, -1,
        3, 62, 62, -1,
        3, 62, 3, -1,
        62, 14, 14, -1,
        62, 14, 62, -1,
        77, 77, 14, -1,
        77, 14, 14, -1,
        75, 75, 8, -1,
        75, 8, 8, -1,
        22, 22, 77, -1,
        22, 77, 77, -1,
        11, 11, 75, -1,
        11, 75, 75, -1,
        10, 10, 22, -1,
        10, 22, 22, -1,
        73, 73, 11, -1,
        73, 11, 11, -1,
        36, 41, 41, -1,
        36, 41, 36, -1,
        52, 19, 19, -1,
        52, 19, 52, -1,
        76, 36, 36, -1,
        76, 36, 76, -1,
        87, 52, 52, -1,
        87, 52, 87, -1,
        3, 76, 76, -1,
        3, 76, 3, -1,
        26, 26, 87, -1,
        26, 87, 87, -1,
        62, 62, 3, -1,
        62, 3, 3, -1,
        62, 14, 14, -1,
        62, 14, 62, -1,
        77, 77, 14, -1,
        77, 14, 14, -1,
        75, 75, 8, -1,
        75, 8, 8, -1,
        22, 22, 77, -1,
        22, 77, 77, -1,
        11, 11, 75, -1,
        11, 75, 75, -1,
        10, 10, 22, -1,
        10, 22, 22, -1,
        73, 73, 11, -1,
        73, 11, 11, -1,
        70, 70, 10, -1,
        70, 10, 10, -1,
        63, 63, 73, -1,
        63, 73, 73, -1,
        45, 45, 70, -1,
        45, 70, 70, -1,
        58, 58, 63, -1,
        58, 63, 63, -1,
        28, 28, 29, -1,
        28, 29, 29, -1,
        49, 0, 0, -1,
        49, 0, 49, -1,
        81, 81, 29, -1,
        81, 29, 29, -1,
        6, 49, 49, -1,
        6, 49, 6, -1,
        81, 81, 85, -1,
        81, 85, 85, -1,
        89, 89, 6, -1,
        89, 6, 6, -1,
        28, 28, 29, -1,
        28, 29, 29, -1,
        49, 0, 0, -1,
        49, 0, 49, -1,
        29, 29, 81, -1,
        29, 81, 81, -1,
        6, 49, 49, -1,
        6, 49, 6, -1,
        81, 81, 85, -1,
        81, 85, 85, -1,
        89, 89, 6, -1,
        89, 6, 6, -1,
        23, 23, 40, -1,
        23, 40, 40, -1,
        90, 90, 7, -1,
        90, 7, 7, -1,
        23, 23, 83, -1,
        23, 83, 83, -1,
        50, 7, 7, -1,
        50, 7, 50, -1,
        28, 28, 83, -1,
        28, 83, 83, -1,
        0, 50, 50, -1,
        0, 50, 0, -1,
        28, 28, 29, -1,
        28, 29, 29, -1,
        49, 0, 0, -1,
        49, 0, 49, -1,
        29, 29, 81, -1,
        29, 81, 81, -1,
        6, 49, 49, -1,
        6, 49, 6, -1,
        81, 81, 85, -1,
        81, 85, 85, -1,
        89, 89, 6, -1,
        89, 6, 6, -1,
        23, 23, 40, -1,
        23, 40, 40, -1,
        90, 90, 7, -1,
        90, 7, 7, -1,
        23, 23, 83, -1,
        23, 83, 83, -1,
        50, 7, 7, -1,
        50, 7, 50, -1,
        28, 28, 83, -1,
        28, 83, 83, -1,
        0, 50, 50, -1,
        0, 50, 0, -1,
        5, 5, 5, -1,
        5, 5, 5, -1,
        5, 5, 5, -1,
        5, 5, 5, -1,
        35, 35, 35, -1,
        35, 35, 35, -1,
        35, 35, 35, -1,
        35, 35, 35, -1,
        35, 35, 35, -1,
        88, 88, 80, -1,
        88, 80, 80, -1,
        88, 80, 80, -1,
        82, 82, 88, -1,
        82, 88, 88, -1,
        30, 30, 82, -1,
        30, 82, 82, -1,
        79, 44, 44, -1,
        79, 44, 79, -1,
        78, 79, 79, -1,
        78, 79, 78, -1,
        43, 78, 78, -1,
        43, 78, 43, -1,
        43, 43, 43, -1,
        84, 53, 53, -1,
        84, 53, 84, -1,
        86, 86, 86, -1,
        86, 86, 86, -1,
        86, 86, 86, -1,
        86, 86, 86, -1,
        86, 86, 86, -1,
        4, 4, 4, -1,
        4, 4, 4, -1,
        4, 4, 4, -1,
        4, 4, 4, -1,
        5, 5, 5, -1,
        5, 5, 5, -1,
        5, 5, 5, -1,
        5, 5, 5, -1,
        35, 35, 35, -1,
        35, 35, 35, -1,
        35, 35, 35, -1,
        35, 35, 35, -1,
        35, 35, 35, -1,
        88, 88, 80, -1,
        88, 80, 80, -1,
        88, 80, 80, -1,
        82, 82, 88, -1,
        82, 88, 88, -1,
        30, 30, 82, -1,
        30, 82, 82, -1,
        79, 44, 44, -1,
        79, 44, 79, -1,
        79, 78, 78, -1,
        79, 78, 79, -1,
        43, 78, 78, -1,
        43, 78, 43, -1,
        43, 43, 43, -1,
        84, 53, 53, -1,
        84, 53, 84, -1,
        86, 86, 86, -1,
        86, 86, 86, -1,
        86, 86, 86, -1,
        86, 86, 86, -1,
        86, 86, 86, -1,
        5, 5, 5, -1,
        5, 5, 5, -1,
        5, 5, 5, -1,
        5, 5, 5, -1,
        4, 4, 4, -1,
        4, 4, 4, -1,
        4, 4, 4, -1,
        4, 4, 4, -1,
        35, 35, 35, -1,
        35, 35, 35, -1,
        35, 35, 35, -1,
        35, 35, 35, -1,
        35, 35, 35, -1,
        88, 88, 80, -1,
        88, 80, 80, -1,
        88, 80, 80, -1,
        82, 82, 88, -1,
        82, 88, 88, -1,
        82, 30, 30, -1,
        82, 30, 82, -1,
        79, 44, 44, -1,
        79, 44, 79, -1,
        78, 79, 79, -1,
        78, 79, 78, -1,
        43, 78, 78, -1,
        43, 78, 43, -1,
        43, 43, 43, -1,
        84, 53, 53, -1,
        84, 53, 84, -1,
        86, 86, 86, -1,
        86, 86, 86, -1,
        86, 86, 86, -1,
        86, 86, 86, -1,
        86, 86, 86, -1,
        4, 4, 4, -1,
        4, 4, 4, -1,
        4, 4, 4, -1,
        4, 4, 4, -1,
        23, 23, 40, -1,
        23, 40, 40, -1,
        90, 90, 7, -1,
        90, 7, 7, -1,
        23, 23, 83, -1,
        23, 83, 83, -1,
        50, 7, 7, -1,
        50, 7, 50, -1,
        28, 28, 83, -1,
        28, 83, 83, -1,
        0, 50, 50, -1,
        0, 50, 0, -1,
        37, 25, 25, -1,
        37, 25, 37, -1,
        61, 68, 68, -1,
        61, 68, 61, -1,
        61, 61, 68, -1,
        61, 68, 68, -1,
        68, 68, 61, -1,
        68, 61, 61, -1,
        61, 61, 68, -1,
        61, 68, 68, -1,
        51, 51, 61, -1,
        51, 61, 61, -1,
        51, 51, 61, -1,
        51, 61, 61, -1,
        51, 51, 61, -1,
        51, 61, 61, -1,
        51, 51, 61, -1,
        51, 61, 61, -1,
        56, 37, 37, -1,
        56, 37, 56, -1,
        67, 67, 56, -1,
        67, 56, 56, -1,
        72, 72, 72, -1,
        72, 72, 72, -1,
        72, 72, 72, -1,
        72, 72, 72, -1,
        72, 72, 72, -1,
        72, 72, 72, -1,
        72, 72, 72, -1,
        72, 72, 72, -1,
        72, 72, 72, -1,
        72, 72, 72, -1,
        72, 72, 72, -1,
        72, 72, 72, -1,
        72, 72, 72, -1,
        72, 72, 72, -1,
        72, 72, 72, -1,
        72, 72, 72, -1,
        72, 72, 72, -1,
        72, 72, 72, -1,
        72, 72, 72, -1,
        72, 72, 72, -1,
        72, 72, 72, -1,
        72, 72, 72, -1,
        72, 72, 72, -1,
        72, 72, 72, -1,
        72, 72, 72, -1,
        72, 72, 72, -1,
        72, 72, 72, -1,
        72, 72, 72, -1,
        72, 72, 72, -1,
        72, 72, 72, -1,
        72, 72, 72, -1,
        72, 72, 72, -1,
        72, 72, 72, -1,
        72, 72, 72, -1,
        72, 72, 72, -1,
        72, 72, 72, -1,
        72, 72, 72, -1,
        72, 72, 72, -1,
        72, 72, 72, -1,
        72, 72, 72, -1,
        72, 72, 72, -1,
        72, 72, 72, -1,
        72, 72, 72, -1,
        72, 72, 72, -1,
        72, 72, 72, -1,
        5, 5, 5, -1,
        5, 5, 5, -1,
        5, 5, 5, -1,
        5, 5, 5, -1,
        5, 5, 5, -1,
        5, 5, 5, -1,
        5, 5, 5, -1,
        5, 5, 5, -1,
        5, 5, 5, -1,
        5, 5, 5, -1,
        5, 5, 5, -1,
        5, 5, 5, -1,
        1, 1, 1, -1,
        1, 1, 1, -1,
        2, 2, 2, -1,
        2, 2, 2, -1,
        2, 2, 2, -1,
        2, 2, 2, -1,
        5, 5, 5, -1,
        5, 5, 5, -1,
        5, 5, 5, -1,
        5, 5, 5, -1,
        5, 5, 5, -1,
        5, 5, 5, -1,
        5, 5, 5, -1,
        5, 5, 5, -1,
        5, 5, 5, -1,
        5, 5, 5, -1,
        5, 5, 5, -1,
        5, 5, 5, -1,
        1, 1, 1, -1,
        1, 1, 1, -1,
        2, 2, 2, -1,
        2, 2, 2, -1,
        2, 2, 2, -1,
        2, 2, 2, -1,
        5, 5, 5, -1,
        5, 5, 5, -1,
        5, 5, 5, -1,
        5, 5, 5, -1,
        5, 5, 5, -1,
        5, 5, 5, -1,
        5, 5, 5, -1,
        5, 5, 5, -1,
        5, 5, 5, -1,
        5, 5, 5, -1,
        5, 5, 5, -1,
        5, 5, 5, -1,
        1, 1, 1, -1,
        1, 1, 1, -1,
        2, 2, 2, -1,
        2, 2, 2, -1,
        2, 2, 2, -1,
        2, 2, 2, -1,
        4, 4, 4, -1,
        4, 4, 4, -1,
        4, 4, 4, -1,
        4, 4, 4, -1,
        4, 4, 4, -1,
        4, 4, 4, -1,
        4, 4, 4, -1,
        4, 4, 4, -1,
        4, 4, 4, -1,
        4, 4, 4, -1,
        4, 4, 4, -1,
        72, 72, 72, -1,
        72, 72, 72, -1,
        72, 72, 72, -1,
        72, 72, 72, -1,
        72, 72, 72, -1,
        72, 72, 72, -1,
        72, 72, 72, -1,
        65, 65, 65, -1,
        65, 65, 65, -1,
        24, 24, 24, -1,
        24, 24, 24, -1,
        24, 24, 24, -1,
        24, 24, 24, -1,
        24, 24, 24, -1,
        59, 68, 68, -1,
        59, 68, 59, -1,
        34, 59, 59, -1,
        34, 59, 34, -1,
        18, 34, 34, -1,
        18, 34, 18, -1,
        71, 71, 71, -1,
        71, 71, 71, -1,
        1, 1, 1, -1,
        1, 1, 1, -1,
        1, 1, 1, -1,
        60, 69, 69, -1,
        60, 69, 60, -1,
        33, 60, 60, -1,
        33, 60, 33, -1,
        17, 33, 33, -1,
        17, 33, 17, -1,
        4, 4, 4, -1,
        4, 4, 4, -1,
        4, 4, 4, -1,
        4, 4, 4, -1,
        4, 4, 4, -1,
        4, 4, 4, -1,
        4, 4, 4, -1,
        4, 4, 4, -1,
        4, 4, 4, -1,
        4, 4, 4, -1,
        4, 4, 4, -1,
        72, 72, 72, -1,
        72, 72, 72, -1,
        72, 72, 72, -1,
        72, 72, 72, -1,
        72, 72, 72, -1,
        72, 72, 72, -1,
        72, 72, 72, -1,
        65, 65, 65, -1,
        65, 65, 65, -1,
        24, 24, 24, -1,
        24, 24, 24, -1,
        24, 24, 24, -1,
        24, 24, 24, -1,
        24, 24, 24, -1,
        59, 68, 68, -1,
        59, 68, 59, -1,
        34, 59, 59, -1,
        34, 59, 34, -1,
        18, 34, 34, -1,
        18, 34, 18, -1,
        71, 71, 71, -1,
        71, 71, 71, -1,
        1, 1, 1, -1,
        1, 1, 1, -1,
        1, 1, 1, -1,
        60, 69, 69, -1,
        60, 69, 60, -1,
        33, 60, 60, -1,
        33, 60, 33, -1,
        17, 33, 33, -1,
        17, 33, 17, -1,
        72, 72, 72, -1,
        72, 72, 72, -1,
        72, 72, 72, -1,
        72, 72, 72, -1,
        72, 72, 72, -1,
        72, 72, 72, -1,
        72, 72, 72, -1,
        65, 65, 65, -1,
        65, 65, 65, -1,
        24, 24, 24, -1,
        24, 24, 24, -1,
        24, 24, 24, -1,
        24, 24, 24, -1,
        24, 24, 24, -1,
        59, 68, 68, -1,
        59, 68, 59, -1,
        34, 59, 59, -1,
        34, 59, 34, -1,
        18, 34, 34, -1,
        18, 34, 18, -1,
        71, 71, 71, -1,
        71, 71, 71, -1,
        1, 1, 1, -1,
        1, 1, 1, -1,
        1, 1, 1, -1,
        60, 69, 69, -1,
        60, 69, 60, -1,
        33, 60, 60, -1,
        33, 60, 33, -1,
        17, 33, 33, -1,
        17, 33, 17, -1,
        47, 47, 47, -1,
        47, 47, 47, -1,
        47, 47, 47, -1,
        47, 47, 47, -1,
        47, 47, 47, -1,
        47, 47, 47, -1,
        56, 67, 67, -1,
        56, 67, 56, -1,
        2, 2, 2, -1,
        2, 2, 2, -1,
        2, 2, 2, -1,
        2, 2, 2, -1,
        2, 2, 2, -1,
        2, 2, 2, -1,
        71, 71, 71, -1,
        71, 71, 71, -1,
        71, 71, 71, -1,
        71, 71, 71, -1,
        71, 71, 71, -1,
        71, 71, 71, -1,
        71, 71, 71, -1,
        71, 71, 71, -1,
        71, 71, 71, -1,
        71, 71, 71, -1,
        71, 71, 71, -1,
        71, 71, 71, -1,
        71, 71, 71, -1,
        71, 71, 71, -1,
        71, 71, 71, -1,
        71, 71, 71, -1,
        71, 71, 71, -1,
        71, 71, 71, -1,
        71, 71, 71, -1,
        71, 71, 71, -1,
        71, 71, 71, -1,
        71, 71, 71, -1,
        71, 71, 71, -1,
        71, 71, 71, -1,
        71, 71, 71, -1,
        71, 71, 71, -1,
        71, 71, 71, -1,
        71, 71, 71, -1,
        71, 71, 71, -1,
        71, 71, 71, -1,
        71, 71, 71, -1,
        71, 71, 71, -1,
        71, 71, 71, -1,
        71, 71, 71, -1,
        71, 71, 71, -1,
        71, 71, 71, -1,
        71, 71, 71, -1,
        71, 71, 71, -1,
        71, 71, 71, -1,
        71, 71, 71, -1,
        71, 71, 71, -1,
        71, 71, 71, -1,
        1, 1, 1, -1,
        1, 1, 1, -1,
        1, 1, 1, -1,
        1, 1, 1, -1,
        1, 1, 1, -1,
        1, 1, 1, -1,
        1, 1, 1, -1,
        4, 4, 4, -1,
        4, 4, 4, -1,
        4, 4, 4, -1,
        4, 4, 4, -1,
        4, 4, 4, -1,
        4, 4, 4, -1,
        4, 4, 4, -1,
        4, 4, 4, -1,
        4, 4, 4, -1,
        4, 4, 4, -1,
        2, 2, 2, -1,
        2, 2, 2, -1,
        71, 71, 71, -1,
        71, 71, 71, -1,
        1, 1, 1, -1,
        1, 1, 1, -1,
        60, 69, 69, -1,
        60, 69, 60, -1,
        33, 60, 60, -1,
        33, 60, 33, -1,
        17, 33, 33, -1,
        17, 33, 17, -1,
        71, 71, 71, -1,
        71, 71, 71, -1,
        1, 1, 1, -1,
        1, 1, 1, -1,
        32, 16, 16, -1,
        32, 16, 32, -1,
        55, 32, 32, -1,
        55, 32, 55, -1,
        66, 55, 55, -1,
        66, 55, 66, -1,
        5, 5, 5, -1,
        5, 5, 5, -1,
        5, 5, 5, -1,
        5, 5, 5, -1,
        5, 5, 5, -1,
        4, 4, 4, -1,
        4, 4, 4, -1,
        4, 4, 4, -1,
        4, 4, 4, -1,
        4, 4, 4, -1,
        2, 2, 2, -1,
        2, 2, 2, -1,
        71, 71, 71, -1,
        71, 71, 71, -1,
        1, 1, 1, -1,
        1, 1, 1, -1,
        60, 69, 69, -1,
        60, 69, 60, -1,
        33, 60, 60, -1,
        33, 60, 33, -1,
        17, 33, 33, -1,
        17, 33, 17, -1,
        5, 5, 5, -1,
        5, 5, 5, -1,
        5, 5, 5, -1,
        5, 5, 5, -1,
        5, 5, 5, -1,
        4, 4, 4, -1,
        4, 4, 4, -1,
        4, 4, 4, -1,
        4, 4, 4, -1,
        4, 4, 4, -1,
        2, 2, 2, -1,
        2, 2, 2, -1,
        71, 71, 71, -1,
        71, 71, 71, -1,
        1, 1, 1, -1,
        1, 1, 1, -1,
        60, 69, 69, -1,
        60, 69, 60, -1,
        33, 60, 60, -1,
        33, 60, 33, -1,
        17, 33, 33, -1,
        17, 33, 17, -1,
        5, 5, 5, -1,
        5, 5, 5, -1,
        5, 5, 5, -1,
        5, 5, 5, -1,
        5, 5, 5, -1,
        4, 4, 4, -1,
        4, 4, 4, -1,
        4, 4, 4, -1,
        4, 4, 4, -1,
        4, 4, 4, -1,
        71, 71, 71, -1,
        71, 71, 71, -1,
        1, 1, 1, -1,
        1, 1, 1, -1,
        32, 16, 16, -1,
        32, 16, 32, -1,
        55, 32, 32, -1,
        55, 32, 55, -1,
        66, 55, 55, -1,
        66, 55, 66, -1,
        5, 5, 5, -1,
        5, 5, 5, -1,
        5, 5, 5, -1,
        5, 5, 5, -1,
        5, 5, 5, -1,
        4, 4, 4, -1,
        4, 4, 4, -1,
        4, 4, 4, -1,
        4, 4, 4, -1,
        4, 4, 4, -1,
        71, 71, 71, -1,
        71, 71, 71, -1,
        1, 1, 1, -1,
        1, 1, 1, -1,
        32, 16, 16, -1,
        32, 16, 32, -1,
        55, 32, 32, -1,
        55, 32, 55, -1,
        66, 55, 55, -1,
        66, 55, 66, -1,
        31, 56, 56, -1,
        31, 56, 31, -1,
        15, 31, 31, -1,
        15, 31, 15, -1,
        1, 1, 1, -1,
        1, 1, 1, -1,
        33, 17, 17, -1,
        33, 17, 33, -1,
        60, 33, 33, -1,
        60, 33, 60, -1,
        4, 4, 4, -1,
        4, 4, 4, -1,
        4, 4, 4, -1,
        4, 4, 4, -1,
        4, 4, 4, -1,
        4, 4, 4, -1,
        4, 4, 4, -1,
        4, 4, 4, -1,
        4, 4, 4, -1,
        4, 4, 4, -1,
        4, 4, 4, -1,
        4, 4, 4, -1,
        4, 4, 4, -1,
        4, 4, 4, -1,
        4, 4, 4, -1,
        4, 4, 4, -1,
        4, 4, 4, -1,
        4, 4, 4, -1,
        4, 4, 4, -1,
        4, 4, 4, -1,
        4, 4, 4, -1,
        4, 4, 4, -1,
        4, 4, 4, -1,
        4, 4, 4, -1,
        4, 4, 4, -1,
        4, 4, 4, -1,
        4, 4, 4, -1,
        4, 4, 4, -1,
        4, 4, 4, -1,
        56, 67, 67, -1,
        56, 67, 56, -1,
        1, 1, 1, -1,
        1, 1, 1, -1,
        48, 48, 48, -1,
        48, 48, 48, -1,
        55, 32, 32, -1,
        55, 32, 55, -1,
        66, 55, 55, -1,
        66, 55, 66, -1,
        71, 71, 71, -1,
        71, 71, 71, -1,
        27, 42, 42, -1,
        27, 42, 27, -1,
        18, 27, 27, -1,
        18, 27, 18, -1,
        2, 2, 2, -1,
        2, 2, 2, -1,
        2, 2, 2, -1,
        32, 16, 16, -1,
        32, 16, 32, -1,
        2, 2, 2, -1,
        2, 2, 2, -1,
        71, 71, 71, -1,
        71, 71, 71, -1,
        60, 69, 69, -1,
        60, 69, 60, -1,
        33, 60, 60, -1,
        33, 60, 33, -1,
        17, 33, 33, -1,
        17, 33, 17, -1,
        1, 1, 1, -1,
        1, 1, 1, -1,
        1, 1, 1, -1,
        71, 71, 71, -1,
        71, 71, 71, -1,
        1, 1, 1, -1,
        1, 1, 1, -1,
        21, 21, 21, -1,
        21, 21, 21, -1,
        61, 68, 68, -1,
        61, 68, 61, -1,
        51, 61, 61, -1,
        51, 61, 51, -1,
        37, 25, 25, -1,
        37, 25, 37, -1,
        56, 37, 37, -1,
        56, 37, 56, -1,
        67, 56, 56, -1,
        67, 56, 67, -1,
        72, 72, 72, -1,
        72, 72, 72, -1,
        72, 72, 72, -1,
        72, 72, 72, -1,
        69, 60, 60, -1,
        69, 60, 69, -1,
        1, 1, 1, -1,
        1, 1, 1, -1,
        31, 56, 56, -1,
        31, 56, 31, -1,
        15, 31, 31, -1,
        15, 31, 15, -1,
        33, 17, 17, -1,
        33, 17, 33, -1,
        60, 33, 33, -1,
        60, 33, 60, -1
              ]
      }
    }
  }
,
Shape 
{
  Node_info
  {
    fields [SFString node_type, SFString node_name]
    node_type "Poly_Geom_Data"
    node_name ""
  }

    Material
    {
      ambientColor [0.78 0.78 0.78]
      diffuseColor [0.78 0.78 0.78]
      specularColor [0.8 0.8 0.8]
      shininess [0.5]
      transparency [0.00]
    }

  Coordinate3
  {
    point
    [
      0.164821 9.21386 0.301111, -7.3 0.3 10.5, 
      -6.5 0.3 10.5, -2.7 13.0464 6.24342, 
      2.17097 8.62193 4.86177, -7.27321 0.1 0, 
      -0.55 11.5 2.9, -0.207107 11.5 0, 
      -1.35 10.8 5.25, -0.207107 11.5 2.9, 
      4.7 0.2 10.5, -2.7 13.0464 7.8, 
      0.146447 11.3536 0.673223, 3.9 0 0, 
      2.35 9.15 9.95208, 4.5 0 0, 
      -7.2 0.0267949 0, 2.17097 8.62193 9.13823, 
      -1.35 9.8 8.75, -1.125 11.5 0.754071, 
      -5.27321 12.2 3.5, 2.54103 8.95897 4.4, 
      -6.5 0 0, 0.255017 10.5379 4.45, 
      3.9 0.3 9.5, 2.35 9.15 0.547918, 
      -4.59289 13.1 7.8, 2.10104 9.39896 6.72224, 
      -7.1 0 0, 4.6 0.0267949 0, 
      0.396447 10.3964 4.18934, 4.7 0.3 9.5, 
      0.489063 11.0109 9.65547, -5.3 12.5 4.3, 
      -5.15858 12.5 4.3, 0.898959 10.601 3.77776, 
      -2.9 13.1 7.8, 4.7 6.59289 0, 
      0.65 10.85 9.95208, -1.24282 10.8 9.15, 
      -5.3 12.5 0.941421, 0.871928 9.92097 3.80111, 
      -4.8 11.5 7.8, 2.20711 8.58579 1.75, 
      -1.7 11.5 8.75, -0.42132 9.8 0.98448, 
      0.65 10.85 0.547918, 0.43934 8.93934 10.25, 
      0.255017 10.5379 2.55, -0.95 9.8 2.44282, 
      4.63301 6.84289 10.5, 3.9 0.3 10.5, 
      -7.3 0.2 0, 2.66112 8.83888 2.18999, 
      -2.5 11.5 7.8, 1.18934 8.18934 0.68934, 
      4.7 0.3 10.5, -0.31066 9.68934 6.31066, 
      0.146447 11.3536 6.32678, 4.6732 0.1 0, 
      -5.2 -3.6 5.625, -4.8 -3.6 5.625, 
      -5.3 12.3 3.5, 1.67678 9.11612 0.450962, 
      -0.2 0.3 1.375, 1.42097 9.37193 0.301111, 
      0.2 0.3 1.375, -0.95 10.8 1.05718, 
      1.3579 8.02078 6, 0.164821 9.21386 10.1989, 
      -0.95 9.8 4.55718, -0.0909903 9.46967 10.049, 
      -0.2 0.3 9.125, 0.2 0.3 9.125, 
      -2.9 13.1 2.49289, 1.18888 10.3111 7.10793, 
      1.81112 9.68888 3.60793, 4.55355 6.94645 10.5, 
      -0.42132 9.8 6.01552, 1.89645 8.89645 4.18934, 
      -7.3 0.3 0, 0.396447 10.3964 9.81066, 
      -6.5 0.3 0, 0.898959 10.601 3.22224, 
      4.7 0.2 0, 1.14645 9.64645 0.25, 
      0.713859 8.66482 6.69889, -1.54593 11.5 9.325, 
      1.5 10 0.05, -7.1 0 6, 
      -6.5 0 6, 2.06501 8.72789 9.5, 
      2.54103 8.95897 2.6, 1.18934 8.18934 6.31066, 
      0.0428932 11.433 9.86651, -5.1 12.1 0.8, 
      -7.2 0.0267949 6, -4.8 12.1 0.8, 
      1.3579 8.02078 8, -2.5 12.7 4.3, 
      -0.55 10.8 4.45, -4.7 13.1 5.60711, 
      2.70208 8.79792 1.75, -5.2 12.1268 0.8, 
      -1.24282 9.8 2.15, -6.58261 11.171 12, 
      0.342421 10.8 4.45, 1.46386 7.91482 8.36177, 
      -7.1 0 7, 4.63301 6.84289 0, 
      -6.5 0 7, 1.81112 9.68888 10.3921, 
      3.9 0.3 0, -0.55 9.8 7.95, 
      -0.42132 9.8 7.95, 4.7 0.3 0, 
      -7.15 5.55 10.5, -4.7 13.1 7, 
      -7.2 0.0267949 7, 1.42097 9.37193 10.1989, 
      -5.3 12.5 3.5, -3.30711 13.1 7, 
      -5.1 12.1 10.5, -4.8 12.1 10.5, 
      -0.45209 9.83077 7.95, -7.27321 0.1 6, 
      -1.24282 10.8 8.35, -0.55 10.8 2.55, 
      -0.31066 9.68934 7.68934, -1.125 11.5 6.24593, 
      0.342421 10.8 2.55, 3.9 0 6, 
      -2.74142 12.5 3.5, -4.8 11.5 7, 
      -2.6 12.5 3.5, 1.89645 8.89645 9.81066, 
      0.96967 8.40901 3.04904, -2.5 12.5 3.5, 
      4.5 0 6, -5.2 12.1268 10.5, 
      -0.55 9.8 6.05, -0.42132 9.8 6.05, 
      -5.27321 12.2 0.8, -6.54578 11.25 12, 
      0.164821 9.21386 7.30111, -2.5 11.5 7, 
      1.5 7.87868 5.25, 4.6 0.0267949 6, 
      -7.1701 5.625 10.5, 1.14645 9.64645 3.25, 
      -0.55 11.5 4.1, -0.45209 9.83077 6.05, 
      -0.207107 11.5 4.1, -7.27321 0.1 7, 
      -0.55 11.5 9.9, -0.207107 11.5 9.9, 
      0.0428932 11.433 4.13349, 0.146447 11.3536 7.67322, 
      4.55355 6.94645 0, 0.489063 11.0109 0.844532, 
      3.9 0 7, 4.5 0 7, 
      -1.125 11.5 7.75407, -5.27321 12.2 10.5, 
      0.96967 8.40901 3.95096, -2.55359 12.9 6.52787, 
      2.35 9.15 7.54792, -7.3 0.2 6, 
      4.6 0.0267949 7, -7.225 5.6799 10.5, 
      0.713859 8.66482 3.80111, 1.67678 9.11612 6.54904, 
      4.6732 0.1 6, -5.3 12.5 7.94142, 
      -5.3 12.3 0.8, -7.3 5.7 10.5, 
      -0.0909903 9.46967 0.450962, 0.871928 9.92097 3.19889, 
      -0.95 10.8 5.94282, 1.5 10 6.95, 
      -2.55359 12.9 4.3, 2.20711 8.58579 8.75, 
      -0.42132 9.8 7.98448, 0.616117 10.1768 3.04904, 
      0.65 10.85 7.54792, -5.2 -3.6 4.875, 
      0.255017 10.5379 9.55, -0.95 9.8 9.44282, 
      -4.8 -3.6 4.875, -2.5 12.7 3.27002, 
      -7.3 0.2 7, 2.66112 8.83888 9.18999, 
      2.10104 9.39896 3.77776, 1.18934 8.18934 7.68934, 
      -7.3 4.1 10.5, -2.5 12.5 6.95858, 
      4.6732 0.1 7, 1.18888 10.3111 3.39207, 
      -7.225 4.1201 10.5, 0.43934 8.93934 3.75, 
      -7.15 5.55 0, -5.3 12.3 10.5, 
      1.67678 9.11612 7.45096, 1.46386 7.91482 2.13823, 
      -1.54593 11.5 4.675, -7.3 0.3 6, 
      -0.2 0.3 8.375, 0.146447 11.3536 12, 
      1.42097 9.37193 7.30111, 0.2 0.3 8.375, 
      -6.5 0.3 6, -0.95 10.8 8.05718, 
      -6.36276 11.433 12, 4.7 0.2 6, 
      0.616117 10.1768 3.95096, 2.66112 8.83888 1.31001, 
      -1.24282 9.8 1.35, -7.1701 4.175 10.5, 
      2.06501 8.72789 1, -2.9 13.1 9.49289, 
      -7.1 0 12, -6.5 0 12, 
      -7.3 0.3 7, -7.1701 5.625 0, 
      -6.5 0.3 7, -2.7 13.0464 2.74342, 
      2.17097 8.62193 1.36177, 0.898959 10.601 10.2222, 
      -7.2 0.0267949 12, -1.35 10.8 1.75, 
      4.7 0.2 7, -2.7 13.0464 4.3, 
      1.14645 9.64645 7.25, 0.0428932 11.433 12, 
      2.35 9.15 6.45208, -6.11276 11.5 12, 
      2.17097 8.62193 5.63823, -1.35 9.8 5.25, 
      1.5 10 7.05, 2.54103 8.95897 0.9, 
      0.255017 10.5379 0.95, 3.9 0.3 6, 
      -4.59289 13.1 4.3, -7.15 4.25 10.5, 
      2.10104 9.39896 3.22224, 2.54103 8.95897 9.6, 
      0.396447 10.3964 0.68934, -7.225 5.6799 0, 
      4.7 0.3 6, 0.489063 11.0109 6.15547, 
      -5.3 12.5 0.8, -5.15858 12.5 0.8, 
      -5.1 12.1 7.8, 0.898959 10.601 0.277757, 
      -2.9 13.1 4.3, 0.65 10.85 6.45208, 
      -4.8 12.1 7.8, -1.24282 10.8 5.65, 
      -7.3 5.7 0, -7.27321 0.1 12, 
      0.871928 9.92097 0.301111, -0.207107 11.5 12, 
      -7.3 9.2 10.5, -4.8 11.5 4.3, 
      -1.7 11.5 5.25, 2.70208 8.79792 8.75, 
      -5.2 12.1268 7.8, -1.24282 9.8 9.15, 
      3.9 0 12, 0.43934 8.93934 6.75, 
      4.5 0 12, 3.9 0.3 7, 
      -2.5 11.5 4.3, -7.3 4.1 0, 
      4.7 0.3 7, -0.31066 9.68934 2.81066, 
      0.146447 11.3536 2.82678, -5.3 12.5 10.5, 
      4.6 0.0267949 12, -7.225 4.1201 0, 
      -5.2 0.3 5.625, -0.55 10.8 9.55, 
      4.7 6.59289 12, -4.8 0.3 5.625, 
      0.342421 10.8 9.55, -2.74142 12.5 10.5, 
      -2.6 12.5 10.5, 0.96967 8.40901 10.049, 
      -2.5 12.5 10.5, -5.27321 12.2 7.8, 
      1.3579 8.02078 2.5, 0.164821 9.21386 6.69889, 
      -7.3 0.2 12, -0.95 9.8 1.05718, 
      -0.0909903 9.46967 6.54904, -0.2 -3.6 2.125, 
      0.2 -3.6 2.125, -7.1701 4.175 0, 
      1.14645 9.64645 10.25, 1.18888 10.3111 3.60793, 
      4.6732 0.1 12, 1.81112 9.68888 0.107926, 
      -0.42132 9.8 2.51552, 1.89645 8.89645 0.68934, 
      0.489063 11.0109 7.84453, 0.396447 10.3964 6.31066, 
      0.713859 8.66482 3.19889, -1.54593 11.5 5.825, 
      -7.1 0 2.5, -6.5 0 2.5, 
      -5.3 12.3 7.8, -0.0909903 9.46967 7.45096, 
      -7.15 4.25 0, 2.06501 8.72789 6, 
      0.871928 9.92097 10.1989, 1.18934 8.18934 2.81066, 
      0.0428932 11.433 6.36651, 0.616117 10.1768 10.049, 
      -7.2 0.0267949 2.5, 1.3579 8.02078 4.5, 
      -2.5 12.7 0.8, -6.5 0.3 12, 
      -2.5 12.7 10.27, -7.3 9.2 0, 
      -0.55 10.8 0.95, 4.7 0.2 12, 
      -4.7 13.1 2.10711, 0.342421 10.8 0.95, 
      1.46386 7.91482 4.86177, -7.1 0 3.5, 
      1.18888 10.3111 10.3921, -6.5 0 3.5, 
      1.81112 9.68888 6.89207, -0.55 9.8 4.45, 
      -0.42132 9.8 4.45, -4.7 13.1 3.5, 
      1.46386 7.91482 9.13823, -7.2 0.0267949 3.5, 
      1.42097 9.37193 6.69889, -3.30711 13.1 3.5, 
      -5.1 12.1 7, -4.8 12.1 7, 
      -0.45209 9.83077 4.45, -7.27321 0.1 2.5, 
      -1.24282 10.8 4.85, -0.31066 9.68934 4.18934, 
      -1.125 11.5 2.74593, 3.9 0 2.5, 
      -4.8 11.5 3.5, 1.89645 8.89645 6.31066, 
      2.66112 8.83888 8.31001, 4.5 0 2.5, 
      -5.2 12.1268 7, -1.24282 9.8 8.35, 
      -0.55 9.8 2.55, -0.42132 9.8 2.55, 
      2.06501 8.72789 8, 0.164821 9.21386 3.80111, 
      4.63301 6.84289 12, -2.5 11.5 3.5, 
      3.9 0.3 12, 1.5 7.87868 1.75, 
      4.6 0.0267949 2.5, -0.55 11.5 0.6, 
      -0.45209 9.83077 2.55, -2.7 13.0464 9.74342, 
      2.17097 8.62193 8.36177, -0.207107 11.5 0.6, 
      -7.27321 0.1 3.5, -0.55 11.5 6.4, 
      -1.35 10.8 8.75, -0.207107 11.5 6.4, 
      0.0428932 11.433 0.633494, 0.146447 11.3536 4.17322, 
      3.9 0 3.5, -6.58261 11.171 10.5, 
      4.5 0 3.5, -1.125 11.5 4.25407, 
      -5.27321 12.2 7, 2.54103 8.95897 7.9, 
      0.255017 10.5379 7.95, 0.96967 8.40901 0.450962, 
      -2.55359 12.9 3.02787, 2.35 9.15 4.04792, 
      -7.3 0.2 2.5, 2.10104 9.39896 10.2222, 
      4.6 0.0267949 3.5, 0.396447 10.3964 7.68934, 
      -5.3 12.5 7.8, 0.713859 8.66482 0.301111, 
      -5.15858 12.5 7.8, 1.67678 9.11612 3.04904, 
      0.898959 10.601 7.27776, 4.6732 0.1 2.5, 
      -5.3 12.5 4.44142, -0.95 10.8 2.44282, 
      1.5 10 3.45, 0.871928 9.92097 7.30111, 
      -2.55359 12.9 0.8, 2.20711 8.58579 5.25, 
      4.55355 6.94645 12, -0.42132 9.8 4.48448, 
      0.65 10.85 4.04792, -6.54578 11.25 10.5, 
      0.255017 10.5379 6.05, -0.95 9.8 5.94282, 
      -5.2 0.3 4.875, -4.8 0.3 4.875, 
      -7.3 0.2 3.5, 2.66112 8.83888 5.68999, 
      2.10104 9.39896 0.277757, 1.18934 8.18934 4.18934, 
      -0.31066 9.68934 9.81066, -2.5 12.5 3.45858, 
      0.146447 11.3536 9.82678, 4.6732 0.1 3.5, 
      0.43934 8.93934 0.25, -5.3 12.3 7, 
      1.67678 9.11612 3.95096, -0.2 -3.6 1.375, 
      -1.54593 11.5 1.175, -7.3 0.3 2.5, 
      0.2 -3.6 1.375, 1.42097 9.37193 3.80111, 
      -6.5 0.3 2.5, -0.95 10.8 4.55718, 
      1.3579 8.02078 9.5, 4.7 0.2 2.5, 
      0.616117 10.1768 0.450962, -0.95 9.8 8.05718, 
      -0.2 -3.6 9.125, 0.2 -3.6 9.125, 
      -2.9 13.1 5.99289, 1.81112 9.68888 7.10793, 
      -0.42132 9.8 9.51552, 1.89645 8.89645 7.68934, 
      -7.3 0.3 3.5, -7.15 5.55 12, 
      -6.5 0.3 3.5, 0.898959 10.601 6.72224, 
      4.7 0.2 3.5, -2.7 13.0464 0.8, 
      1.14645 9.64645 3.75, -6.58261 11.171 0, 
      2.35 9.15 2.95208, 2.17097 8.62193 2.13823, 
      0.713859 8.66482 10.1989, -1.35 9.8 1.75, 
      1.5 10 3.55, -7.1 0 9.5, 
      -6.5 0 9.5, 3.9 0.3 2.5, 
      -4.59289 13.1 0.8, 2.54103 8.95897 6.1, 
      0.146447 11.3536 10.5, 4.7 0.3 2.5, 
      0.489063 11.0109 2.65547, 1.18934 8.18934 9.81066, 
      -5.1 12.1 4.3, -2.9 13.1 0.8, 
      -7.2 0.0267949 9.5, 0.65 10.85 2.95208, 
      -4.8 12.1 4.3, -6.36276 11.433 10.5, 
      -1.24282 10.8 2.15, -2.5 12.7 7.8, 
      -7.1701 5.625 12, -4.8 11.5 0.8, 
      -0.55 10.8 7.95, -1.7 11.5 1.75, 
      -4.7 13.1 9.10711, 2.70208 8.79792 5.25, 
      -5.2 12.1268 4.3, -1.24282 9.8 5.65, 
      0.43934 8.93934 3.25, 0.342421 10.8 7.95, 
      -7.1 0 10.5, -6.54578 11.25 0, 
      -6.5 0 10.5, 3.9 0.3 3.5, 
      -2.5 11.5 0.8, 4.7 0.3 3.5, 
      -4.7 13.1 10.5, -7.2 0.0267949 10.5, 
      -5.3 12.5 7, -7.225 5.6799 12, 
      -3.30711 13.1 10.5, 0.0428932 11.433 10.5, 
      -7.27321 0.1 9.5, -6.11276 11.5 10.5, 
      -0.55 10.8 6.05, -7.3 5.7 12, 
      -1.125 11.5 9.74593, 0.342421 10.8 6.05, 
      3.9 0 9.5, -2.74142 12.5 7, 
      -4.8 11.5 10.5, -2.6 12.5 7, 
      0.96967 8.40901 6.54904, -2.5 12.5 7, 
      4.5 0 9.5, -0.55 9.8 9.55, 
      -0.42132 9.8 9.55, -5.27321 12.2 4.3, 
      0.164821 9.21386 3.19889, -2.5 11.5 10.5, 
      1.5 7.87868 8.75, -0.0909903 9.46967 3.04904, 
      4.6 0.0267949 9.5, -7.3 4.1 12, 
      -0.2 0.3 2.125, 1.14645 9.64645 6.75, 
      -0.55 11.5 7.6, -0.45209 9.83077 9.55, 
      0.2 0.3 2.125, -0.207107 11.5 7.6, 
      -7.27321 0.1 10.5, -0.207107 11.5 10.5, 
      1.18888 10.3111 0.107926, 0.0428932 11.433 7.63349, 
      -7.225 4.1201 12, 0.489063 11.0109 4.34453, 
      3.9 0 10.5, 4.5 0 10.5, 
      0.396447 10.3964 2.81066, 0.96967 8.40901 7.45096, 
      -2.55359 12.9 10.0279, -7.3 0.2 9.5, 
      4.6 0.0267949 10.5, -1.54593 11.5 2.325, 
      0.713859 8.66482 7.30111, 1.67678 9.11612 10.049, 
      4.7 6.59289 10.5, 4.6732 0.1 9.5, 
      -5.3 12.3 4.3, -7.1701 4.175 12, 
      -0.0909903 9.46967 3.95096, 2.06501 8.72789 2.5, 
      0.871928 9.92097 6.69889, -0.95 10.8 9.44282, 
      1.5 10 10.45, 0.146447 11.3536 0, 
      -2.55359 12.9 7.8, 0.0428932 11.433 2.86651, 
      0.616117 10.1768 6.54904, 1.3579 8.02078 1, 
      -6.36276 11.433 0, -2.5 12.7 6.77002, 
      -7.3 0.2 10.5, 2.10104 9.39896 7.27776, 
      -2.5 12.5 10.4586, 1.46386 7.91482 1.36177, 
      4.6732 0.1 10.5, 1.18888 10.3111 6.89207, 
      1.81112 9.68888 3.39207, -0.55 9.8 0.95, 
      -0.42132 9.8 0.95, 0.43934 8.93934 7.25, 
      1.46386 7.91482 5.63823, -0.2 -3.6 8.375, 
      -1.54593 11.5 8.175, -7.15 4.25 12, 
      -7.3 0.3 9.5, 0.2 -3.6 8.375, 
      1.42097 9.37193 3.19889, -5.1 12.1 3.5, 
      -6.5 0.3 9.5, 0.0428932 11.433 0, 
      -4.8 12.1 3.5, -0.45209 9.83077 0.95, 
      -1.24282 10.8 1.35, -6.11276 11.5 0, 
      4.7 0.2 9.5, 0.616117 10.1768 7.45096, 
      -0.31066 9.68934 0.68934, 1.89645 8.89645 2.81066, 
      2.66112 8.83888 4.81001, -7.3 9.2 12, 
      -5.2 12.1268 3.5, -1.24282 9.8 4.85, 
      2.06501 8.72789 4.5
    ]
  }

  Normal
  {
    vector
    [
      0.9659 0.0000 0.0000,-1.0000 0.0000 0.0000,
      1.0000 0.0000 0.0000,-0.3688 0.8901 -0.2385,
      0.0000 0.0000 1.0000,0.0000 0.0000 -1.0000,
      0.4830 0.0000 -0.8365,0.4830 0.0000 0.8365,
      -0.6772 0.6772 0.2566,0.0920 0.4293 -0.8902,
      -0.0652 0.5865 0.7981,-0.4957 0.4957 0.7011,
      0.4957 -0.4957 -0.7011,0.2607 0.2607 -0.9216,
      -0.3688 0.8901 0.2385,-0.9659 0.2588 0.0000,
      0.9659 -0.2588 0.0000,-0.9659 -0.2588 0.0000,
      0.9659 0.2588 0.0000,-0.3505 0.3505 -0.8586,
      0.3505 -0.3505 0.8586,-0.9397 0.3420 0.0000,
      -0.2001 0.7215 0.6517,0.4349 0.4349 0.7533,
      -0.5883 0.5547 0.5883,-0.9063 0.4226 0.0000,
      -0.6772 0.6772 -0.2566,0.8796 0.4338 0.0000,
      0.8698 0.4349 0.0000,0.7533 0.4349 -0.4349,
      0.4293 0.0920 -0.8902,-0.8365 0.4830 0.0000,
      0.8365 -0.4830 0.0000,-0.8365 -0.4830 0.0000,
      0.8365 0.4830 0.0000,0.0000 0.4472 -0.8944,
      -0.2001 0.7215 -0.6517,-0.8067 0.5649 0.0000,
      -0.1814 0.1814 -0.9577,0.1814 -0.1814 0.9577,
      0.2331 0.4349 0.8698,-0.0652 0.5865 -0.7981,
      0.7934 0.6088 0.0000,0.7821 -0.2608 0.5659,
      0.4293 0.0920 0.8902,0.2607 0.2607 0.9216,
      -0.7011 0.7011 0.0000,-0.7071 0.7071 0.0000,
      0.7071 0.7071 -0.0000,0.8365 0.0000 -0.4830,
      0.8365 0.0000 0.4830,0.6088 0.7934 0.0000,
      -0.4957 0.4957 -0.7011,0.4957 -0.4957 0.7011,
      0.5610 -0.5610 -0.6088,0.4830 -0.8365 0.0000,
      -0.4830 0.8365 0.0000,0.0000 0.0000 -0.9914,
      0.0000 0.0000 0.9914,0.4830 0.8365 0.0000,
      -0.4830 -0.8365 0.0000,0.4338 0.8796 0.0000,
      -0.3910 0.9124 0.0000,-0.1814 0.1814 0.9577,
      0.1814 -0.1814 -0.9577,0.5883 0.5547 -0.5883,
      0.2588 -0.9659 0.0000,-0.2588 0.9659 0.0000,
      0.2588 0.9659 0.0000,-0.2588 -0.9659 0.0000,
      0.0920 0.4293 0.8902,0.0000 -1.0000 0.0000,
      0.0000 1.0000 0.0000,-0.3505 0.3505 0.8586,
      0.3505 -0.3505 -0.8586,-0.6071 0.6071 0.4957,
      -0.3037 0.8250 -0.4608,-0.3037 0.8250 0.4608,
      0.7215 -0.2001 0.6517,0.5865 -0.0652 0.7981,
      0.7821 -0.2608 -0.5659,0.4349 0.4349 -0.7533,
      0.5865 -0.0652 -0.7981,0.7533 0.4349 0.4349,
      0.5610 -0.5610 0.6088,0.2331 0.4349 -0.8698,
      0.0000 0.4472 0.8944,-0.6071 0.6071 -0.4957,
      0.7215 -0.2001 -0.6517,0.2588 0.0000 -0.9659,
      0.2588 0.0000 0.9659
    ]
  }

    Node_Info
    {
      fields [SFString node_type, SFString node_name]
      node_type "Poly_Surface"
      node_name ""
    }
    NormalBinding { value PER_VERTEX_INDEXED }
    Separator
    {
      MatrixTransform
      {
      matrix 1.0000 0.0000 0.0000 0.0000
             0.0000 1.0000 0.0000 0.0000
             0.0000 0.0000 1.0000 0.0000
             0.0000 0.0000 0.0000 1.0000
      }
      IndexedFaceSet
      {
      coordIndex
      [
        64, 419, 295, -1
        64, 295, 510, -1
        422, 66, 514, -1
        422, 514, 296, -1
        66, 422, 419, -1
        66, 419, 64, -1
        296, 514, 510, -1
        296, 510, 295, -1
        295, 419, 422, -1
        295, 422, 296, -1
        406, 185, 60, -1
        406, 60, 280, -1
        61, 188, 407, -1
        61, 407, 283, -1
        185, 406, 407, -1
        185, 407, 188, -1
        60, 185, 188, -1
        60, 188, 61, -1
        280, 60, 61, -1
        280, 61, 283, -1
        206, 559, 430, -1
        206, 430, 72, -1
        563, 209, 73, -1
        563, 73, 431, -1
        209, 563, 559, -1
        209, 559, 206, -1
        431, 73, 72, -1
        431, 72, 430, -1
        430, 559, 563, -1
        430, 563, 431, -1
          ]
      normalIndex
      [
1, 1, 1, -1
        1, 1, 1, -1
        2, 2, 2, -1
        2, 2, 2, -1
        5, 5, 5, -1
        5, 5, 5, -1
        4, 4, 4, -1
        4, 4, 4, -1
        71, 71, 71, -1
        71, 71, 71, -1
        1, 1, 1, -1
        1, 1, 1, -1
        2, 2, 2, -1
        2, 2, 2, -1
        5, 5, 5, -1
        5, 5, 5, -1
        71, 71, 71, -1
        71, 71, 71, -1
        4, 4, 4, -1
        4, 4, 4, -1
        1, 1, 1, -1
        1, 1, 1, -1
        2, 2, 2, -1
        2, 2, 2, -1
        5, 5, 5, -1
        5, 5, 5, -1
        4, 4, 4, -1
        4, 4, 4, -1
        71, 71, 71, -1
        71, 71, 71, -1
              ]
      }
    }
  }
}
