#VRML V1.0 ascii

#Generated from PARTsolutions, CADENAS GmbH.
#Date of Generation: Mo Feb 10 2025
Header_Info
{
fields [SFString vendor, SFString product, SFString datatype, SFString version]
vendor   "CADENAS GmbH"
product  "PARTsolutions"
datatype "PARTsolutionsVRML"
version  "1.0"
}

# Breite: 12.00, Höhe: 16.70
PerspectiveCamera
{
  position    -1.30 4.75 26.87
  orientation 0 0 1 0
}

DEF _250-202 Group
{
Shape 
{
  Node_info
  {
    fields [SFString node_type, SFString node_name]
    node_type "Poly_Geom_Data"
    node_name ""
  }

    Material
    {
      ambientColor [0.56 0.57 0.57]
      diffuseColor [0.56 0.57 0.57]
      specularColor [0.8 0.8 0.8]
      shininess [0.5]
      transparency [0.00]
    }

  Coordinate3
  {
    point
    [
      0.164821 9.21386 0.301111, 4.63301 6.84289 8.5, 
      3.9 0.3 8.5, -2.7 13.0464 6.24342, 
      2.17097 8.62193 4.86177, -7.27321 0.1 0, 
      -0.55 11.5 2.9, -0.207107 11.5 0, 
      -1.35 10.8 5.25, -0.207107 11.5 2.9, 
      0.146447 11.3536 0.673223, 3.9 0 0, 
      -6.58261 11.171 7, 4.5 0 0, 
      -7.2 0.0267949 0, -1.125 11.5 0.754071, 
      -5.27321 12.2 3.5, 2.54103 8.95897 4.4, 
      -6.5 0 0, 0.255017 10.5379 4.45, 
      2.35 9.15 0.547918, 2.10104 9.39896 6.72224, 
      -7.1 0 0, 4.6 0.0267949 0, 
      0.396447 10.3964 4.18934, -5.3 12.5 4.3, 
      -5.15858 12.5 4.3, 0.898959 10.601 3.77776, 
      4.7 6.59289 0, -5.3 12.5 0.941421, 
      0.871928 9.92097 3.80111, 2.20711 8.58579 1.75, 
      4.55355 6.94645 8.5, -0.42132 9.8 0.98448, 
      0.65 10.85 0.547918, -6.54578 11.25 7, 
      0.255017 10.5379 2.55, -0.95 9.8 2.44282, 
      -7.3 0.2 0, 2.66112 8.83888 2.18999, 
      1.18934 8.18934 0.68934, -0.31066 9.68934 6.31066, 
      0.146447 11.3536 6.32678, 4.6732 0.1 0, 
      -5.2 -3.6 5.625, -4.8 -3.6 5.625, 
      -5.3 12.3 3.5, 1.67678 9.11612 0.450962, 
      -0.2 0.3 1.375, 1.42097 9.37193 0.301111, 
      0.2 0.3 1.375, -0.95 10.8 1.05718, 
      1.3579 8.02078 6, -0.95 9.8 4.55718, 
      -2.9 13.1 2.49289, 1.81112 9.68888 3.60793, 
      -0.42132 9.8 6.01552, 1.89645 8.89645 4.18934, 
      -7.3 0.3 0, -7.15 5.55 8.5, 
      -6.5 0.3 0, 0.898959 10.601 3.22224, 
      4.7 0.2 0, 1.14645 9.64645 0.25, 
      0.713859 8.66482 6.69889, 1.5 10 0.05, 
      -7.1 0 6, -6.5 0 6, 
      2.54103 8.95897 2.6, 0.146447 11.3536 7, 
      1.18934 8.18934 6.31066, -5.1 12.1 0.8, 
      -7.2 0.0267949 6, -4.8 12.1 0.8, 
      -6.36276 11.433 7, -2.5 12.7 4.3, 
      -7.1701 5.625 8.5, -0.55 10.8 4.45, 
      -4.7 13.1 5.60711, 2.70208 8.79792 1.75, 
      -5.2 12.1268 0.8, -1.24282 9.8 2.15, 
      0.342421 10.8 4.45, -7.1 0 7, 
      4.63301 6.84289 0, -6.5 0 7, 
      3.9 0.3 0, 4.7 0.3 0, 
      -4.7 13.1 7, -7.2 0.0267949 7, 
      -5.3 12.5 3.5, -7.225 5.6799 8.5, 
      -3.30711 13.1 7, 0.0428932 11.433 7, 
      -7.27321 0.1 6, -6.11276 11.5 7, 
      -0.55 10.8 2.55, -7.3 5.7 8.5, 
      -1.125 11.5 6.24593, 0.342421 10.8 2.55, 
      3.9 0 6, -2.74142 12.5 3.5, 
      -4.8 11.5 7, -2.6 12.5 3.5, 
      0.96967 8.40901 3.04904, -2.5 12.5 3.5, 
      4.5 0 6, -0.55 9.8 6.05, 
      -0.42132 9.8 6.05, -5.27321 12.2 0.8, 
      -2.5 11.5 7, 1.5 7.87868 5.25, 
      4.6 0.0267949 6, -7.3 4.1 8.5, 
      1.14645 9.64645 3.25, -0.55 11.5 4.1, 
      -0.45209 9.83077 6.05, -0.207107 11.5 4.1, 
      -7.27321 0.1 7, -0.207107 11.5 7, 
      0.0428932 11.433 4.13349, 4.55355 6.94645 0, 
      -7.225 4.1201 8.5, 0.489063 11.0109 0.844532, 
      3.9 0 7, 4.5 0 7, 
      0.96967 8.40901 3.95096, -2.55359 12.9 6.52787, 
      -7.3 0.2 6, 4.6 0.0267949 7, 
      0.713859 8.66482 3.80111, 1.67678 9.11612 6.54904, 
      4.7 6.59289 7, 4.6732 0.1 6, 
      -5.3 12.3 0.8, -7.1701 4.175 8.5, 
      -0.0909903 9.46967 0.450962, 0.871928 9.92097 3.19889, 
      -0.95 10.8 5.94282, 1.5 10 6.95, 
      -2.55359 12.9 4.3, 0.616117 10.1768 3.04904, 
      -5.2 -3.6 4.875, -4.8 -3.6 4.875, 
      -2.5 12.7 3.27002, -7.3 0.2 7, 
      2.10104 9.39896 3.77776, -2.5 12.5 6.95858, 
      4.6732 0.1 7, 1.18888 10.3111 3.39207, 
      0.43934 8.93934 3.75, -7.15 5.55 0, 
      1.46386 7.91482 2.13823, -1.54593 11.5 4.675, 
      -7.15 4.25 8.5, -7.3 0.3 6, 
      -6.5 0.3 6, 4.7 0.2 6, 
      0.616117 10.1768 3.95096, 2.66112 8.83888 1.31001, 
      -7.3 9.2 8.5, -1.24282 9.8 1.35, 
      2.06501 8.72789 1, -7.3 0.3 7, 
      -7.1701 5.625 0, -6.5 0.3 7, 
      -2.7 13.0464 2.74342, 2.17097 8.62193 1.36177, 
      -1.35 10.8 1.75, 4.7 0.2 7, 
      -2.7 13.0464 4.3, 2.35 9.15 6.45208, 
      2.17097 8.62193 5.63823, -1.35 9.8 5.25, 
      2.54103 8.95897 0.9, 0.255017 10.5379 0.95, 
      3.9 0.3 6, -4.59289 13.1 4.3, 
      2.10104 9.39896 3.22224, 0.396447 10.3964 0.68934, 
      -7.225 5.6799 0, 4.7 0.3 6, 
      0.489063 11.0109 6.15547, -5.3 12.5 0.8, 
      -5.15858 12.5 0.8, 0.898959 10.601 0.277757, 
      -2.9 13.1 4.3, 0.65 10.85 6.45208, 
      -1.24282 10.8 5.65, -7.3 5.7 0, 
      0.871928 9.92097 0.301111, -4.8 11.5 4.3, 
      -1.7 11.5 5.25, 0.43934 8.93934 6.75, 
      4.63301 6.84289 7, 3.9 0.3 7, 
      -2.5 11.5 4.3, -7.3 4.1 0, 
      4.7 0.3 7, -0.31066 9.68934 2.81066, 
      0.146447 11.3536 2.82678, -7.225 4.1201 0, 
      -5.2 0.3 5.625, -4.8 0.3 5.625, 
      1.3579 8.02078 2.5, 0.164821 9.21386 6.69889, 
      -0.95 9.8 1.05718, -0.0909903 9.46967 6.54904, 
      -0.2 -3.6 2.125, 0.2 -3.6 2.125, 
      -7.1701 4.175 0, 1.18888 10.3111 3.60793, 
      1.81112 9.68888 0.107926, 4.55355 6.94645 7, 
      -0.42132 9.8 2.51552, 1.89645 8.89645 0.68934, 
      0.396447 10.3964 6.31066, 0.713859 8.66482 3.19889, 
      -1.54593 11.5 5.825, -7.1 0 2.5, 
      -6.5 0 2.5, -7.15 4.25 0, 
      2.06501 8.72789 6, 1.18934 8.18934 2.81066, 
      0.0428932 11.433 6.36651, -7.2 0.0267949 2.5, 
      1.3579 8.02078 4.5, -2.5 12.7 0.8, 
      -7.3 9.2 0, -0.55 10.8 0.95, 
      -4.7 13.1 2.10711, -6.58261 11.171 8.5, 
      0.342421 10.8 0.95, 1.46386 7.91482 4.86177, 
      -7.1 0 3.5, -6.5 0 3.5, 
      1.81112 9.68888 6.89207, -0.55 9.8 4.45, 
      -0.42132 9.8 4.45, -7.15 5.55 7, 
      -4.7 13.1 3.5, -7.2 0.0267949 3.5, 
      1.42097 9.37193 6.69889, -3.30711 13.1 3.5, 
      -5.1 12.1 7, -4.8 12.1 7, 
      -0.45209 9.83077 4.45, -7.27321 0.1 2.5, 
      -1.24282 10.8 4.85, -0.31066 9.68934 4.18934, 
      -1.125 11.5 2.74593, 3.9 0 2.5, 
      -4.8 11.5 3.5, 1.89645 8.89645 6.31066, 
      4.5 0 2.5, -5.2 12.1268 7, 
      -0.55 9.8 2.55, -0.42132 9.8 2.55, 
      -6.54578 11.25 8.5, 0.164821 9.21386 3.80111, 
      -2.5 11.5 3.5, 1.5 7.87868 1.75, 
      4.6 0.0267949 2.5, -7.1701 5.625 7, 
      -0.55 11.5 0.6, -0.45209 9.83077 2.55, 
      -0.207107 11.5 0.6, -7.27321 0.1 3.5, 
      -0.55 11.5 6.4, -0.207107 11.5 6.4, 
      0.0428932 11.433 0.633494, 0.146447 11.3536 4.17322, 
      3.9 0 3.5, 4.5 0 3.5, 
      -1.125 11.5 4.25407, -5.27321 12.2 7, 
      0.96967 8.40901 0.450962, -2.55359 12.9 3.02787, 
      2.35 9.15 4.04792, -7.3 0.2 2.5, 
      4.6 0.0267949 3.5, -7.225 5.6799 7, 
      0.713859 8.66482 0.301111, 1.67678 9.11612 3.04904, 
      4.6732 0.1 2.5, -5.3 12.5 4.44142, 
      -7.3 5.7 7, -0.95 10.8 2.44282, 
      1.5 10 3.45, -2.55359 12.9 0.8, 
      2.20711 8.58579 5.25, -0.42132 9.8 4.48448, 
      0.65 10.85 4.04792, 0.255017 10.5379 6.05, 
      -0.95 9.8 5.94282, -5.2 0.3 4.875, 
      -4.8 0.3 4.875, -7.3 0.2 3.5, 
      2.66112 8.83888 5.68999, 2.10104 9.39896 0.277757, 
      1.18934 8.18934 4.18934, -7.3 4.1 7, 
      -2.5 12.5 3.45858, 4.6732 0.1 3.5, 
      -7.225 4.1201 7, 0.43934 8.93934 0.25, 
      -5.3 12.3 7, 1.67678 9.11612 3.95096, 
      -0.2 -3.6 1.375, -1.54593 11.5 1.175, 
      -7.3 0.3 2.5, 0.2 -3.6 1.375, 
      0.146447 11.3536 8.5, 1.42097 9.37193 3.80111, 
      -6.5 0.3 2.5, -0.95 10.8 4.55718, 
      -6.36276 11.433 8.5, 4.7 0.2 2.5, 
      0.616117 10.1768 0.450962, -7.1701 4.175 7, 
      -2.9 13.1 5.99289, -7.1 0 8.5, 
      -6.5 0 8.5, -7.3 0.3 3.5, 
      -6.5 0.3 3.5, 0.898959 10.601 6.72224, 
      -7.2 0.0267949 8.5, 4.7 0.2 3.5, 
      -2.7 13.0464 0.8, 1.14645 9.64645 3.75, 
      0.0428932 11.433 8.5, -6.58261 11.171 0, 
      2.35 9.15 2.95208, -6.11276 11.5 8.5, 
      2.17097 8.62193 2.13823, -1.35 9.8 1.75, 
      1.5 10 3.55, 3.9 0.3 2.5, 
      -4.59289 13.1 0.8, -7.15 4.25 7, 
      2.54103 8.95897 6.1, 4.7 0.3 2.5, 
      0.489063 11.0109 2.65547, -5.1 12.1 4.3, 
      -2.9 13.1 0.8, 0.65 10.85 2.95208, 
      -4.8 12.1 4.3, -1.24282 10.8 2.15, 
      -7.27321 0.1 8.5, -0.207107 11.5 8.5, 
      -7.3 9.2 7, -4.8 11.5 0.8, 
      -1.7 11.5 1.75, 2.70208 8.79792 5.25, 
      -5.2 12.1268 4.3, -1.24282 9.8 5.65, 
      3.9 0 8.5, 0.43934 8.93934 3.25, 
      4.5 0 8.5, -6.54578 11.25 0, 
      3.9 0.3 3.5, -2.5 11.5 0.8, 
      4.7 0.3 3.5, -5.3 12.5 7, 
      4.6 0.0267949 8.5, -0.55 10.8 6.05, 
      4.7 6.59289 8.5, 0.342421 10.8 6.05, 
      -2.74142 12.5 7, -2.6 12.5 7, 
      0.96967 8.40901 6.54904, -2.5 12.5 7, 
      -5.27321 12.2 4.3, 0.164821 9.21386 3.19889, 
      -7.3 0.2 8.5, -0.0909903 9.46967 3.04904, 
      -0.2 0.3 2.125, 1.14645 9.64645 6.75, 
      0.2 0.3 2.125, 1.18888 10.3111 0.107926, 
      4.6732 0.1 8.5, 0.489063 11.0109 4.34453, 
      0.396447 10.3964 2.81066, -1.54593 11.5 2.325, 
      -5.3 12.3 4.3, -0.0909903 9.46967 3.95096, 
      2.06501 8.72789 2.5, 0.871928 9.92097 6.69889, 
      0.146447 11.3536 0, 0.0428932 11.433 2.86651, 
      0.616117 10.1768 6.54904, 1.3579 8.02078 1, 
      -6.36276 11.433 0, -6.5 0.3 8.5, 
      -2.5 12.7 6.77002, 4.7 0.2 8.5, 
      1.46386 7.91482 1.36177, 1.18888 10.3111 6.89207, 
      1.81112 9.68888 3.39207, -0.55 9.8 0.95, 
      -0.42132 9.8 0.95, 1.46386 7.91482 5.63823, 
      1.42097 9.37193 3.19889, -5.1 12.1 3.5, 
      0.0428932 11.433 0, -4.8 12.1 3.5, 
      -0.45209 9.83077 0.95, -1.24282 10.8 1.35, 
      -6.11276 11.5 0, -0.31066 9.68934 0.68934, 
      1.89645 8.89645 2.81066, 2.66112 8.83888 4.81001, 
      -5.2 12.1268 3.5, -1.24282 9.8 4.85, 
      2.06501 8.72789 4.5
    ]
  }

  Normal
  {
    vector
    [
      0.9659 0.0000 0.0000,-1.0000 0.0000 0.0000,
      1.0000 0.0000 0.0000,-0.3688 0.8901 -0.2385,
      0.0000 0.0000 1.0000,0.0000 0.0000 -1.0000,
      0.4830 0.0000 -0.8365,0.4830 0.0000 0.8365,
      -0.6772 0.6772 0.2566,0.0920 0.4293 -0.8902,
      -0.0652 0.5865 0.7981,-0.4957 0.4957 0.7011,
      0.4957 -0.4957 -0.7011,0.2607 0.2607 -0.9216,
      -0.3688 0.8901 0.2385,-0.9659 0.2588 0.0000,
      0.9659 -0.2588 0.0000,-0.9659 -0.2588 0.0000,
      0.9659 0.2588 0.0000,-0.3505 0.3505 -0.8586,
      0.3505 -0.3505 0.8586,-0.9397 0.3420 0.0000,
      -0.2001 0.7215 0.6517,0.4349 0.4349 0.7533,
      -0.5883 0.5547 0.5883,-0.9063 0.4226 0.0000,
      -0.6772 0.6772 -0.2566,0.8796 0.4338 0.0000,
      0.8698 0.4349 0.0000,0.7533 0.4349 -0.4349,
      0.4293 0.0920 -0.8902,-0.8365 0.4830 0.0000,
      0.8365 -0.4830 0.0000,-0.8365 -0.4830 0.0000,
      0.8365 0.4830 0.0000,0.0000 0.4472 -0.8944,
      -0.2001 0.7215 -0.6517,-0.8067 0.5649 0.0000,
      -0.1814 0.1814 -0.9577,0.1814 -0.1814 0.9577,
      0.2331 0.4349 0.8698,-0.0652 0.5865 -0.7981,
      0.7934 0.6088 0.0000,0.7821 -0.2608 0.5659,
      0.4293 0.0920 0.8902,0.2607 0.2607 0.9216,
      -0.7011 0.7011 0.0000,-0.7071 0.7071 0.0000,
      0.7071 0.7071 -0.0000,0.8365 0.0000 -0.4830,
      0.8365 0.0000 0.4830,0.6088 0.7934 0.0000,
      -0.4957 0.4957 -0.7011,0.4957 -0.4957 0.7011,
      0.5610 -0.5610 -0.6088,0.4830 -0.8365 0.0000,
      -0.4830 0.8365 0.0000,0.0000 0.0000 -0.9914,
      0.0000 0.0000 0.9914,0.4830 0.8365 0.0000,
      -0.4830 -0.8365 0.0000,0.4338 0.8796 0.0000,
      -0.3910 0.9124 0.0000,-0.1814 0.1814 0.9577,
      0.1814 -0.1814 -0.9577,0.5883 0.5547 -0.5883,
      0.2588 -0.9659 0.0000,-0.2588 0.9659 0.0000,
      0.2588 0.9659 0.0000,-0.2588 -0.9659 0.0000,
      0.0920 0.4293 0.8902,0.0000 -1.0000 0.0000,
      0.0000 1.0000 0.0000,-0.3505 0.3505 0.8586,
      0.3505 -0.3505 -0.8586,-0.6071 0.6071 0.4957,
      -0.3037 0.8250 -0.4608,-0.3037 0.8250 0.4608,
      0.7215 -0.2001 0.6517,0.5865 -0.0652 0.7981,
      0.7821 -0.2608 -0.5659,0.4349 0.4349 -0.7533,
      0.5865 -0.0652 -0.7981,0.7533 0.4349 0.4349,
      0.5610 -0.5610 0.6088,0.2331 0.4349 -0.8698,
      0.0000 0.4472 0.8944,-0.6071 0.6071 -0.4957,
      0.7215 -0.2001 -0.6517,0.2588 0.0000 -0.9659,
      0.2588 0.0000 0.9659
    ]
  }

    Node_Info
    {
      fields [SFString node_type, SFString node_name]
      node_type "Poly_Surface"
      node_name ""
    }
    NormalBinding { value PER_VERTEX_INDEXED }
    Separator
    {
      MatrixTransform
      {
      matrix 1.0000 0.0000 0.0000 0.0000
             0.0000 1.0000 0.0000 0.0000
             0.0000 0.0000 1.0000 0.0000
             0.0000 0.0000 0.0000 1.0000
      }
      IndexedFaceSet
      {
      coordIndex
      [
        404, 388, 86, -1,
        86, 388, 121, -1,
        86, 121, 87, -1,
        87, 121, 84, -1,
        87, 84, 28, -1,
        86, 60, 392, -1,
        86, 392, 408, -1,
        86, 408, 7, -1,
        86, 7, 404, -1,
        60, 58, 201, -1,
        60, 201, 210, -1,
        60, 210, 221, -1,
        60, 221, 331, -1,
        60, 331, 359, -1,
        60, 359, 392, -1,
        331, 221, 151, -1,
        331, 151, 164, -1,
        331, 164, 180, -1,
        331, 180, 189, -1,
        331, 189, 228, -1,
        201, 58, 197, -1,
        5, 38, 58, -1,
        5, 58, 60, -1,
        5, 60, 18, -1,
        5, 18, 22, -1,
        5, 22, 14, -1,
        13, 11, 86, -1,
        13, 86, 87, -1,
        13, 87, 62, -1,
        13, 62, 43, -1,
        13, 43, 23, -1,
        88, 363, 275, -1,
        88, 275, 255, -1,
        88, 255, 244, -1,
        88, 244, 245, -1,
        88, 245, 110, -1,
        88, 110, 92, -1,
        110, 371, 369, -1,
        110, 369, 368, -1,
        110, 368, 92, -1,
        110, 245, 102, -1,
        275, 363, 306, -1,
        124, 195, 198, -1,
        124, 198, 169, -1,
        124, 169, 148, -1,
        124, 148, 129, -1,
        124, 129, 125, -1,
        145, 163, 165, -1,
        145, 165, 85, -1,
        145, 85, 83, -1,
        145, 83, 89, -1,
        145, 89, 118, -1,
        189, 180, 281, -1,
        189, 281, 286, -1,
        350, 12, 331, -1,
        350, 331, 228, -1,
        28, 132, 198, -1,
        28, 198, 181, -1,
        28, 181, 362, -1,
        28, 362, 341, -1,
        28, 341, 87, -1,
        228, 189, 286, -1,
        228, 286, 350, -1,
        111, 233, 401, -1,
        401, 233, 226, -1,
        401, 226, 52, -1,
        52, 226, 300, -1,
        52, 300, 70, -1,
        70, 300, 126, -1,
        70, 126, 370, -1,
        370, 126, 130, -1,
        370, 130, 64, -1,
        64, 130, 150, -1,
        64, 150, 193, -1,
        193, 150, 259, -1,
        193, 259, 205, -1,
        205, 259, 385, -1,
        205, 385, 207, -1,
        207, 385, 249, -1,
        207, 249, 41, -1,
        41, 249, 238, -1,
        41, 238, 291, -1,
        41, 291, 56, -1,
        41, 56, 108, -1,
        41, 108, 116, -1,
        238, 249, 246, -1,
        261, 396, 152, -1,
        152, 396, 391, -1,
        152, 391, 204, -1,
        204, 391, 40, -1,
        204, 40, 223, -1,
        223, 40, 276, -1,
        223, 276, 104, -1,
        104, 276, 282, -1,
        104, 282, 217, -1,
        217, 282, 305, -1,
        217, 305, 357, -1,
        357, 305, 0, -1,
        357, 0, 373, -1,
        373, 0, 136, -1,
        373, 136, 375, -1,
        375, 136, 409, -1,
        375, 409, 199, -1,
        199, 409, 400, -1,
        199, 400, 33, -1,
        199, 33, 214, -1,
        199, 214, 257, -1,
        199, 257, 265, -1,
        400, 409, 406, -1,
        261, 152, 334, -1,
        261, 334, 31, -1,
        111, 401, 172, -1,
        111, 172, 290, -1,
        111, 290, 4, -1,
        111, 4, 233, -1,
        261, 31, 167, -1,
        261, 167, 396, -1,
        69, 213, 139, -1,
        69, 139, 397, -1,
        69, 397, 325, -1,
        69, 325, 187, -1,
        69, 187, 182, -1,
        69, 182, 42, -1,
        174, 159, 213, -1,
        213, 159, 79, -1,
        213, 79, 353, -1,
        353, 79, 39, -1,
        353, 39, 411, -1,
        411, 39, 68, -1,
        411, 68, 17, -1,
        17, 68, 332, -1,
        17, 332, 278, -1,
        278, 332, 178, -1,
        278, 178, 146, -1,
        146, 178, 398, -1,
        146, 398, 55, -1,
        55, 398, 288, -1,
        55, 288, 336, -1,
        336, 288, 149, -1,
        336, 149, 211, -1,
        211, 149, 61, -1,
        211, 61, 27, -1,
        27, 61, 345, -1,
        27, 345, 292, -1,
        292, 345, 342, -1,
        292, 342, 381, -1,
        381, 342, 200, -1,
        381, 200, 271, -1,
        213, 353, 298, -1,
        213, 298, 340, -1,
        213, 340, 171, -1,
        213, 171, 21, -1,
        213, 21, 236, -1,
        213, 236, 139, -1,
        388, 10, 123, -1,
        388, 123, 34, -1,
        388, 34, 185, -1,
        388, 185, 379, -1,
        388, 379, 65, -1,
        388, 65, 121, -1,
        121, 65, 212, -1,
        121, 212, 299, -1,
        121, 299, 20, -1,
        121, 20, 174, -1,
        121, 174, 213, -1,
        121, 213, 194, -1,
        121, 194, 84, -1,
        28, 84, 194, -1,
        28, 194, 132, -1,
        238, 237, 291, -1,
        56, 107, 108, -1,
        400, 399, 33, -1,
        214, 256, 257, -1,
        413, 173, 355, -1,
        413, 355, 294, -1,
        413, 294, 107, -1,
        413, 107, 56, -1,
        413, 56, 291, -1,
        413, 291, 237, -1,
        413, 237, 53, -1,
        161, 335, 81, -1,
        161, 81, 37, -1,
        161, 37, 256, -1,
        161, 256, 214, -1,
        161, 214, 33, -1,
        161, 33, 399, -1,
        161, 399, 206, -1,
        190, 63, 65, -1,
        190, 65, 379, -1,
        190, 0, 305, -1,
        190, 305, 63, -1,
        0, 190, 318, -1,
        0, 318, 136, -1,
        179, 409, 136, -1,
        179, 136, 318, -1,
        382, 199, 265, -1,
        382, 265, 36, -1,
        199, 382, 141, -1,
        199, 141, 375, -1,
        375, 141, 137, -1,
        375, 137, 373, -1,
        259, 30, 158, -1,
        259, 158, 385, -1,
        24, 249, 385, -1,
        24, 385, 158, -1,
        41, 116, 293, -1,
        41, 293, 216, -1,
        288, 114, 137, -1,
        288, 137, 149, -1,
        137, 114, 357, -1,
        137, 357, 373, -1,
        30, 329, 336, -1,
        30, 336, 211, -1,
        30, 259, 150, -1,
        30, 150, 329, -1,
        41, 216, 390, -1,
        41, 390, 207, -1,
        207, 390, 387, -1,
        207, 387, 205, -1,
        139, 377, 387, -1,
        139, 387, 397, -1,
        387, 377, 193, -1,
        387, 193, 205, -1,
        288, 398, 402, -1,
        288, 402, 114, -1,
        217, 357, 114, -1,
        217, 114, 402, -1,
        139, 236, 242, -1,
        139, 242, 377, -1,
        64, 193, 377, -1,
        64, 377, 242, -1,
        131, 242, 236, -1,
        131, 236, 21, -1,
        370, 64, 242, -1,
        370, 242, 131, -1,
        253, 131, 21, -1,
        253, 21, 171, -1,
        70, 370, 131, -1,
        70, 131, 253, -1,
        222, 253, 171, -1,
        222, 171, 340, -1,
        52, 70, 253, -1,
        52, 253, 222, -1,
        146, 55, 313, -1,
        146, 313, 307, -1,
        130, 126, 307, -1,
        130, 307, 313, -1,
        336, 329, 313, -1,
        336, 313, 55, -1,
        329, 150, 130, -1,
        329, 130, 313, -1,
        398, 178, 283, -1,
        398, 283, 402, -1,
        104, 217, 402, -1,
        104, 402, 283, -1,
        172, 222, 340, -1,
        172, 340, 298, -1,
        172, 401, 52, -1,
        172, 52, 222, -1,
        298, 353, 290, -1,
        298, 290, 172, -1,
        353, 411, 4, -1,
        353, 4, 290, -1,
        17, 414, 4, -1,
        17, 4, 411, -1,
        414, 226, 233, -1,
        414, 233, 4, -1,
        278, 57, 414, -1,
        278, 414, 17, -1,
        57, 300, 226, -1,
        57, 226, 414, -1,
        146, 307, 57, -1,
        146, 57, 278, -1,
        307, 126, 300, -1,
        307, 300, 57, -1,
        410, 283, 178, -1,
        410, 178, 332, -1,
        223, 104, 283, -1,
        223, 283, 410, -1,
        386, 410, 332, -1,
        386, 332, 68, -1,
        204, 223, 410, -1,
        204, 410, 386, -1,
        334, 386, 68, -1,
        334, 68, 39, -1,
        334, 152, 204, -1,
        334, 204, 386, -1,
        79, 31, 334, -1,
        79, 334, 39, -1,
        79, 159, 167, -1,
        79, 167, 31, -1,
        174, 162, 167, -1,
        174, 167, 159, -1,
        162, 391, 396, -1,
        162, 396, 167, -1,
        20, 215, 162, -1,
        20, 162, 174, -1,
        215, 40, 391, -1,
        215, 391, 162, -1,
        299, 47, 215, -1,
        299, 215, 20, -1,
        47, 276, 40, -1,
        47, 40, 215, -1,
        212, 49, 47, -1,
        212, 47, 299, -1,
        49, 282, 276, -1,
        49, 276, 47, -1,
        65, 63, 49, -1,
        65, 49, 212, -1,
        63, 305, 282, -1,
        63, 282, 49, -1,
        168, 352, 383, -1,
        168, 383, 347, -1,
        81, 335, 168, -1,
        81, 168, 347, -1,
        250, 287, 347, -1,
        250, 347, 383, -1,
        37, 81, 347, -1,
        37, 347, 287, -1,
        287, 250, 6, -1,
        287, 6, 96, -1,
        96, 256, 37, -1,
        96, 37, 287, -1,
        8, 192, 218, -1,
        8, 218, 188, -1,
        355, 173, 8, -1,
        355, 8, 188, -1,
        188, 218, 98, -1,
        188, 98, 138, -1,
        294, 355, 188, -1,
        294, 188, 138, -1,
        138, 98, 268, -1,
        138, 268, 365, -1,
        365, 107, 294, -1,
        365, 294, 138, -1,
        274, 315, 77, -1,
        274, 77, 115, -1,
        237, 77, 315, -1,
        237, 315, 53, -1,
        315, 274, 153, -1,
        315, 153, 248, -1,
        413, 53, 315, -1,
        413, 315, 248, -1,
        192, 8, 248, -1,
        192, 248, 153, -1,
        173, 413, 248, -1,
        173, 248, 8, -1,
        107, 365, 367, -1,
        107, 367, 293, -1,
        107, 293, 116, -1,
        107, 116, 108, -1,
        367, 365, 268, -1,
        367, 268, 269, -1,
        367, 269, 224, -1,
        367, 224, 42, -1,
        367, 42, 182, -1,
        187, 216, 293, -1,
        187, 293, 367, -1,
        187, 367, 182, -1,
        325, 390, 216, -1,
        325, 216, 187, -1,
        397, 387, 390, -1,
        397, 390, 325, -1,
        158, 30, 211, -1,
        158, 211, 27, -1,
        27, 292, 24, -1,
        27, 24, 158, -1,
        19, 24, 292, -1,
        19, 292, 381, -1,
        19, 381, 82, -1,
        246, 249, 24, -1,
        246, 24, 19, -1,
        115, 77, 82, -1,
        115, 82, 381, -1,
        115, 381, 271, -1,
        115, 271, 120, -1,
        115, 120, 117, -1,
        256, 96, 99, -1,
        256, 99, 36, -1,
        256, 36, 265, -1,
        256, 265, 257, -1,
        246, 19, 82, -1,
        246, 82, 77, -1,
        246, 77, 237, -1,
        246, 237, 238, -1,
        99, 96, 6, -1,
        99, 6, 9, -1,
        99, 9, 389, -1,
        99, 389, 200, -1,
        99, 200, 342, -1,
        345, 382, 36, -1,
        345, 36, 99, -1,
        345, 99, 342, -1,
        61, 141, 382, -1,
        61, 382, 345, -1,
        61, 149, 137, -1,
        61, 137, 141, -1,
        318, 190, 379, -1,
        318, 379, 185, -1,
        179, 318, 185, -1,
        179, 185, 34, -1,
        175, 179, 34, -1,
        175, 34, 123, -1,
        175, 123, 232, -1,
        406, 409, 179, -1,
        406, 179, 175, -1,
        264, 229, 232, -1,
        264, 232, 123, -1,
        264, 123, 10, -1,
        264, 10, 270, -1,
        264, 270, 266, -1,
        406, 175, 232, -1,
        406, 232, 229, -1,
        406, 229, 399, -1,
        406, 399, 400, -1,
        15, 51, 229, -1,
        15, 229, 264, -1,
        399, 229, 51, -1,
        399, 51, 206, -1,
        51, 15, 309, -1,
        51, 309, 407, -1,
        161, 206, 51, -1,
        161, 51, 407, -1,
        352, 168, 407, -1,
        352, 407, 309, -1,
        335, 161, 407, -1,
        335, 407, 168, -1,
        359, 331, 12, -1,
        359, 12, 35, -1,
        404, 7, 266, -1,
        404, 266, 270, -1,
        120, 389, 9, -1,
        120, 9, 117, -1,
        93, 224, 269, -1,
        93, 269, 119, -1,
        10, 388, 404, -1,
        10, 404, 270, -1,
        271, 200, 389, -1,
        271, 389, 120, -1,
        69, 42, 224, -1,
        69, 224, 93, -1,
        392, 359, 35, -1,
        392, 35, 74, -1,
        95, 408, 392, -1,
        95, 392, 74, -1,
        383, 352, 260, -1,
        260, 352, 309, -1,
        260, 309, 361, -1,
        361, 309, 15, -1,
        361, 15, 351, -1,
        351, 15, 264, -1,
        351, 264, 7, -1,
        7, 264, 266, -1,
        218, 192, 110, -1,
        110, 192, 153, -1,
        110, 153, 196, -1,
        196, 153, 274, -1,
        196, 274, 191, -1,
        191, 274, 115, -1,
        191, 115, 260, -1,
        260, 115, 117, -1,
        260, 117, 9, -1,
        260, 9, 6, -1,
        260, 6, 250, -1,
        260, 250, 383, -1,
        110, 119, 269, -1,
        110, 269, 268, -1,
        110, 268, 98, -1,
        110, 98, 218, -1,
        95, 102, 191, -1,
        95, 191, 252, -1,
        95, 252, 351, -1,
        95, 351, 408, -1,
        408, 351, 7, -1,
        252, 191, 260, -1,
        361, 351, 338, -1,
        361, 338, 344, -1,
        361, 344, 328, -1,
        361, 328, 289, -1,
        361, 289, 227, -1,
        351, 73, 338, -1,
        338, 73, 71, -1,
        338, 71, 184, -1,
        184, 71, 80, -1,
        184, 80, 109, -1,
        134, 183, 184, -1,
        134, 184, 109, -1,
        252, 405, 73, -1,
        252, 73, 351, -1,
        260, 361, 227, -1,
        260, 227, 302, -1,
        260, 302, 105, -1,
        302, 227, 144, -1,
        196, 191, 177, -1,
        196, 177, 186, -1,
        196, 186, 170, -1,
        196, 170, 140, -1,
        196, 140, 75, -1,
        191, 346, 177, -1,
        177, 346, 343, -1,
        177, 343, 26, -1,
        26, 343, 354, -1,
        26, 354, 372, -1,
        384, 25, 26, -1,
        384, 26, 372, -1,
        102, 245, 346, -1,
        102, 346, 191, -1,
        110, 196, 75, -1,
        110, 75, 147, -1,
        110, 147, 371, -1,
        147, 75, 394, -1,
        240, 90, 16, -1,
        240, 16, 412, -1,
        240, 412, 403, -1,
        240, 403, 405, -1,
        240, 405, 260, -1,
        240, 260, 243, -1,
        260, 105, 103, -1,
        260, 103, 101, -1,
        260, 101, 243, -1,
        260, 405, 252, -1,
        16, 90, 46, -1,
        344, 338, 54, -1,
        240, 243, 230, -1,
        29, 101, 103, -1,
        29, 103, 183, -1,
        302, 184, 183, -1,
        302, 183, 103, -1,
        302, 103, 105, -1,
        101, 29, 230, -1,
        101, 230, 243, -1,
        184, 302, 144, -1,
        184, 144, 277, -1,
        184, 277, 166, -1,
        184, 166, 54, -1,
        184, 54, 338, -1,
        328, 344, 54, -1,
        328, 54, 166, -1,
        289, 328, 166, -1,
        289, 166, 277, -1,
        227, 289, 277, -1,
        227, 277, 144, -1,
        405, 403, 71, -1,
        405, 71, 73, -1,
        134, 46, 90, -1,
        134, 90, 29, -1,
        134, 29, 183, -1,
        80, 71, 403, -1,
        80, 403, 412, -1,
        109, 80, 412, -1,
        109, 412, 16, -1,
        134, 109, 16, -1,
        134, 16, 46, -1,
        186, 177, 320, -1,
        88, 92, 78, -1,
        285, 368, 369, -1,
        285, 369, 25, -1,
        147, 26, 25, -1,
        147, 25, 369, -1,
        147, 369, 371, -1,
        368, 285, 78, -1,
        368, 78, 92, -1,
        26, 147, 394, -1,
        26, 394, 127, -1,
        26, 127, 3, -1,
        26, 3, 320, -1,
        26, 320, 177, -1,
        170, 186, 320, -1,
        170, 320, 3, -1,
        140, 170, 3, -1,
        140, 3, 127, -1,
        75, 140, 127, -1,
        75, 127, 394, -1,
        245, 244, 343, -1,
        245, 343, 346, -1,
        384, 306, 363, -1,
        384, 363, 285, -1,
        384, 285, 25, -1,
        354, 343, 244, -1,
        354, 244, 255, -1,
        372, 354, 255, -1,
        372, 255, 275, -1,
        384, 372, 275, -1,
        384, 275, 306, -1,
        90, 240, 230, -1,
        90, 230, 29, -1,
        363, 88, 78, -1,
        363, 78, 285, -1,
        201, 197, 301, -1,
        201, 301, 304, -1,
        181, 157, 327, -1,
        181, 327, 362, -1,
        341, 317, 62, -1,
        341, 62, 87, -1,
        203, 296, 176, -1,
        176, 296, 324, -1,
        176, 324, 360, -1,
        360, 324, 310, -1,
        360, 310, 362, -1,
        362, 310, 314, -1,
        362, 314, 337, -1,
        337, 314, 376, -1,
        337, 376, 378, -1,
        376, 314, 48, -1,
        48, 314, 60, -1,
        48, 60, 50, -1,
        50, 60, 86, -1,
        50, 86, 337, -1,
        156, 324, 295, -1,
        156, 295, 202, -1,
        156, 202, 176, -1,
        156, 176, 198, -1,
        156, 198, 155, -1,
        155, 198, 195, -1,
        155, 195, 165, -1,
        155, 165, 163, -1,
        203, 176, 202, -1,
        198, 176, 181, -1,
        295, 324, 296, -1,
        50, 337, 378, -1,
        362, 337, 341, -1,
        310, 324, 323, -1,
        301, 197, 58, -1,
        301, 58, 310, -1,
        301, 310, 323, -1,
        301, 323, 155, -1,
        301, 155, 163, -1,
        314, 310, 279, -1,
        314, 279, 247, -1,
        314, 247, 225, -1,
        314, 225, 219, -1,
        314, 219, 220, -1,
        337, 251, 254, -1,
        337, 254, 262, -1,
        337, 262, 284, -1,
        337, 284, 317, -1,
        337, 317, 341, -1,
        314, 220, 18, -1,
        314, 18, 60, -1,
        220, 219, 22, -1,
        220, 22, 18, -1,
        58, 38, 279, -1,
        58, 279, 310, -1,
        14, 22, 219, -1,
        14, 219, 225, -1,
        5, 14, 225, -1,
        5, 225, 247, -1,
        38, 5, 247, -1,
        38, 247, 279, -1,
        254, 251, 11, -1,
        254, 11, 13, -1,
        86, 11, 251, -1,
        86, 251, 337, -1,
        43, 62, 317, -1,
        43, 317, 284, -1,
        23, 43, 284, -1,
        23, 284, 262, -1,
        13, 23, 262, -1,
        13, 262, 254, -1,
        297, 323, 324, -1,
        297, 324, 235, -1,
        297, 235, 234, -1,
        297, 234, 241, -1,
        297, 241, 267, -1,
        272, 360, 362, -1,
        272, 362, 327, -1,
        272, 327, 303, -1,
        272, 303, 280, -1,
        272, 280, 273, -1,
        156, 155, 128, -1,
        156, 128, 94, -1,
        156, 94, 72, -1,
        156, 72, 66, -1,
        156, 66, 67, -1,
        176, 100, 106, -1,
        176, 106, 112, -1,
        176, 112, 133, -1,
        176, 133, 157, -1,
        176, 157, 181, -1,
        156, 67, 235, -1,
        156, 235, 324, -1,
        67, 66, 234, -1,
        67, 234, 235, -1,
        323, 297, 128, -1,
        323, 128, 155, -1,
        241, 234, 66, -1,
        241, 66, 72, -1,
        267, 241, 72, -1,
        267, 72, 94, -1,
        297, 267, 94, -1,
        297, 94, 128, -1,
        106, 100, 272, -1,
        106, 272, 273, -1,
        360, 272, 100, -1,
        360, 100, 176, -1,
        303, 327, 157, -1,
        303, 157, 133, -1,
        280, 303, 133, -1,
        280, 133, 112, -1,
        273, 280, 112, -1,
        273, 112, 106, -1,
        210, 201, 304, -1,
        210, 304, 319, -1,
        221, 210, 319, -1,
        221, 319, 339, -1,
        151, 221, 339, -1,
        151, 339, 239, -1,
        164, 151, 239, -1,
        164, 239, 263, -1,
        180, 164, 263, -1,
        180, 263, 281, -1,
        395, 366, 380, -1,
        380, 366, 1, -1,
        380, 1, 364, -1,
        364, 1, 32, -1,
        364, 32, 358, -1,
        358, 32, 2, -1,
        358, 2, 356, -1,
        2, 32, 312, -1,
        2, 312, 330, -1,
        2, 330, 349, -1,
        2, 349, 333, -1,
        2, 333, 316, -1,
        2, 316, 393, -1,
        59, 321, 231, -1,
        231, 321, 322, -1,
        231, 322, 258, -1,
        258, 322, 393, -1,
        258, 393, 316, -1,
        231, 160, 91, -1,
        231, 91, 76, -1,
        231, 76, 59, -1,
        59, 154, 321, -1,
        321, 154, 135, -1,
        321, 135, 326, -1,
        326, 135, 122, -1,
        326, 122, 348, -1,
        348, 122, 113, -1,
        348, 113, 374, -1,
        91, 160, 97, -1,
        304, 301, 113, -1,
        304, 113, 122, -1,
        195, 124, 356, -1,
        195, 356, 2, -1,
        213, 69, 312, -1,
        213, 312, 32, -1,
        129, 148, 380, -1,
        129, 380, 364, -1,
        125, 129, 364, -1,
        125, 364, 358, -1,
        358, 356, 124, -1,
        358, 124, 125, -1,
        194, 213, 32, -1,
        194, 32, 1, -1,
        132, 194, 1, -1,
        132, 1, 366, -1,
        198, 132, 366, -1,
        198, 366, 395, -1,
        198, 395, 169, -1,
        148, 169, 395, -1,
        148, 395, 380, -1,
        393, 322, 85, -1,
        393, 85, 165, -1,
        322, 321, 83, -1,
        322, 83, 85, -1,
        89, 83, 321, -1,
        89, 321, 326, -1,
        118, 89, 326, -1,
        118, 326, 348, -1,
        145, 118, 348, -1,
        145, 348, 374, -1,
        163, 145, 374, -1,
        163, 374, 113, -1,
        163, 113, 301, -1,
        2, 393, 165, -1,
        2, 165, 195, -1,
        239, 339, 154, -1,
        239, 154, 59, -1,
        160, 231, 12, -1,
        160, 12, 350, -1,
        93, 119, 349, -1,
        93, 349, 330, -1,
        69, 93, 330, -1,
        69, 330, 312, -1,
        35, 12, 231, -1,
        35, 231, 258, -1,
        74, 35, 258, -1,
        74, 258, 316, -1,
        95, 74, 316, -1,
        95, 316, 333, -1,
        333, 349, 119, -1,
        333, 119, 110, -1,
        333, 110, 102, -1,
        333, 102, 95, -1,
        286, 281, 91, -1,
        286, 91, 97, -1,
        350, 286, 97, -1,
        350, 97, 160, -1,
        319, 304, 122, -1,
        319, 122, 135, -1,
        339, 319, 135, -1,
        339, 135, 154, -1,
        263, 239, 59, -1,
        263, 59, 76, -1,
        281, 263, 76, -1,
        281, 76, 91, -1
          ]
      normalIndex
      [
5, 5, 5, -1,
        5, 5, 5, -1,
        5, 5, 5, -1,
        5, 5, 5, -1,
        5, 5, 5, -1,
        5, 5, 5, -1,
        5, 5, 5, -1,
        5, 5, 5, -1,
        5, 5, 5, -1,
        5, 5, 5, -1,
        5, 5, 5, -1,
        5, 5, 5, -1,
        5, 5, 5, -1,
        5, 5, 5, -1,
        5, 5, 5, -1,
        5, 5, 5, -1,
        5, 5, 5, -1,
        5, 5, 5, -1,
        5, 5, 5, -1,
        5, 5, 5, -1,
        5, 5, 5, -1,
        5, 5, 5, -1,
        5, 5, 5, -1,
        5, 5, 5, -1,
        5, 5, 5, -1,
        5, 5, 5, -1,
        5, 5, 5, -1,
        5, 5, 5, -1,
        5, 5, 5, -1,
        5, 5, 5, -1,
        5, 5, 5, -1,
        4, 4, 4, -1,
        4, 4, 4, -1,
        4, 4, 4, -1,
        4, 4, 4, -1,
        4, 4, 4, -1,
        4, 4, 4, -1,
        4, 4, 4, -1,
        4, 4, 4, -1,
        4, 4, 4, -1,
        4, 4, 4, -1,
        4, 4, 4, -1,
        5, 5, 5, -1,
        5, 5, 5, -1,
        5, 5, 5, -1,
        5, 5, 5, -1,
        5, 5, 5, -1,
        5, 5, 5, -1,
        5, 5, 5, -1,
        5, 5, 5, -1,
        5, 5, 5, -1,
        5, 5, 5, -1,
        69, 60, 60, -1,
        69, 60, 69, -1,
        21, 21, 21, -1,
        21, 21, 21, -1,
        2, 2, 2, -1,
        2, 2, 2, -1,
        2, 2, 2, -1,
        2, 2, 2, -1,
        2, 2, 2, -1,
        1, 1, 1, -1,
        1, 1, 1, -1,
        48, 48, 48, -1,
        48, 48, 48, -1,
        48, 48, 48, -1,
        48, 48, 48, -1,
        48, 48, 48, -1,
        48, 48, 48, -1,
        48, 48, 48, -1,
        48, 48, 48, -1,
        48, 48, 48, -1,
        48, 48, 48, -1,
        48, 48, 48, -1,
        48, 48, 48, -1,
        48, 48, 48, -1,
        48, 48, 48, -1,
        48, 48, 48, -1,
        48, 48, 48, -1,
        48, 48, 48, -1,
        48, 48, 48, -1,
        48, 48, 48, -1,
        48, 48, 48, -1,
        48, 48, 48, -1,
        48, 48, 48, -1,
        48, 48, 48, -1,
        48, 48, 48, -1,
        48, 48, 48, -1,
        48, 48, 48, -1,
        48, 48, 48, -1,
        48, 48, 48, -1,
        48, 48, 48, -1,
        48, 48, 48, -1,
        48, 48, 48, -1,
        48, 48, 48, -1,
        48, 48, 48, -1,
        48, 48, 48, -1,
        48, 48, 48, -1,
        48, 48, 48, -1,
        48, 48, 48, -1,
        48, 48, 48, -1,
        48, 48, 48, -1,
        48, 48, 48, -1,
        48, 48, 48, -1,
        48, 48, 48, -1,
        48, 48, 48, -1,
        48, 48, 48, -1,
        48, 48, 48, -1,
        48, 48, 48, -1,
        46, 26, 26, -1,
        46, 26, 46, -1,
        46, 26, 26, -1,
        46, 26, 46, -1,
        46, 46, 8, -1,
        46, 8, 8, -1,
        46, 46, 8, -1,
        46, 8, 8, -1,
        48, 48, 48, -1,
        48, 48, 48, -1,
        48, 48, 48, -1,
        48, 48, 48, -1,
        48, 48, 48, -1,
        48, 48, 48, -1,
        48, 48, 48, -1,
        48, 48, 48, -1,
        48, 48, 48, -1,
        48, 48, 48, -1,
        48, 48, 48, -1,
        48, 48, 48, -1,
        48, 48, 48, -1,
        48, 48, 48, -1,
        48, 48, 48, -1,
        48, 48, 48, -1,
        48, 48, 48, -1,
        48, 48, 48, -1,
        48, 48, 48, -1,
        48, 48, 48, -1,
        48, 48, 48, -1,
        48, 48, 48, -1,
        48, 48, 48, -1,
        48, 48, 48, -1,
        48, 48, 48, -1,
        48, 48, 48, -1,
        48, 48, 48, -1,
        48, 48, 48, -1,
        48, 48, 48, -1,
        48, 48, 48, -1,
        48, 48, 48, -1,
        48, 48, 48, -1,
        48, 48, 48, -1,
        48, 48, 48, -1,
        48, 48, 48, -1,
        48, 48, 48, -1,
        48, 48, 48, -1,
        48, 48, 48, -1,
        48, 48, 48, -1,
        48, 48, 48, -1,
        48, 48, 48, -1,
        48, 48, 48, -1,
        48, 48, 48, -1,
        48, 48, 48, -1,
        48, 48, 48, -1,
        48, 48, 48, -1,
        48, 48, 48, -1,
        48, 48, 48, -1,
        42, 42, 27, -1,
        42, 27, 27, -1,
        18, 27, 27, -1,
        18, 27, 18, -1,
        72, 72, 72, -1,
        72, 72, 72, -1,
        72, 72, 72, -1,
        72, 72, 72, -1,
        72, 72, 72, -1,
        72, 72, 72, -1,
        72, 72, 72, -1,
        72, 72, 72, -1,
        72, 72, 72, -1,
        72, 72, 72, -1,
        72, 72, 72, -1,
        72, 72, 72, -1,
        72, 72, 72, -1,
        72, 72, 72, -1,
        72, 72, 72, -1,
        72, 72, 72, -1,
        72, 72, 72, -1,
        72, 72, 72, -1,
        44, 45, 45, -1,
        44, 45, 44, -1,
        39, 39, 58, -1,
        39, 58, 58, -1,
        39, 39, 20, -1,
        39, 20, 20, -1,
        53, 53, 20, -1,
        53, 20, 20, -1,
        12, 12, 54, -1,
        12, 54, 54, -1,
        12, 12, 74, -1,
        12, 74, 74, -1,
        74, 74, 64, -1,
        74, 64, 64, -1,
        39, 39, 20, -1,
        39, 20, 20, -1,
        53, 53, 20, -1,
        53, 20, 20, -1,
        12, 54, 54, -1,
        12, 54, 12, -1,
        13, 13, 30, -1,
        13, 30, 30, -1,
        64, 57, 57, -1,
        64, 57, 64, -1,
        44, 45, 45, -1,
        44, 45, 44, -1,
        39, 39, 58, -1,
        39, 58, 58, -1,
        12, 12, 74, -1,
        12, 74, 74, -1,
        74, 74, 64, -1,
        74, 64, 64, -1,
        13, 13, 30, -1,
        13, 30, 30, -1,
        64, 57, 57, -1,
        64, 57, 64, -1,
        13, 9, 9, -1,
        13, 9, 13, -1,
        38, 57, 57, -1,
        38, 57, 38, -1,
        13, 9, 9, -1,
        13, 9, 13, -1,
        38, 57, 57, -1,
        38, 57, 38, -1,
        41, 9, 9, -1,
        41, 9, 41, -1,
        19, 38, 38, -1,
        19, 38, 19, -1,
        36, 41, 41, -1,
        36, 41, 36, -1,
        52, 19, 19, -1,
        52, 19, 52, -1,
        76, 36, 36, -1,
        76, 36, 76, -1,
        87, 52, 52, -1,
        87, 52, 87, -1,
        10, 70, 70, -1,
        10, 70, 10, -1,
        63, 73, 73, -1,
        63, 73, 63, -1,
        45, 45, 70, -1,
        45, 70, 70, -1,
        58, 58, 63, -1,
        58, 63, 63, -1,
        9, 41, 41, -1,
        9, 41, 9, -1,
        19, 38, 38, -1,
        19, 38, 19, -1,
        3, 76, 76, -1,
        3, 76, 3, -1,
        26, 26, 87, -1,
        26, 87, 87, -1,
        3, 62, 62, -1,
        3, 62, 3, -1,
        62, 14, 14, -1,
        62, 14, 62, -1,
        77, 77, 14, -1,
        77, 14, 14, -1,
        75, 75, 8, -1,
        75, 8, 8, -1,
        22, 22, 77, -1,
        22, 77, 77, -1,
        11, 11, 75, -1,
        11, 75, 75, -1,
        10, 10, 22, -1,
        10, 22, 22, -1,
        73, 73, 11, -1,
        73, 11, 11, -1,
        36, 41, 41, -1,
        36, 41, 36, -1,
        52, 19, 19, -1,
        52, 19, 52, -1,
        76, 36, 36, -1,
        76, 36, 76, -1,
        87, 52, 52, -1,
        87, 52, 87, -1,
        3, 76, 76, -1,
        3, 76, 3, -1,
        26, 26, 87, -1,
        26, 87, 87, -1,
        62, 62, 3, -1,
        62, 3, 3, -1,
        62, 14, 14, -1,
        62, 14, 62, -1,
        77, 77, 14, -1,
        77, 14, 14, -1,
        75, 75, 8, -1,
        75, 8, 8, -1,
        22, 22, 77, -1,
        22, 77, 77, -1,
        11, 11, 75, -1,
        11, 75, 75, -1,
        10, 10, 22, -1,
        10, 22, 22, -1,
        73, 73, 11, -1,
        73, 11, 11, -1,
        70, 70, 10, -1,
        70, 10, 10, -1,
        63, 63, 73, -1,
        63, 73, 73, -1,
        45, 45, 70, -1,
        45, 70, 70, -1,
        58, 58, 63, -1,
        58, 63, 63, -1,
        28, 28, 29, -1,
        28, 29, 29, -1,
        49, 0, 0, -1,
        49, 0, 49, -1,
        81, 81, 29, -1,
        81, 29, 29, -1,
        6, 49, 49, -1,
        6, 49, 6, -1,
        81, 81, 85, -1,
        81, 85, 85, -1,
        89, 89, 6, -1,
        89, 6, 6, -1,
        28, 28, 29, -1,
        28, 29, 29, -1,
        49, 0, 0, -1,
        49, 0, 49, -1,
        29, 29, 81, -1,
        29, 81, 81, -1,
        6, 49, 49, -1,
        6, 49, 6, -1,
        81, 81, 85, -1,
        81, 85, 85, -1,
        89, 89, 6, -1,
        89, 6, 6, -1,
        23, 23, 40, -1,
        23, 40, 40, -1,
        90, 90, 7, -1,
        90, 7, 7, -1,
        23, 23, 83, -1,
        23, 83, 83, -1,
        50, 7, 7, -1,
        50, 7, 50, -1,
        28, 28, 83, -1,
        28, 83, 83, -1,
        0, 50, 50, -1,
        0, 50, 0, -1,
        5, 5, 5, -1,
        5, 5, 5, -1,
        5, 5, 5, -1,
        5, 5, 5, -1,
        35, 35, 35, -1,
        35, 35, 35, -1,
        35, 35, 35, -1,
        35, 35, 35, -1,
        35, 35, 35, -1,
        88, 88, 80, -1,
        88, 80, 80, -1,
        88, 80, 80, -1,
        82, 82, 88, -1,
        82, 88, 88, -1,
        30, 30, 82, -1,
        30, 82, 82, -1,
        79, 44, 44, -1,
        79, 44, 79, -1,
        79, 78, 78, -1,
        79, 78, 79, -1,
        43, 78, 78, -1,
        43, 78, 43, -1,
        43, 43, 43, -1,
        84, 53, 53, -1,
        84, 53, 84, -1,
        86, 86, 86, -1,
        86, 86, 86, -1,
        86, 86, 86, -1,
        86, 86, 86, -1,
        86, 86, 86, -1,
        5, 5, 5, -1,
        5, 5, 5, -1,
        5, 5, 5, -1,
        5, 5, 5, -1,
        4, 4, 4, -1,
        4, 4, 4, -1,
        4, 4, 4, -1,
        4, 4, 4, -1,
        35, 35, 35, -1,
        35, 35, 35, -1,
        35, 35, 35, -1,
        35, 35, 35, -1,
        35, 35, 35, -1,
        88, 88, 80, -1,
        88, 80, 80, -1,
        88, 80, 80, -1,
        82, 82, 88, -1,
        82, 88, 88, -1,
        82, 30, 30, -1,
        82, 30, 82, -1,
        79, 44, 44, -1,
        79, 44, 79, -1,
        78, 79, 79, -1,
        78, 79, 78, -1,
        43, 78, 78, -1,
        43, 78, 43, -1,
        43, 43, 43, -1,
        84, 53, 53, -1,
        84, 53, 84, -1,
        86, 86, 86, -1,
        86, 86, 86, -1,
        86, 86, 86, -1,
        86, 86, 86, -1,
        86, 86, 86, -1,
        4, 4, 4, -1,
        4, 4, 4, -1,
        4, 4, 4, -1,
        4, 4, 4, -1,
        23, 23, 40, -1,
        23, 40, 40, -1,
        90, 90, 7, -1,
        90, 7, 7, -1,
        23, 23, 83, -1,
        23, 83, 83, -1,
        50, 7, 7, -1,
        50, 7, 50, -1,
        28, 28, 83, -1,
        28, 83, 83, -1,
        0, 50, 50, -1,
        0, 50, 0, -1,
        37, 25, 25, -1,
        37, 25, 37, -1,
        61, 68, 68, -1,
        61, 68, 61, -1,
        61, 61, 68, -1,
        61, 68, 68, -1,
        61, 61, 68, -1,
        61, 68, 68, -1,
        51, 51, 61, -1,
        51, 61, 61, -1,
        51, 51, 61, -1,
        51, 61, 61, -1,
        51, 51, 61, -1,
        51, 61, 61, -1,
        56, 37, 37, -1,
        56, 37, 56, -1,
        67, 67, 56, -1,
        67, 56, 56, -1,
        72, 72, 72, -1,
        72, 72, 72, -1,
        72, 72, 72, -1,
        72, 72, 72, -1,
        72, 72, 72, -1,
        72, 72, 72, -1,
        72, 72, 72, -1,
        72, 72, 72, -1,
        72, 72, 72, -1,
        72, 72, 72, -1,
        72, 72, 72, -1,
        72, 72, 72, -1,
        72, 72, 72, -1,
        72, 72, 72, -1,
        72, 72, 72, -1,
        72, 72, 72, -1,
        72, 72, 72, -1,
        72, 72, 72, -1,
        72, 72, 72, -1,
        72, 72, 72, -1,
        72, 72, 72, -1,
        72, 72, 72, -1,
        72, 72, 72, -1,
        72, 72, 72, -1,
        72, 72, 72, -1,
        72, 72, 72, -1,
        72, 72, 72, -1,
        72, 72, 72, -1,
        72, 72, 72, -1,
        72, 72, 72, -1,
        5, 5, 5, -1,
        5, 5, 5, -1,
        5, 5, 5, -1,
        5, 5, 5, -1,
        5, 5, 5, -1,
        5, 5, 5, -1,
        5, 5, 5, -1,
        5, 5, 5, -1,
        5, 5, 5, -1,
        5, 5, 5, -1,
        5, 5, 5, -1,
        5, 5, 5, -1,
        1, 1, 1, -1,
        1, 1, 1, -1,
        2, 2, 2, -1,
        2, 2, 2, -1,
        2, 2, 2, -1,
        2, 2, 2, -1,
        5, 5, 5, -1,
        5, 5, 5, -1,
        5, 5, 5, -1,
        5, 5, 5, -1,
        5, 5, 5, -1,
        5, 5, 5, -1,
        5, 5, 5, -1,
        5, 5, 5, -1,
        5, 5, 5, -1,
        5, 5, 5, -1,
        5, 5, 5, -1,
        5, 5, 5, -1,
        1, 1, 1, -1,
        1, 1, 1, -1,
        2, 2, 2, -1,
        2, 2, 2, -1,
        2, 2, 2, -1,
        2, 2, 2, -1,
        4, 4, 4, -1,
        4, 4, 4, -1,
        4, 4, 4, -1,
        4, 4, 4, -1,
        4, 4, 4, -1,
        4, 4, 4, -1,
        4, 4, 4, -1,
        4, 4, 4, -1,
        4, 4, 4, -1,
        4, 4, 4, -1,
        4, 4, 4, -1,
        72, 72, 72, -1,
        72, 72, 72, -1,
        72, 72, 72, -1,
        72, 72, 72, -1,
        72, 72, 72, -1,
        72, 72, 72, -1,
        72, 72, 72, -1,
        65, 65, 65, -1,
        65, 65, 65, -1,
        24, 24, 24, -1,
        24, 24, 24, -1,
        24, 24, 24, -1,
        24, 24, 24, -1,
        24, 24, 24, -1,
        59, 68, 68, -1,
        59, 68, 59, -1,
        34, 59, 59, -1,
        34, 59, 34, -1,
        18, 34, 34, -1,
        18, 34, 18, -1,
        71, 71, 71, -1,
        71, 71, 71, -1,
        1, 1, 1, -1,
        1, 1, 1, -1,
        1, 1, 1, -1,
        60, 69, 69, -1,
        60, 69, 60, -1,
        33, 60, 60, -1,
        33, 60, 33, -1,
        17, 33, 33, -1,
        17, 33, 17, -1,
        72, 72, 72, -1,
        72, 72, 72, -1,
        72, 72, 72, -1,
        72, 72, 72, -1,
        72, 72, 72, -1,
        72, 72, 72, -1,
        72, 72, 72, -1,
        65, 65, 65, -1,
        65, 65, 65, -1,
        24, 24, 24, -1,
        24, 24, 24, -1,
        24, 24, 24, -1,
        24, 24, 24, -1,
        24, 24, 24, -1,
        59, 68, 68, -1,
        59, 68, 59, -1,
        34, 59, 59, -1,
        34, 59, 34, -1,
        18, 34, 34, -1,
        18, 34, 18, -1,
        71, 71, 71, -1,
        71, 71, 71, -1,
        1, 1, 1, -1,
        1, 1, 1, -1,
        1, 1, 1, -1,
        60, 69, 69, -1,
        60, 69, 60, -1,
        33, 60, 60, -1,
        33, 60, 33, -1,
        17, 33, 33, -1,
        17, 33, 17, -1,
        47, 47, 47, -1,
        47, 47, 47, -1,
        47, 47, 47, -1,
        47, 47, 47, -1,
        56, 67, 67, -1,
        56, 67, 56, -1,
        2, 2, 2, -1,
        2, 2, 2, -1,
        2, 2, 2, -1,
        2, 2, 2, -1,
        71, 71, 71, -1,
        71, 71, 71, -1,
        71, 71, 71, -1,
        71, 71, 71, -1,
        71, 71, 71, -1,
        71, 71, 71, -1,
        71, 71, 71, -1,
        71, 71, 71, -1,
        71, 71, 71, -1,
        71, 71, 71, -1,
        71, 71, 71, -1,
        71, 71, 71, -1,
        71, 71, 71, -1,
        71, 71, 71, -1,
        71, 71, 71, -1,
        71, 71, 71, -1,
        71, 71, 71, -1,
        71, 71, 71, -1,
        71, 71, 71, -1,
        71, 71, 71, -1,
        71, 71, 71, -1,
        71, 71, 71, -1,
        71, 71, 71, -1,
        71, 71, 71, -1,
        71, 71, 71, -1,
        71, 71, 71, -1,
        71, 71, 71, -1,
        71, 71, 71, -1,
        1, 1, 1, -1,
        1, 1, 1, -1,
        1, 1, 1, -1,
        1, 1, 1, -1,
        1, 1, 1, -1,
        4, 4, 4, -1,
        4, 4, 4, -1,
        4, 4, 4, -1,
        4, 4, 4, -1,
        4, 4, 4, -1,
        4, 4, 4, -1,
        4, 4, 4, -1,
        4, 4, 4, -1,
        4, 4, 4, -1,
        4, 4, 4, -1,
        2, 2, 2, -1,
        2, 2, 2, -1,
        71, 71, 71, -1,
        71, 71, 71, -1,
        1, 1, 1, -1,
        1, 1, 1, -1,
        60, 69, 69, -1,
        60, 69, 60, -1,
        33, 60, 60, -1,
        33, 60, 33, -1,
        17, 33, 33, -1,
        17, 33, 17, -1,
        71, 71, 71, -1,
        71, 71, 71, -1,
        1, 1, 1, -1,
        1, 1, 1, -1,
        32, 16, 16, -1,
        32, 16, 32, -1,
        55, 32, 32, -1,
        55, 32, 55, -1,
        66, 55, 55, -1,
        66, 55, 66, -1,
        5, 5, 5, -1,
        5, 5, 5, -1,
        5, 5, 5, -1,
        5, 5, 5, -1,
        5, 5, 5, -1,
        5, 5, 5, -1,
        5, 5, 5, -1,
        5, 5, 5, -1,
        5, 5, 5, -1,
        5, 5, 5, -1,
        4, 4, 4, -1,
        4, 4, 4, -1,
        4, 4, 4, -1,
        4, 4, 4, -1,
        4, 4, 4, -1,
        4, 4, 4, -1,
        4, 4, 4, -1,
        4, 4, 4, -1,
        4, 4, 4, -1,
        4, 4, 4, -1,
        2, 2, 2, -1,
        2, 2, 2, -1,
        71, 71, 71, -1,
        71, 71, 71, -1,
        1, 1, 1, -1,
        1, 1, 1, -1,
        60, 69, 69, -1,
        60, 69, 60, -1,
        33, 60, 60, -1,
        33, 60, 33, -1,
        17, 33, 33, -1,
        17, 33, 17, -1,
        71, 71, 71, -1,
        71, 71, 71, -1,
        1, 1, 1, -1,
        1, 1, 1, -1,
        32, 16, 16, -1,
        32, 16, 32, -1,
        55, 32, 32, -1,
        55, 32, 55, -1,
        66, 55, 55, -1,
        66, 55, 66, -1,
        31, 56, 56, -1,
        31, 56, 31, -1,
        15, 31, 31, -1,
        15, 31, 15, -1,
        1, 1, 1, -1,
        1, 1, 1, -1,
        33, 17, 17, -1,
        33, 17, 33, -1,
        60, 33, 33, -1,
        60, 33, 60, -1,
        4, 4, 4, -1,
        4, 4, 4, -1,
        4, 4, 4, -1,
        4, 4, 4, -1,
        4, 4, 4, -1,
        4, 4, 4, -1,
        4, 4, 4, -1,
        4, 4, 4, -1,
        4, 4, 4, -1,
        4, 4, 4, -1,
        4, 4, 4, -1,
        4, 4, 4, -1,
        4, 4, 4, -1,
        4, 4, 4, -1,
        4, 4, 4, -1,
        4, 4, 4, -1,
        4, 4, 4, -1,
        4, 4, 4, -1,
        4, 4, 4, -1,
        4, 4, 4, -1,
        4, 4, 4, -1,
        4, 4, 4, -1,
        4, 4, 4, -1,
        4, 4, 4, -1,
        4, 4, 4, -1,
        4, 4, 4, -1,
        4, 4, 4, -1,
        4, 4, 4, -1,
        4, 4, 4, -1,
        56, 67, 67, -1,
        56, 67, 56, -1,
        1, 1, 1, -1,
        1, 1, 1, -1,
        48, 48, 48, -1,
        48, 48, 48, -1,
        55, 32, 32, -1,
        55, 32, 55, -1,
        66, 55, 55, -1,
        66, 55, 66, -1,
        71, 71, 71, -1,
        71, 71, 71, -1,
        27, 42, 42, -1,
        27, 42, 27, -1,
        18, 27, 27, -1,
        18, 27, 18, -1,
        2, 2, 2, -1,
        2, 2, 2, -1,
        2, 2, 2, -1,
        32, 16, 16, -1,
        32, 16, 32, -1,
        2, 2, 2, -1,
        2, 2, 2, -1,
        71, 71, 71, -1,
        71, 71, 71, -1,
        60, 69, 69, -1,
        60, 69, 60, -1,
        33, 60, 60, -1,
        33, 60, 33, -1,
        17, 33, 33, -1,
        17, 33, 17, -1,
        1, 1, 1, -1,
        1, 1, 1, -1,
        1, 1, 1, -1,
        71, 71, 71, -1,
        71, 71, 71, -1,
        1, 1, 1, -1,
        1, 1, 1, -1,
        21, 21, 21, -1,
        21, 21, 21, -1,
        61, 68, 68, -1,
        61, 68, 61, -1,
        51, 61, 61, -1,
        51, 61, 51, -1,
        37, 25, 25, -1,
        37, 25, 37, -1,
        56, 37, 37, -1,
        56, 37, 56, -1,
        67, 56, 56, -1,
        67, 56, 67, -1,
        72, 72, 72, -1,
        72, 72, 72, -1,
        72, 72, 72, -1,
        72, 72, 72, -1,
        69, 60, 60, -1,
        69, 60, 69, -1,
        1, 1, 1, -1,
        1, 1, 1, -1,
        31, 56, 56, -1,
        31, 56, 31, -1,
        15, 31, 31, -1,
        15, 31, 15, -1,
        33, 17, 17, -1,
        33, 17, 33, -1,
        60, 33, 33, -1,
        60, 33, 60, -1
              ]
      }
    }
  }
,
Shape 
{
  Node_info
  {
    fields [SFString node_type, SFString node_name]
    node_type "Poly_Geom_Data"
    node_name ""
  }

    Material
    {
      ambientColor [0.78 0.78 0.78]
      diffuseColor [0.78 0.78 0.78]
      specularColor [0.8 0.8 0.8]
      shininess [0.5]
      transparency [0.00]
    }

  Coordinate3
  {
    point
    [
      0.164821 9.21386 0.301111, 4.63301 6.84289 8.5, 
      3.9 0.3 8.5, -2.7 13.0464 6.24342, 
      2.17097 8.62193 4.86177, -7.27321 0.1 0, 
      -0.55 11.5 2.9, -0.207107 11.5 0, 
      -1.35 10.8 5.25, -0.207107 11.5 2.9, 
      0.146447 11.3536 0.673223, 3.9 0 0, 
      -6.58261 11.171 7, 4.5 0 0, 
      -7.2 0.0267949 0, -1.125 11.5 0.754071, 
      -5.27321 12.2 3.5, 2.54103 8.95897 4.4, 
      -6.5 0 0, 0.255017 10.5379 4.45, 
      2.35 9.15 0.547918, 2.10104 9.39896 6.72224, 
      -7.1 0 0, 4.6 0.0267949 0, 
      0.396447 10.3964 4.18934, -5.3 12.5 4.3, 
      -5.15858 12.5 4.3, 0.898959 10.601 3.77776, 
      4.7 6.59289 0, -5.3 12.5 0.941421, 
      0.871928 9.92097 3.80111, 2.20711 8.58579 1.75, 
      4.55355 6.94645 8.5, -0.42132 9.8 0.98448, 
      0.65 10.85 0.547918, -6.54578 11.25 7, 
      0.255017 10.5379 2.55, -0.95 9.8 2.44282, 
      -7.3 0.2 0, 2.66112 8.83888 2.18999, 
      1.18934 8.18934 0.68934, -0.31066 9.68934 6.31066, 
      0.146447 11.3536 6.32678, 4.6732 0.1 0, 
      -5.2 -3.6 5.625, -4.8 -3.6 5.625, 
      -5.3 12.3 3.5, 1.67678 9.11612 0.450962, 
      -0.2 0.3 1.375, 1.42097 9.37193 0.301111, 
      0.2 0.3 1.375, -0.95 10.8 1.05718, 
      1.3579 8.02078 6, -0.95 9.8 4.55718, 
      -2.9 13.1 2.49289, 1.81112 9.68888 3.60793, 
      -0.42132 9.8 6.01552, 1.89645 8.89645 4.18934, 
      -7.3 0.3 0, -7.15 5.55 8.5, 
      -6.5 0.3 0, 0.898959 10.601 3.22224, 
      4.7 0.2 0, 1.14645 9.64645 0.25, 
      0.713859 8.66482 6.69889, 1.5 10 0.05, 
      -7.1 0 6, -6.5 0 6, 
      2.54103 8.95897 2.6, 0.146447 11.3536 7, 
      1.18934 8.18934 6.31066, -5.1 12.1 0.8, 
      -7.2 0.0267949 6, -4.8 12.1 0.8, 
      -6.36276 11.433 7, -2.5 12.7 4.3, 
      -7.1701 5.625 8.5, -0.55 10.8 4.45, 
      -4.7 13.1 5.60711, 2.70208 8.79792 1.75, 
      -5.2 12.1268 0.8, -1.24282 9.8 2.15, 
      0.342421 10.8 4.45, -7.1 0 7, 
      4.63301 6.84289 0, -6.5 0 7, 
      3.9 0.3 0, 4.7 0.3 0, 
      -4.7 13.1 7, -7.2 0.0267949 7, 
      -5.3 12.5 3.5, -7.225 5.6799 8.5, 
      -3.30711 13.1 7, 0.0428932 11.433 7, 
      -7.27321 0.1 6, -6.11276 11.5 7, 
      -0.55 10.8 2.55, -7.3 5.7 8.5, 
      -1.125 11.5 6.24593, 0.342421 10.8 2.55, 
      3.9 0 6, -2.74142 12.5 3.5, 
      -4.8 11.5 7, -2.6 12.5 3.5, 
      0.96967 8.40901 3.04904, -2.5 12.5 3.5, 
      4.5 0 6, -0.55 9.8 6.05, 
      -0.42132 9.8 6.05, -5.27321 12.2 0.8, 
      -2.5 11.5 7, 1.5 7.87868 5.25, 
      4.6 0.0267949 6, -7.3 4.1 8.5, 
      1.14645 9.64645 3.25, -0.55 11.5 4.1, 
      -0.45209 9.83077 6.05, -0.207107 11.5 4.1, 
      -7.27321 0.1 7, -0.207107 11.5 7, 
      0.0428932 11.433 4.13349, 4.55355 6.94645 0, 
      -7.225 4.1201 8.5, 0.489063 11.0109 0.844532, 
      3.9 0 7, 4.5 0 7, 
      0.96967 8.40901 3.95096, -2.55359 12.9 6.52787, 
      -7.3 0.2 6, 4.6 0.0267949 7, 
      0.713859 8.66482 3.80111, 1.67678 9.11612 6.54904, 
      4.7 6.59289 7, 4.6732 0.1 6, 
      -5.3 12.3 0.8, -7.1701 4.175 8.5, 
      -0.0909903 9.46967 0.450962, 0.871928 9.92097 3.19889, 
      -0.95 10.8 5.94282, 1.5 10 6.95, 
      -2.55359 12.9 4.3, 0.616117 10.1768 3.04904, 
      -5.2 -3.6 4.875, -4.8 -3.6 4.875, 
      -2.5 12.7 3.27002, -7.3 0.2 7, 
      2.10104 9.39896 3.77776, -2.5 12.5 6.95858, 
      4.6732 0.1 7, 1.18888 10.3111 3.39207, 
      0.43934 8.93934 3.75, -7.15 5.55 0, 
      1.46386 7.91482 2.13823, -1.54593 11.5 4.675, 
      -7.15 4.25 8.5, -7.3 0.3 6, 
      -6.5 0.3 6, 4.7 0.2 6, 
      0.616117 10.1768 3.95096, 2.66112 8.83888 1.31001, 
      -7.3 9.2 8.5, -1.24282 9.8 1.35, 
      2.06501 8.72789 1, -7.3 0.3 7, 
      -7.1701 5.625 0, -6.5 0.3 7, 
      -2.7 13.0464 2.74342, 2.17097 8.62193 1.36177, 
      -1.35 10.8 1.75, 4.7 0.2 7, 
      -2.7 13.0464 4.3, 2.35 9.15 6.45208, 
      2.17097 8.62193 5.63823, -1.35 9.8 5.25, 
      2.54103 8.95897 0.9, 0.255017 10.5379 0.95, 
      3.9 0.3 6, -4.59289 13.1 4.3, 
      2.10104 9.39896 3.22224, 0.396447 10.3964 0.68934, 
      -7.225 5.6799 0, 4.7 0.3 6, 
      0.489063 11.0109 6.15547, -5.3 12.5 0.8, 
      -5.15858 12.5 0.8, 0.898959 10.601 0.277757, 
      -2.9 13.1 4.3, 0.65 10.85 6.45208, 
      -1.24282 10.8 5.65, -7.3 5.7 0, 
      0.871928 9.92097 0.301111, -4.8 11.5 4.3, 
      -1.7 11.5 5.25, 0.43934 8.93934 6.75, 
      4.63301 6.84289 7, 3.9 0.3 7, 
      -2.5 11.5 4.3, -7.3 4.1 0, 
      4.7 0.3 7, -0.31066 9.68934 2.81066, 
      0.146447 11.3536 2.82678, -7.225 4.1201 0, 
      -5.2 0.3 5.625, -4.8 0.3 5.625, 
      1.3579 8.02078 2.5, 0.164821 9.21386 6.69889, 
      -0.95 9.8 1.05718, -0.0909903 9.46967 6.54904, 
      -0.2 -3.6 2.125, 0.2 -3.6 2.125, 
      -7.1701 4.175 0, 1.18888 10.3111 3.60793, 
      1.81112 9.68888 0.107926, 4.55355 6.94645 7, 
      -0.42132 9.8 2.51552, 1.89645 8.89645 0.68934, 
      0.396447 10.3964 6.31066, 0.713859 8.66482 3.19889, 
      -1.54593 11.5 5.825, -7.1 0 2.5, 
      -6.5 0 2.5, -7.15 4.25 0, 
      2.06501 8.72789 6, 1.18934 8.18934 2.81066, 
      0.0428932 11.433 6.36651, -7.2 0.0267949 2.5, 
      1.3579 8.02078 4.5, -2.5 12.7 0.8, 
      -7.3 9.2 0, -0.55 10.8 0.95, 
      -4.7 13.1 2.10711, -6.58261 11.171 8.5, 
      0.342421 10.8 0.95, 1.46386 7.91482 4.86177, 
      -7.1 0 3.5, -6.5 0 3.5, 
      1.81112 9.68888 6.89207, -0.55 9.8 4.45, 
      -0.42132 9.8 4.45, -7.15 5.55 7, 
      -4.7 13.1 3.5, -7.2 0.0267949 3.5, 
      1.42097 9.37193 6.69889, -3.30711 13.1 3.5, 
      -5.1 12.1 7, -4.8 12.1 7, 
      -0.45209 9.83077 4.45, -7.27321 0.1 2.5, 
      -1.24282 10.8 4.85, -0.31066 9.68934 4.18934, 
      -1.125 11.5 2.74593, 3.9 0 2.5, 
      -4.8 11.5 3.5, 1.89645 8.89645 6.31066, 
      4.5 0 2.5, -5.2 12.1268 7, 
      -0.55 9.8 2.55, -0.42132 9.8 2.55, 
      -6.54578 11.25 8.5, 0.164821 9.21386 3.80111, 
      -2.5 11.5 3.5, 1.5 7.87868 1.75, 
      4.6 0.0267949 2.5, -7.1701 5.625 7, 
      -0.55 11.5 0.6, -0.45209 9.83077 2.55, 
      -0.207107 11.5 0.6, -7.27321 0.1 3.5, 
      -0.55 11.5 6.4, -0.207107 11.5 6.4, 
      0.0428932 11.433 0.633494, 0.146447 11.3536 4.17322, 
      3.9 0 3.5, 4.5 0 3.5, 
      -1.125 11.5 4.25407, -5.27321 12.2 7, 
      0.96967 8.40901 0.450962, -2.55359 12.9 3.02787, 
      2.35 9.15 4.04792, -7.3 0.2 2.5, 
      4.6 0.0267949 3.5, -7.225 5.6799 7, 
      0.713859 8.66482 0.301111, 1.67678 9.11612 3.04904, 
      4.6732 0.1 2.5, -5.3 12.5 4.44142, 
      -7.3 5.7 7, -0.95 10.8 2.44282, 
      1.5 10 3.45, -2.55359 12.9 0.8, 
      2.20711 8.58579 5.25, -0.42132 9.8 4.48448, 
      0.65 10.85 4.04792, 0.255017 10.5379 6.05, 
      -0.95 9.8 5.94282, -5.2 0.3 4.875, 
      -4.8 0.3 4.875, -7.3 0.2 3.5, 
      2.66112 8.83888 5.68999, 2.10104 9.39896 0.277757, 
      1.18934 8.18934 4.18934, -7.3 4.1 7, 
      -2.5 12.5 3.45858, 4.6732 0.1 3.5, 
      -7.225 4.1201 7, 0.43934 8.93934 0.25, 
      -5.3 12.3 7, 1.67678 9.11612 3.95096, 
      -0.2 -3.6 1.375, -1.54593 11.5 1.175, 
      -7.3 0.3 2.5, 0.2 -3.6 1.375, 
      0.146447 11.3536 8.5, 1.42097 9.37193 3.80111, 
      -6.5 0.3 2.5, -0.95 10.8 4.55718, 
      -6.36276 11.433 8.5, 4.7 0.2 2.5, 
      0.616117 10.1768 0.450962, -7.1701 4.175 7, 
      -2.9 13.1 5.99289, -7.1 0 8.5, 
      -6.5 0 8.5, -7.3 0.3 3.5, 
      -6.5 0.3 3.5, 0.898959 10.601 6.72224, 
      -7.2 0.0267949 8.5, 4.7 0.2 3.5, 
      -2.7 13.0464 0.8, 1.14645 9.64645 3.75, 
      0.0428932 11.433 8.5, -6.58261 11.171 0, 
      2.35 9.15 2.95208, -6.11276 11.5 8.5, 
      2.17097 8.62193 2.13823, -1.35 9.8 1.75, 
      1.5 10 3.55, 3.9 0.3 2.5, 
      -4.59289 13.1 0.8, -7.15 4.25 7, 
      2.54103 8.95897 6.1, 4.7 0.3 2.5, 
      0.489063 11.0109 2.65547, -5.1 12.1 4.3, 
      -2.9 13.1 0.8, 0.65 10.85 2.95208, 
      -4.8 12.1 4.3, -1.24282 10.8 2.15, 
      -7.27321 0.1 8.5, -0.207107 11.5 8.5, 
      -7.3 9.2 7, -4.8 11.5 0.8, 
      -1.7 11.5 1.75, 2.70208 8.79792 5.25, 
      -5.2 12.1268 4.3, -1.24282 9.8 5.65, 
      3.9 0 8.5, 0.43934 8.93934 3.25, 
      4.5 0 8.5, -6.54578 11.25 0, 
      3.9 0.3 3.5, -2.5 11.5 0.8, 
      4.7 0.3 3.5, -5.3 12.5 7, 
      4.6 0.0267949 8.5, -0.55 10.8 6.05, 
      4.7 6.59289 8.5, 0.342421 10.8 6.05, 
      -2.74142 12.5 7, -2.6 12.5 7, 
      0.96967 8.40901 6.54904, -2.5 12.5 7, 
      -5.27321 12.2 4.3, 0.164821 9.21386 3.19889, 
      -7.3 0.2 8.5, -0.0909903 9.46967 3.04904, 
      -0.2 0.3 2.125, 1.14645 9.64645 6.75, 
      0.2 0.3 2.125, 1.18888 10.3111 0.107926, 
      4.6732 0.1 8.5, 0.489063 11.0109 4.34453, 
      0.396447 10.3964 2.81066, -1.54593 11.5 2.325, 
      -5.3 12.3 4.3, -0.0909903 9.46967 3.95096, 
      2.06501 8.72789 2.5, 0.871928 9.92097 6.69889, 
      0.146447 11.3536 0, 0.0428932 11.433 2.86651, 
      0.616117 10.1768 6.54904, 1.3579 8.02078 1, 
      -6.36276 11.433 0, -6.5 0.3 8.5, 
      -2.5 12.7 6.77002, 4.7 0.2 8.5, 
      1.46386 7.91482 1.36177, 1.18888 10.3111 6.89207, 
      1.81112 9.68888 3.39207, -0.55 9.8 0.95, 
      -0.42132 9.8 0.95, 1.46386 7.91482 5.63823, 
      1.42097 9.37193 3.19889, -5.1 12.1 3.5, 
      0.0428932 11.433 0, -4.8 12.1 3.5, 
      -0.45209 9.83077 0.95, -1.24282 10.8 1.35, 
      -6.11276 11.5 0, -0.31066 9.68934 0.68934, 
      1.89645 8.89645 2.81066, 2.66112 8.83888 4.81001, 
      -5.2 12.1268 3.5, -1.24282 9.8 4.85, 
      2.06501 8.72789 4.5
    ]
  }

  Normal
  {
    vector
    [
      0.9659 0.0000 0.0000,-1.0000 0.0000 0.0000,
      1.0000 0.0000 0.0000,-0.3688 0.8901 -0.2385,
      0.0000 0.0000 1.0000,0.0000 0.0000 -1.0000,
      0.4830 0.0000 -0.8365,0.4830 0.0000 0.8365,
      -0.6772 0.6772 0.2566,0.0920 0.4293 -0.8902,
      -0.0652 0.5865 0.7981,-0.4957 0.4957 0.7011,
      0.4957 -0.4957 -0.7011,0.2607 0.2607 -0.9216,
      -0.3688 0.8901 0.2385,-0.9659 0.2588 0.0000,
      0.9659 -0.2588 0.0000,-0.9659 -0.2588 0.0000,
      0.9659 0.2588 0.0000,-0.3505 0.3505 -0.8586,
      0.3505 -0.3505 0.8586,-0.9397 0.3420 0.0000,
      -0.2001 0.7215 0.6517,0.4349 0.4349 0.7533,
      -0.5883 0.5547 0.5883,-0.9063 0.4226 0.0000,
      -0.6772 0.6772 -0.2566,0.8796 0.4338 0.0000,
      0.8698 0.4349 0.0000,0.7533 0.4349 -0.4349,
      0.4293 0.0920 -0.8902,-0.8365 0.4830 0.0000,
      0.8365 -0.4830 0.0000,-0.8365 -0.4830 0.0000,
      0.8365 0.4830 0.0000,0.0000 0.4472 -0.8944,
      -0.2001 0.7215 -0.6517,-0.8067 0.5649 0.0000,
      -0.1814 0.1814 -0.9577,0.1814 -0.1814 0.9577,
      0.2331 0.4349 0.8698,-0.0652 0.5865 -0.7981,
      0.7934 0.6088 0.0000,0.7821 -0.2608 0.5659,
      0.4293 0.0920 0.8902,0.2607 0.2607 0.9216,
      -0.7011 0.7011 0.0000,-0.7071 0.7071 0.0000,
      0.7071 0.7071 -0.0000,0.8365 0.0000 -0.4830,
      0.8365 0.0000 0.4830,0.6088 0.7934 0.0000,
      -0.4957 0.4957 -0.7011,0.4957 -0.4957 0.7011,
      0.5610 -0.5610 -0.6088,0.4830 -0.8365 0.0000,
      -0.4830 0.8365 0.0000,0.0000 0.0000 -0.9914,
      0.0000 0.0000 0.9914,0.4830 0.8365 0.0000,
      -0.4830 -0.8365 0.0000,0.4338 0.8796 0.0000,
      -0.3910 0.9124 0.0000,-0.1814 0.1814 0.9577,
      0.1814 -0.1814 -0.9577,0.5883 0.5547 -0.5883,
      0.2588 -0.9659 0.0000,-0.2588 0.9659 0.0000,
      0.2588 0.9659 0.0000,-0.2588 -0.9659 0.0000,
      0.0920 0.4293 0.8902,0.0000 -1.0000 0.0000,
      0.0000 1.0000 0.0000,-0.3505 0.3505 0.8586,
      0.3505 -0.3505 -0.8586,-0.6071 0.6071 0.4957,
      -0.3037 0.8250 -0.4608,-0.3037 0.8250 0.4608,
      0.7215 -0.2001 0.6517,0.5865 -0.0652 0.7981,
      0.7821 -0.2608 -0.5659,0.4349 0.4349 -0.7533,
      0.5865 -0.0652 -0.7981,0.7533 0.4349 0.4349,
      0.5610 -0.5610 0.6088,0.2331 0.4349 -0.8698,
      0.0000 0.4472 0.8944,-0.6071 0.6071 -0.4957,
      0.7215 -0.2001 -0.6517,0.2588 0.0000 -0.9659,
      0.2588 0.0000 0.9659
    ]
  }

    Node_Info
    {
      fields [SFString node_type, SFString node_name]
      node_type "Poly_Surface"
      node_name ""
    }
    NormalBinding { value PER_VERTEX_INDEXED }
    Separator
    {
      MatrixTransform
      {
      matrix 1.0000 0.0000 0.0000 0.0000
             0.0000 1.0000 0.0000 0.0000
             0.0000 0.0000 1.0000 0.0000
             0.0000 0.0000 0.0000 1.0000
      }
      IndexedFaceSet
      {
      coordIndex
      [
        48, 308, 208, -1
        48, 208, 376, -1
        311, 50, 378, -1
        311, 378, 209, -1
        50, 311, 308, -1
        50, 308, 48, -1
        209, 378, 376, -1
        209, 376, 208, -1
        208, 308, 311, -1
        208, 311, 209, -1
        44, 202, 295, -1
        44, 295, 142, -1
        203, 45, 143, -1
        203, 143, 296, -1
        296, 143, 142, -1
        296, 142, 295, -1
        45, 203, 202, -1
        45, 202, 44, -1
        44, 142, 143, -1
        44, 143, 45, -1
          ]
      normalIndex
      [
1, 1, 1, -1
        1, 1, 1, -1
        2, 2, 2, -1
        2, 2, 2, -1
        5, 5, 5, -1
        5, 5, 5, -1
        4, 4, 4, -1
        4, 4, 4, -1
        71, 71, 71, -1
        71, 71, 71, -1
        1, 1, 1, -1
        1, 1, 1, -1
        2, 2, 2, -1
        2, 2, 2, -1
        5, 5, 5, -1
        5, 5, 5, -1
        4, 4, 4, -1
        4, 4, 4, -1
        71, 71, 71, -1
        71, 71, 71, -1
              ]
      }
    }
  }
}
